<svg xmlns="http://www.w3.org/2000/svg" viewBox="0 0 80 86.9125" x="0px" y="0px"><title><!-- people --></title><g data-name="Calque 2"><g><path d="M61.41,60.46a37.3,37.3,0,0,0-4.3-5.17,36.81,36.81,0,0,0-16.72-9.61A17.3,17.3,0,0,0,48.46,31.1V24.18a17.28,17.28,0,1,0-34.57,0V31.1A17.3,17.3,0,0,0,22,45.69,36.74,36.74,0,0,0,5.25,55.29,37.17,37.17,0,0,0,1.1,60.24a5.87,5.87,0,0,0,4.75,9.3H56.51A5.84,5.84,0,0,0,61.41,60.46Z"/><path d="M79,53.57a37.31,37.31,0,0,0-4.3-5.17A36.81,36.81,0,0,0,58,38.79,17.3,17.3,0,0,0,66,24.21V17.28A17.24,17.24,0,0,0,37,4.65,20.42,20.42,0,0,1,51.57,24.18V31.1a20.23,20.23,0,0,1-5,13.39A40.08,40.08,0,0,1,59.31,53.1,40.5,40.5,0,0,1,64,58.7a8.72,8.72,0,0,1,1.47,3.94h8.66A5.84,5.84,0,0,0,79,53.57Z"/></g></g><text x="0" y="84.53" fill="#000000" font-size="5px" font-weight="bold" font-family="'Helvetica Neue', Helvetica, Arial-Unicode, Arial, Sans-serif"><!-- Created by Tanguy Keryhuel --></text><text x="0" y="89.53" fill="#000000" font-size="5px" font-weight="bold" font-family="'Helvetica Neue', Helvetica, Arial-Unicode, Arial, Sans-serif"><!-- from the Noun Project --></text></svg>
