<svg xmlns="http://www.w3.org/2000/svg" xmlns:xlink="http://www.w3.org/1999/xlink" version="1.1" x="0px" y="0px" viewBox="0 0 100 125" style="enable-background:new 0 0 100 100;" xml:space="preserve"><path d="M48.6,38.6c-0.6-0.6-1.5-1-2.4-1c0,0,0,0,0,0c0,0-17.4,0.1-21.7,0.1l-1.9,0c-0.9,0-1.3-0.3-1.3-0.6v-3.6h0  c1.9-1.6,3.1-4.1,3.1-6.9c0-4.8-3.5-8.7-7.7-8.7C12.4,18,9,21.9,9,26.6c0,3.1,1.5,5.9,3.7,7.4l-0.2,3.1c0,0.2-0.2,0.3-0.4,0.4  c-0.2,0.1-0.4,0.1-0.4,0.1H7.6c-2,0-5.7,1-5.7,5l0,25.7c0,1.8,1.3,3.4,3.1,3.6c0.8,0.1,1.6-0.1,2.2-0.6V80c0,0.2,0.1,0.3,0.2,0.5  c0.1,0.3,0.3,0.4,0.6,0.4h6.6h9.8c0.8,0,1.5-0.7,1.5-1.5l0-34.5c0.1-0.2,0.2-0.4,0.5-0.4c1,0,20-0.1,20-0.1c0.9,0,1.8-0.4,2.4-1  c0.6-0.7,1-1.5,1-2.4C49.6,40.1,49.3,39.3,48.6,38.6z"/><path d="M65.5,66.8h-3.9c0,0-0.2,0-0.3-0.1L61,63.3c2.1-1.5,3.5-4.1,3.5-7c0-4.6-3.3-8.3-7.4-8.3c-4.1,0-7.4,3.7-7.4,8.3  c0,3,1.4,5.6,3.6,7.1v2.9c0,0.4-0.7,0.5-0.7,0.5h-3.9c-1.9,0-5.5,1-5.5,4.8v9.6c0,0.4,0.3,0.8,0.8,0.8h26.4c0.4,0,0.8-0.3,0.8-0.8  v-9.6C71,68.5,66.9,66.8,65.5,66.8z"/><path d="M92.6,66.8h-3.9c0,0-0.2,0-0.3-0.1l-0.3-3.4c2.1-1.5,3.5-4.1,3.5-7c0-4.6-3.3-8.3-7.4-8.3c-4.1,0-7.4,3.7-7.4,8.3  c0,3,1.4,5.6,3.6,7.1v2.9c0,0.4-0.7,0.5-0.7,0.5h-3.9c-1.9,0-5.5,1-5.5,4.8v9.6c0,0.4,0.3,0.8,0.8,0.8h26.4c0.4,0,0.8-0.3,0.8-0.8  v-9.6C98.1,68.5,94,66.8,92.6,66.8z"/><path d="M88.3,18.7H52.4c-0.2,0-0.4,0.2-0.4,0.4V22c0,0.2,0.2,0.4,0.4,0.4h1.3v5.8c0,0,0,0,0,0v7.1h0c0,0,0,0.1,0,0.2v8.4  c0,0.2,0.2,0.4,0.4,0.4h32.6c0.2,0,0.4-0.2,0.4-0.4V22.4h1.3c0.2,0,0.4-0.2,0.4-0.4v-2.8C88.8,18.9,88.6,18.7,88.3,18.7z M86.2,43.4  H54.5v-8c0-0.1,0-0.1,0-0.2h0v-8.7h0v-4.2h31.7V43.4z"/><text x="0" y="115" fill="#000000" font-size="5px" font-weight="bold" font-family="'Helvetica Neue', Helvetica, Arial-Unicode, Arial, Sans-serif"><!-- Created by Jenny Chisnell --></text><text x="0" y="120" fill="#000000" font-size="5px" font-weight="bold" font-family="'Helvetica Neue', Helvetica, Arial-Unicode, Arial, Sans-serif"><!-- from the Noun Project --></text></svg>
