<svg xmlns="http://www.w3.org/2000/svg" xmlns:xlink="http://www.w3.org/1999/xlink" version="1.1" x="0px" y="0px" viewBox="NaN NaN NaN 187.5"><g><path d="M84.544,43.628 C92.582,43.628 99.976,45.718 105.923,49.576 C112.835,54.076 117.818,60.506 120.55,68.221 C121.515,70.793 122.158,73.687 122.479,76.741 C122.64,78.509 122.479,80.116 121.836,81.884 C121.354,83.974 121.193,84.938 121.515,86.063 C122.318,88.314 124.569,90.243 126.497,92.493 C127.944,94.1 128.909,95.547 129.873,96.994 C130.677,98.601 131.199,100.57 130.395,102.499 C129.752,104.589 128.398,106.632 123.102,107.914 C123.102,107.914 123.295,110.321 123.263,112.485 C122.969,114.59 122.866,116.355 122.062,118.605 C121.74,119.731 122.062,121.117 122.318,123.676 C122.318,126.248 121.354,128.498 119.425,130.588 C117.657,132.517 115.407,133.642 112.513,134.124 C108.495,134.767 103.572,133.582 99.714,133.742 L99.975,141.302 C99.927,146.357 99.827,146.639 96.439,146.682 C95.931,146.688 94.455,146.591 57.269,146.682 C54.941,146.678 54.991,146.226 54.994,144.773 C54.69,144.066 54.808,133.803 54.647,131.07 C54.326,125.123 53.522,116.282 49.825,108.727 C49.021,107.12 48.218,105.674 47.093,103.423 C44.36,98.28 41.467,93.136 40.824,87.028 C40.01,78.522 42.408,70.367 46.83,63.174 L57.151,63.174 C57.272,63.174 57.371,62.78 57.371,62.293 C57.371,61.807 57.272,61.413 57.151,61.413 L48.067,61.413 L49.224,59.926 L57.151,59.926 C57.272,59.926 57.371,59.532 57.371,59.046 C57.371,58.559 57.272,58.165 57.151,58.165 L50.749,58.165 L51.111,57.773 C52.83,56.078 52.146,56.67 53.068,55.893 L56.214,55.893 C57.795,55.89 57.471,55.268 57.635,54.505 C58.127,52.51 57.852,53.429 58.426,51.739 C60.905,49.886 63.733,48.588 66.542,47.325 L66.942,47.17 L67.257,47.352 L67.676,47.594 L68.128,47.855 L68.608,48.132 L69.113,48.423 L69.636,48.726 L70.176,49.037 L70.845,49.424 L71.562,49.837 L72.12,50.16 L72.948,50.638 L73.487,50.949 L74.011,51.251 L74.515,51.543 L77.446,53.235 L77.471,53.249 L77.505,53.269 L77.522,53.279 L77.524,53.28 C77.63,53.341 77.912,53.049 78.155,52.627 C78.399,52.206 78.51,51.815 78.405,51.755 L78.326,51.709 L78.302,51.695 L78.236,51.657 L78.156,51.611 L78.061,51.556 L77.952,51.493 L77.83,51.422 L77.695,51.345 L77.547,51.259 L77.388,51.168 L77.129,51.018 L76.747,50.797 L76.328,50.555 L75.876,50.294 L69.079,46.37 C74.052,44.547 79.274,43.772 84.545,43.628 L84.544,43.628 z M80.603,86.464 L79.567,86.538 C79.469,87.623 78.877,88.511 77.792,89.004 C76.806,89.399 75.622,89.202 74.833,88.61 C74.34,89.004 73.847,89.596 73.353,90.089 C74.044,90.878 74.241,91.964 73.847,93.049 C73.452,94.134 72.466,94.725 71.479,94.824 C71.381,95.515 71.381,96.205 71.479,96.896 C72.564,96.994 73.452,97.586 73.945,98.671 C74.34,99.658 74.143,100.841 73.551,101.63 C73.945,102.124 74.537,102.617 75.03,103.11 C75.819,102.42 76.905,102.222 77.989,102.617 C79.075,103.011 79.666,103.998 79.765,104.984 C80.456,105.083 81.146,105.083 81.837,104.984 C81.935,103.899 82.527,103.011 83.612,102.518 C84.599,102.124 85.782,102.321 86.571,102.913 C87.065,102.518 87.558,101.926 88.051,101.433 C87.361,100.644 87.163,99.559 87.558,98.474 C87.952,97.389 88.939,96.797 89.925,96.698 C90.024,96.008 90.024,95.317 89.925,94.627 C88.84,94.528 87.854,93.936 87.459,92.851 C87.065,91.865 87.262,90.681 87.854,89.892 C87.459,89.399 86.867,88.906 86.374,88.412 C85.585,89.103 84.5,89.3 83.415,88.906 C82.33,88.511 81.738,87.525 81.639,86.538 L80.603,86.464 z M80.637,89.644 L81.319,89.692 C81.384,90.342 81.773,90.991 82.487,91.25 C83.201,91.51 83.915,91.38 84.434,90.926 C84.759,91.25 85.148,91.575 85.408,91.899 C85.018,92.419 84.889,93.198 85.148,93.846 C85.408,94.56 86.057,94.95 86.771,95.015 C86.836,95.469 86.836,95.923 86.771,96.378 C86.122,96.443 85.473,96.832 85.213,97.546 C84.953,98.26 85.083,98.974 85.538,99.493 C85.213,99.818 84.889,100.207 84.564,100.467 C84.045,100.077 83.266,99.948 82.617,100.207 C81.903,100.532 81.514,101.116 81.449,101.83 C80.994,101.895 80.54,101.895 80.086,101.83 C80.021,101.181 79.631,100.532 78.917,100.272 C78.203,100.012 77.489,100.142 76.97,100.596 C76.646,100.272 76.256,99.948 75.997,99.623 C76.386,99.104 76.516,98.325 76.256,97.676 C75.932,96.962 75.348,96.573 74.634,96.508 C74.569,96.053 74.569,95.599 74.634,95.145 C75.283,95.08 75.932,94.69 76.191,93.976 C76.451,93.262 76.321,92.548 75.867,92.029 C76.191,91.705 76.516,91.315 76.84,91.056 C77.36,91.445 78.139,91.575 78.788,91.315 C79.501,90.991 79.891,90.407 79.956,89.693 L80.637,89.644 z M80.619,93.521 L80.175,93.555 C79.412,93.724 78.835,94.251 78.528,94.95 C78.074,96.118 78.658,97.481 79.826,97.935 C80.994,98.39 82.357,97.806 82.812,96.637 C83.266,95.469 82.682,94.106 81.513,93.652 L81.068,93.529 L80.619,93.521 z M62.961,72.612 L61.634,72.707 C61.508,74.097 60.75,75.235 59.36,75.866 C58.096,76.372 56.58,76.119 55.569,75.361 C54.937,75.866 54.305,76.625 53.673,77.256 C54.558,78.267 54.811,79.657 54.305,81.047 C53.8,82.437 52.536,83.195 51.273,83.322 C51.146,84.206 51.146,85.091 51.273,85.975 C52.663,86.102 53.8,86.86 54.432,88.25 C54.937,89.514 54.685,91.03 53.926,92.041 C54.432,92.673 55.19,93.304 55.822,93.936 C56.833,93.052 58.223,92.799 59.613,93.304 C61.003,93.81 61.761,95.073 61.887,96.337 C62.772,96.463 63.656,96.463 64.541,96.337 C64.667,94.947 65.425,93.81 66.815,93.178 C68.079,92.673 69.595,92.925 70.606,93.683 C71.238,93.178 71.87,92.42 72.502,91.788 C71.617,90.777 71.364,89.387 71.87,87.997 C72.375,86.607 73.639,85.849 74.902,85.723 C75.029,84.838 75.029,83.954 74.902,83.069 C73.513,82.943 72.249,82.185 71.743,80.794 C71.238,79.531 71.491,78.015 72.249,77.004 C71.743,76.372 70.985,75.74 70.353,75.108 C69.343,75.993 67.953,76.245 66.563,75.74 C65.173,75.235 64.414,73.971 64.288,72.707 L62.961,72.612 z M62.926,80.161 L63.8,80.177 L64.667,80.415 C66.942,81.3 68.079,83.954 67.194,86.228 C66.31,88.503 63.656,89.64 61.382,88.755 C59.107,87.871 57.97,85.217 58.854,82.943 C59.468,81.581 60.546,80.562 62.062,80.227 L62.926,80.161 z M63.087,81.503 C61.42,81.503 60.069,82.855 60.069,84.522 C60.069,86.189 61.42,87.541 63.088,87.541 C64.755,87.541 66.106,86.189 66.106,84.522 C66.106,82.855 64.755,81.503 63.087,81.503 z M84.419,51.865 C83.966,51.874 83.518,51.92 83.069,51.976 C82.893,53.91 81.839,55.491 79.905,56.37 C78.148,57.073 76.039,56.722 74.633,55.667 C73.754,56.37 72.875,57.425 71.996,58.303 C73.227,59.709 73.578,61.643 72.875,63.576 C72.172,65.509 70.415,66.564 68.657,66.74 C68.481,67.97 68.481,69.2 68.657,70.431 C70.59,70.606 72.172,71.661 73.051,73.594 C73.754,75.352 73.403,77.461 72.348,78.867 C73.051,79.746 74.106,80.624 74.984,81.503 C76.39,80.273 78.324,79.921 80.257,80.624 C82.19,81.327 83.245,83.085 83.42,84.842 C84.651,85.018 85.881,85.018 87.111,84.842 C87.287,82.909 88.342,81.327 90.275,80.449 C92.033,79.746 94.142,80.097 95.548,81.152 C96.426,80.449 97.305,79.394 98.184,78.515 C96.954,77.109 96.602,75.176 97.305,73.243 C98.008,71.309 99.766,70.255 101.523,70.079 C101.699,68.849 101.699,67.618 101.523,66.388 C99.59,66.212 97.832,65.158 97.129,63.225 C96.426,61.467 96.778,59.358 97.832,57.952 C97.129,57.073 96.075,56.194 95.196,55.316 C93.79,56.546 91.857,56.897 89.923,56.194 C87.99,55.491 86.936,53.734 86.76,51.976 L85.837,51.877 C84.915,51.874 85.387,51.878 84.419,51.865 z M85.09,60.176 C89.637,60.176 93.323,63.862 93.323,68.409 C93.323,72.956 89.637,76.642 85.09,76.642 C80.543,76.642 76.857,72.956 76.857,68.409 C76.857,63.862 80.543,60.176 85.09,60.176 z M85.09,64.303 C82.817,64.303 80.974,66.146 80.974,68.419 C80.974,70.693 82.817,72.536 85.09,72.536 C87.364,72.536 89.207,70.693 89.207,68.419 C89.207,66.146 87.364,64.303 85.09,64.303 z M55.12,64.668 L46.613,64.668 C46.492,64.669 46.393,65.063 46.393,65.549 C46.419,66.053 46.383,65.781 46.528,66.361 L46.613,66.43 L55.12,66.43 C55.241,66.43 55.34,66.036 55.34,65.549 C55.34,65.063 55.241,64.669 55.12,64.668 z" fill="#000000"/><path d="M82.384,37.365 C82.384,37.365 68.614,37.365 68.614,37.365 L82.384,37.365 z" fill="#000000"/><path d="M81.384,35.485 C81.505,35.485 81.604,35.879 81.604,36.365 C81.604,36.852 81.505,37.246 81.384,37.246 L67.614,37.246 L67.528,37.177 C67.383,36.597 67.419,36.869 67.394,36.365 C67.394,35.879 67.492,35.485 67.614,35.485 L81.384,35.485 z" fill="#000000"/><path d="M49.903,20.753 C42.541,20.753 36.264,26.955 36.214,34.611 C36.214,41.833 41.262,44.636 43.171,53.506 C43.335,54.268 43.012,54.843 44.592,54.893 L51.993,54.893 C53.302,53.516 56.627,51.221 57.441,50.687 C59.35,41.818 63.593,41.833 63.593,34.611 C63.543,26.955 57.267,20.753 49.903,20.753 z" fill="#000000"/><path d="M47.067,60.413 C47.067,60.413 45.83,62.174 45.83,62.174 L43.43,62.174 L43.404,62.105 C43.359,61.525 43.37,61.797 43.362,61.293 C43.362,60.807 43.393,60.413 43.43,60.413 L47.067,60.413 z" fill="#000000"/><path d="M61.405,35.685 z" fill="#000000"/><path d="M65.948,44.008 L65.95,44.009 L65.956,44.012 L66.392,44.264 L66.401,44.269 L68.079,45.37 L65.942,46.17 L65.317,45.677 L65.236,45.63 L65.171,45.592 L65.121,45.564 L65.087,45.544 L65.076,45.538 L65.068,45.533 C64.962,45.472 65.074,45.081 65.317,44.66 C65.56,44.239 65.843,43.947 65.948,44.008 z" fill="#000000"/><path d="M49.749,57.165 C49.749,57.165 48.286,58.926 48.224,58.926 L43.475,58.926 L43.431,58.857 C43.357,58.278 43.375,58.549 43.362,58.046 C43.362,57.559 43.413,57.165 43.475,57.165 L49.749,57.165 z" fill="#000000"/><path d="M32.194,35.485 C32.315,35.485 32.414,35.879 32.414,36.365 C32.414,36.852 32.315,37.246 32.194,37.246 L18.423,37.246 L18.338,37.177 C18.193,36.597 18.229,36.869 18.203,36.365 C18.203,35.879 18.302,35.485 18.423,35.485 L32.194,35.485 z" fill="#000000"/><path d="M34.253,43.87 C34.358,43.809 34.641,44.101 34.884,44.522 C35.127,44.943 35.239,45.334 35.134,45.395 L26.218,50.543 L25.738,50.82 L25.286,51.081 L25.073,51.204 L23.333,52.208 L23.312,52.221 L23.262,52.249 L23.238,52.263 L23.209,52.28 L23.1,52.263 C22.684,51.833 22.851,52.051 22.578,51.627 C22.334,51.206 22.223,50.815 22.328,50.755 L22.33,50.753 L22.347,50.743 L22.452,50.683 L22.496,50.657 L22.577,50.611 L22.672,50.556 L22.781,50.493 L22.903,50.423 L23.038,50.345 L23.185,50.259 L23.345,50.168 L23.604,50.018 L23.986,49.797 L24.262,49.638 L31.8,45.286 L32.176,45.069 L32.595,44.827 L32.977,44.606 L33.236,44.457 L33.395,44.365 L33.543,44.28 L33.678,44.202 L33.8,44.131 L33.909,44.068 L34.004,44.013 L34.084,43.967 L34.15,43.929 L34.2,43.9 L34.234,43.881 L34.251,43.871 L34.253,43.87 z" fill="#000000"/><path d="M21.391,18.804 L21.42,18.821 L21.444,18.834 L21.469,18.849 L23.468,20.003 L23.92,20.264 L24.4,20.541 L24.904,20.832 L25.05,20.916 L27.353,22.246 L27.912,22.568 L28.739,23.046 L29.279,23.358 L29.802,23.66 L30.307,23.951 L30.787,24.228 L31.239,24.489 L31.658,24.731 L32.04,24.952 L32.299,25.102 L32.458,25.193 L32.579,25.263 L32.863,25.427 L32.972,25.49 L33.067,25.545 L33.147,25.591 L33.213,25.629 L33.263,25.658 L33.297,25.677 L33.308,25.684 L33.316,25.689 C33.421,25.749 33.309,26.14 33.066,26.561 C32.823,26.983 32.541,27.275 32.435,27.214 L32.433,27.213 L32.427,27.209 L31.982,26.952 L31.86,26.882 L31.725,26.804 L31.698,26.788 L25.756,23.358 L25.086,22.971 L24.547,22.66 L24.239,22.482 L21.51,20.906 L21.368,20.824 L21.22,20.739 L21.085,20.661 L20.963,20.59 L20.854,20.528 L20.759,20.473 L20.679,20.426 L20.613,20.388 L20.589,20.374 L20.548,20.351 L20.529,20.34 L20.512,20.33 L20.51,20.329 C20.405,20.268 20.516,19.877 20.76,19.456 C21.003,19.035 21.285,18.743 21.391,18.804 z" fill="#000000"/><path d="M66.923,6.86 C67.518,6.981 67.254,6.895 67.724,7.09 C68.164,7.297 68.471,7.552 68.41,7.657 L61.525,19.583 C61.464,19.688 61.058,19.605 60.618,19.398 C60.179,19.19 59.872,18.935 59.933,18.83 L66.818,6.905 L66.923,6.86 z" fill="#000000"/><path d="M78.255,18.804 C78.36,18.743 78.642,19.035 78.886,19.456 C79.129,19.877 79.241,20.268 79.135,20.329 L79.133,20.33 L79.116,20.34 L79.097,20.351 L79.057,20.374 L79.032,20.388 L78.967,20.426 L78.886,20.473 L78.791,20.528 L78.682,20.59 L78.56,20.661 L78.425,20.739 L78.278,20.824 L78.135,20.906 L67.947,26.788 L67.92,26.804 L67.785,26.882 L67.663,26.953 L67.218,27.209 L67.212,27.213 L67.21,27.214 L67.101,27.197 C66.686,26.767 66.853,26.985 66.579,26.561 C66.336,26.14 66.224,25.749 66.329,25.689 L66.338,25.684 L66.349,25.677 L66.383,25.658 L66.432,25.629 L66.498,25.591 L66.578,25.545 L66.673,25.49 L66.782,25.427 L67.067,25.263 L67.187,25.193 L67.346,25.102 L67.606,24.952 L67.988,24.731 L68.407,24.489 L68.858,24.228 L69.339,23.951 L69.843,23.66 L70.367,23.358 L70.906,23.046 L71.734,22.568 L72.292,22.246 L74.596,20.916 L74.741,20.832 L75.245,20.541 L75.726,20.264 L76.177,20.003 L78.176,18.849 L78.201,18.834 L78.225,18.821 L78.255,18.804 z" fill="#000000"/><path d="M49.867,2.318 C50.353,2.318 50.747,2.416 50.747,2.538 L50.747,16.308 C50.747,16.43 50.353,16.528 49.867,16.528 C49.38,16.528 48.986,16.43 48.986,16.308 L48.986,2.538 C48.986,2.416 49.38,2.318 49.867,2.318 z" fill="#000000"/><path d="M32.884,6.86 L32.989,6.904 L39.875,18.83 C39.936,18.935 39.629,19.19 39.189,19.398 C38.749,19.606 38.344,19.688 38.283,19.583 L31.398,7.657 C31.337,7.552 31.643,7.298 32.083,7.09 C32.553,6.895 32.289,6.981 32.884,6.86 z" fill="#000000"/></g><text x="NaN" y="NaN" fill="#000000" font-size="5px" font-weight="bold" font-family="'Helvetica Neue', Helvetica, Arial-Unicode, Arial, Sans-serif"><!-- Created by Anna Sophie --></text><text x="NaN" y="NaN" fill="#000000" font-size="5px" font-weight="bold" font-family="'Helvetica Neue', Helvetica, Arial-Unicode, Arial, Sans-serif"><!-- from the Noun Project --></text></svg>
