<?xml version="1.0" encoding="utf-8"?>
<!-- Generator: Adobe Illustrator 21.0.1, SVG Export Plug-In . SVG Version: 6.00 Build 0)  -->
<svg version="1.1" id="Calque_1" xmlns="http://www.w3.org/2000/svg" xmlns:xlink="http://www.w3.org/1999/xlink" x="0px" y="0px"
	 viewBox="0 0 440 128" style="enable-background:new 0 0 440 128;" xml:space="preserve">
<style type="text/css">
	.st0{fill:#33323D;}
	.st1{opacity:0.6;fill:#CF5C30;}
	.st2{opacity:0.7;fill:#CF5C30;}
	.st3{opacity:0.8;fill:#CF5C30;}
	.st4{opacity:0.9;fill:#CF5C30;}
	.st5{fill:#CF5C30;}
	.st6{fill:#474948;}
</style>
<g>
	<g>
		<path class="st0" d="M66.9,88.5l-0.9,0c-0.1,0-0.2,0-0.3-0.1c-0.1-0.1-0.1-0.1-0.1-0.2l-0.8-2.1l-3.9,0l-0.8,2.1
			c0,0.1-0.1,0.1-0.1,0.2c-0.1,0.1-0.2,0.1-0.3,0.1l-0.9,0l3.4-8.7l1.2,0L66.9,88.5z M61.2,85.3l3.3,0l-1.4-3.5
			c-0.1-0.2-0.2-0.5-0.3-0.8c0,0.2-0.1,0.3-0.1,0.5c0,0.1-0.1,0.3-0.1,0.4L61.2,85.3z"/>
		<path class="st0" d="M74.5,83.4c0,0-0.1,0.1-0.1,0.1c0,0-0.1,0-0.1,0c-0.1,0-0.1,0-0.2-0.1c-0.1-0.1-0.2-0.1-0.3-0.2
			c-0.1-0.1-0.2-0.1-0.4-0.2c-0.2-0.1-0.3-0.1-0.6-0.1c-0.3,0-0.6,0.1-0.8,0.2c-0.2,0.1-0.4,0.3-0.6,0.5c-0.2,0.2-0.3,0.4-0.3,0.7
			c-0.1,0.3-0.1,0.6-0.1,1c0,0.4,0,0.7,0.1,1c0.1,0.3,0.2,0.5,0.4,0.7c0.2,0.2,0.3,0.3,0.6,0.4c0.2,0.1,0.5,0.2,0.7,0.2
			c0.3,0,0.5,0,0.6-0.1c0.2-0.1,0.3-0.1,0.4-0.2c0.1-0.1,0.2-0.1,0.3-0.2c0.1-0.1,0.1-0.1,0.2-0.1c0.1,0,0.2,0,0.2,0.1l0.3,0.4
			c-0.3,0.3-0.6,0.6-1,0.7c-0.4,0.2-0.8,0.2-1.3,0.2c-0.4,0-0.7-0.1-1.1-0.2c-0.3-0.1-0.6-0.3-0.9-0.6c-0.2-0.3-0.4-0.6-0.6-1
			c-0.1-0.4-0.2-0.8-0.2-1.3c0-0.5,0.1-0.9,0.2-1.3s0.3-0.7,0.6-1c0.2-0.3,0.5-0.5,0.9-0.7c0.4-0.2,0.8-0.2,1.2-0.2
			c0.4,0,0.8,0.1,1.1,0.2c0.3,0.1,0.6,0.3,0.9,0.6L74.5,83.4z"/>
		<path class="st0" d="M82.7,83.4c0,0-0.1,0.1-0.1,0.1c0,0-0.1,0-0.1,0c-0.1,0-0.1,0-0.2-0.1c-0.1,0-0.2-0.1-0.3-0.2
			c-0.1-0.1-0.2-0.1-0.4-0.2c-0.2-0.1-0.3-0.1-0.6-0.1c-0.3,0-0.6,0.1-0.8,0.2c-0.2,0.1-0.4,0.3-0.6,0.5c-0.2,0.2-0.3,0.4-0.3,0.7
			c-0.1,0.3-0.1,0.6-0.1,1c0,0.4,0,0.7,0.1,1c0.1,0.3,0.2,0.5,0.4,0.7c0.2,0.2,0.3,0.3,0.6,0.4c0.2,0.1,0.5,0.2,0.7,0.2
			c0.3,0,0.5,0,0.6-0.1c0.2-0.1,0.3-0.1,0.4-0.2c0.1-0.1,0.2-0.1,0.3-0.2c0.1-0.1,0.1-0.1,0.2-0.1c0.1,0,0.2,0,0.2,0.1l0.3,0.4
			c-0.3,0.3-0.6,0.6-1,0.7s-0.8,0.2-1.3,0.2c-0.4,0-0.7-0.1-1.1-0.2c-0.3-0.1-0.6-0.3-0.9-0.6c-0.2-0.3-0.4-0.6-0.6-1
			c-0.1-0.4-0.2-0.8-0.2-1.3c0-0.5,0.1-0.9,0.2-1.3c0.1-0.4,0.3-0.7,0.6-1c0.2-0.3,0.5-0.5,0.9-0.7c0.4-0.2,0.8-0.2,1.2-0.2
			c0.4,0,0.8,0.1,1.1,0.2c0.3,0.1,0.6,0.3,0.9,0.6L82.7,83.4z"/>
		<path class="st0" d="M89.2,82.2c0.5,0,0.9,0.1,1.2,0.2c0.4,0.1,0.7,0.4,0.9,0.6c0.3,0.3,0.4,0.6,0.6,1c0.1,0.4,0.2,0.8,0.2,1.3
			c0,0.5-0.1,0.9-0.2,1.3c-0.1,0.4-0.3,0.7-0.6,1c-0.3,0.3-0.6,0.5-0.9,0.6c-0.4,0.1-0.8,0.2-1.2,0.2c-0.4,0-0.9-0.1-1.2-0.2
			c-0.4-0.1-0.7-0.4-0.9-0.6c-0.3-0.3-0.5-0.6-0.6-1c-0.1-0.4-0.2-0.8-0.2-1.3c0-0.5,0.1-0.9,0.2-1.3c0.1-0.4,0.3-0.7,0.6-1
			c0.3-0.3,0.6-0.5,0.9-0.6C88.4,82.2,88.8,82.2,89.2,82.2z M89.2,87.7c0.6,0,1.1-0.2,1.4-0.6c0.3-0.4,0.4-1,0.4-1.7
			c0-0.7-0.2-1.3-0.5-1.7c-0.3-0.4-0.8-0.6-1.4-0.6c-0.3,0-0.6,0.1-0.8,0.2c-0.2,0.1-0.4,0.3-0.6,0.5c-0.2,0.2-0.3,0.4-0.3,0.7
			c-0.1,0.3-0.1,0.6-0.1,1c0,0.4,0,0.7,0.1,1c0.1,0.3,0.2,0.5,0.3,0.7c0.2,0.2,0.3,0.3,0.6,0.4C88.7,87.6,88.9,87.7,89.2,87.7z"/>
		<path class="st0" d="M96,88.4l0-6.2l0.6,0c0.2,0,0.3,0.1,0.3,0.2l0.1,0.6c0.2-0.3,0.5-0.5,0.8-0.7c0.3-0.2,0.6-0.3,1-0.3
			c0.4,0,0.8,0.1,1,0.3c0.3,0.2,0.4,0.5,0.6,0.9c0.1-0.2,0.2-0.4,0.3-0.6c0.1-0.2,0.3-0.3,0.5-0.4c0.2-0.1,0.4-0.2,0.6-0.2
			c0.2,0,0.4-0.1,0.6-0.1c0.3,0,0.6,0,0.9,0.2c0.3,0.1,0.5,0.3,0.6,0.5c0.2,0.2,0.3,0.4,0.4,0.7c0.1,0.3,0.1,0.6,0.1,1l0,3.9l-1.1,0
			l0-3.9c0-0.5-0.1-0.8-0.3-1.1c-0.2-0.2-0.5-0.4-0.9-0.4c-0.2,0-0.3,0-0.5,0.1c-0.2,0.1-0.3,0.2-0.4,0.3c-0.1,0.1-0.2,0.3-0.3,0.5
			c-0.1,0.2-0.1,0.4-0.1,0.6l0,3.9l-1.1,0l0-3.9c0-0.5-0.1-0.9-0.3-1.1c-0.2-0.2-0.5-0.4-0.9-0.4c-0.3,0-0.5,0.1-0.7,0.2
			c-0.2,0.1-0.4,0.3-0.6,0.6l0,4.6L96,88.4z"/>
		<path class="st0" d="M108.5,90.4l0-8.2l0.6,0c0.2,0,0.3,0.1,0.3,0.2l0.1,0.7c0.3-0.3,0.6-0.6,0.9-0.8c0.3-0.2,0.7-0.3,1.2-0.3
			c0.4,0,0.7,0.1,1,0.2c0.3,0.1,0.5,0.3,0.7,0.6c0.2,0.3,0.4,0.6,0.5,1c0.1,0.4,0.2,0.8,0.2,1.4c0,0.5-0.1,0.9-0.2,1.3
			c-0.1,0.4-0.3,0.7-0.5,1c-0.2,0.3-0.5,0.5-0.8,0.7c-0.3,0.2-0.7,0.2-1.1,0.3c-0.4,0-0.7-0.1-1-0.2c-0.3-0.1-0.5-0.3-0.7-0.5l0,2.7
			L108.5,90.4z M111.3,82.9c-0.4,0-0.7,0.1-0.9,0.2c-0.3,0.2-0.5,0.4-0.7,0.7l0,3c0.2,0.3,0.4,0.5,0.7,0.6c0.2,0.1,0.5,0.2,0.8,0.2
			c0.6,0,1-0.2,1.3-0.6c0.3-0.4,0.5-1,0.5-1.8c0-0.4,0-0.7-0.1-1c-0.1-0.3-0.2-0.5-0.3-0.7c-0.1-0.2-0.3-0.3-0.5-0.4
			C111.7,83,111.5,82.9,111.3,82.9z"/>
		<path class="st0" d="M122.3,88.3l-0.5,0c-0.1,0-0.2,0-0.3,0c-0.1,0-0.1-0.1-0.1-0.2l-0.1-0.6c-0.2,0.1-0.3,0.3-0.5,0.4
			c-0.2,0.1-0.3,0.2-0.5,0.3c-0.2,0.1-0.3,0.1-0.5,0.2c-0.2,0-0.4,0.1-0.6,0.1c-0.2,0-0.5,0-0.7-0.1c-0.2-0.1-0.4-0.2-0.5-0.3
			c-0.2-0.1-0.3-0.3-0.4-0.5c-0.1-0.2-0.1-0.4-0.1-0.7c0-0.2,0.1-0.5,0.2-0.7c0.1-0.2,0.3-0.4,0.6-0.6c0.3-0.2,0.7-0.3,1.2-0.4
			c0.5-0.1,1.1-0.2,1.8-0.2l0-0.5c0-0.5-0.1-0.8-0.3-1.1c-0.2-0.2-0.5-0.4-0.9-0.4c-0.3,0-0.5,0-0.7,0.1c-0.2,0.1-0.3,0.1-0.5,0.2
			c-0.1,0.1-0.2,0.2-0.3,0.2c-0.1,0.1-0.2,0.1-0.3,0.1c-0.1,0-0.1,0-0.2-0.1c-0.1,0-0.1-0.1-0.1-0.1l-0.2-0.3
			c0.3-0.3,0.7-0.6,1.1-0.7c0.4-0.2,0.8-0.2,1.3-0.2c0.3,0,0.7,0.1,0.9,0.2c0.3,0.1,0.5,0.3,0.7,0.5c0.2,0.2,0.3,0.4,0.4,0.7
			c0.1,0.3,0.1,0.6,0.1,0.9L122.3,88.3z M119.5,87.6c0.2,0,0.4,0,0.5-0.1c0.2,0,0.3-0.1,0.4-0.2c0.1-0.1,0.3-0.2,0.4-0.3
			c0.1-0.1,0.3-0.2,0.4-0.3l0-1.3c-0.5,0-0.9,0-1.3,0.1c-0.3,0.1-0.6,0.1-0.8,0.3c-0.2,0.1-0.4,0.2-0.5,0.4
			c-0.1,0.1-0.1,0.3-0.1,0.5c0,0.2,0,0.3,0.1,0.4c0.1,0.1,0.1,0.2,0.2,0.3c0.1,0.1,0.2,0.1,0.3,0.2
			C119.2,87.6,119.3,87.6,119.5,87.6z"/>
		<path class="st0" d="M128.5,82c0.3,0,0.5,0,0.8,0.1c0.2,0.1,0.4,0.1,0.6,0.3l1.7,0l0,0.4c0,0.1-0.1,0.2-0.3,0.3l-0.7,0.1
			c0.1,0.3,0.2,0.6,0.2,0.9c0,0.3-0.1,0.6-0.2,0.8c-0.1,0.2-0.3,0.5-0.5,0.6c-0.2,0.2-0.4,0.3-0.7,0.4c-0.3,0.1-0.6,0.1-0.9,0.1
			c-0.3,0-0.6,0-0.8-0.1c-0.1,0.1-0.2,0.2-0.3,0.3c-0.1,0.1-0.1,0.2-0.1,0.3c0,0.2,0.1,0.3,0.2,0.3c0.1,0.1,0.3,0.1,0.5,0.2
			c0.2,0,0.4,0,0.7,0c0.2,0,0.5,0,0.8,0c0.3,0,0.5,0,0.8,0.1c0.2,0,0.5,0.1,0.7,0.2c0.2,0.1,0.4,0.2,0.5,0.4
			c0.1,0.2,0.2,0.4,0.2,0.7c0,0.3-0.1,0.5-0.2,0.8c-0.1,0.3-0.3,0.5-0.6,0.7c-0.2,0.2-0.5,0.4-0.9,0.5c-0.4,0.1-0.8,0.2-1.2,0.2
			c-0.5,0-0.8,0-1.2-0.1c-0.3-0.1-0.6-0.2-0.8-0.4c-0.2-0.1-0.4-0.3-0.5-0.5c-0.1-0.2-0.2-0.4-0.2-0.6c0-0.3,0.1-0.6,0.3-0.8
			s0.5-0.4,0.8-0.5c-0.2-0.1-0.3-0.2-0.4-0.3c-0.1-0.1-0.2-0.3-0.2-0.5c0-0.1,0-0.2,0-0.3c0-0.1,0.1-0.2,0.1-0.3
			c0.1-0.1,0.1-0.2,0.2-0.3c0.1-0.1,0.2-0.2,0.3-0.2c-0.3-0.2-0.5-0.4-0.7-0.7c-0.2-0.3-0.3-0.6-0.3-1c0-0.3,0.1-0.6,0.2-0.8
			c0.1-0.2,0.3-0.5,0.5-0.6s0.5-0.3,0.7-0.4C127.9,82.1,128.2,82,128.5,82z M130.4,88.6c0-0.2,0-0.3-0.1-0.4
			c-0.1-0.1-0.2-0.2-0.3-0.2c-0.1-0.1-0.3-0.1-0.5-0.1c-0.2,0-0.4,0-0.6,0c-0.2,0-0.4,0-0.6,0c-0.2,0-0.4,0-0.6-0.1
			c-0.2,0.1-0.4,0.2-0.6,0.4c-0.1,0.2-0.2,0.3-0.2,0.6c0,0.1,0,0.3,0.1,0.4c0.1,0.1,0.2,0.2,0.3,0.3c0.1,0.1,0.3,0.2,0.6,0.2
			c0.2,0,0.5,0.1,0.8,0.1c0.3,0,0.6,0,0.8-0.1c0.2-0.1,0.4-0.1,0.6-0.2c0.2-0.1,0.3-0.2,0.4-0.4C130.4,88.9,130.4,88.7,130.4,88.6z
			 M128.5,85.3c0.2,0,0.4,0,0.6-0.1c0.2-0.1,0.3-0.1,0.4-0.3c0.1-0.1,0.2-0.2,0.3-0.4c0.1-0.2,0.1-0.3,0.1-0.5
			c0-0.4-0.1-0.7-0.3-0.9c-0.2-0.2-0.6-0.3-1-0.3c-0.4,0-0.8,0.1-1,0.3c-0.2,0.2-0.3,0.5-0.3,0.9c0,0.2,0,0.3,0.1,0.5
			c0.1,0.2,0.1,0.3,0.3,0.4c0.1,0.1,0.3,0.2,0.4,0.3C128.1,85.2,128.3,85.3,128.5,85.3z"/>
		<path class="st0" d="M135.2,88.2l0-6.2l0.6,0c0.2,0,0.3,0.1,0.3,0.2l0.1,0.7c0.3-0.3,0.6-0.5,0.9-0.7c0.3-0.2,0.7-0.3,1.1-0.3
			c0.3,0,0.6,0.1,0.9,0.2c0.3,0.1,0.5,0.3,0.6,0.5c0.2,0.2,0.3,0.4,0.4,0.7c0.1,0.3,0.1,0.6,0.1,1l0,3.9l-1.1,0l0-3.9
			c0-0.5-0.1-0.8-0.3-1.1c-0.2-0.3-0.5-0.4-1-0.4c-0.3,0-0.6,0.1-0.9,0.2c-0.3,0.2-0.5,0.4-0.8,0.6l0,4.5L135.2,88.2z"/>
		<path class="st0" d="M146.9,81.9c0.4,0,0.7,0.1,1,0.2c0.3,0.1,0.6,0.3,0.8,0.5c0.2,0.2,0.4,0.5,0.5,0.9c0.1,0.3,0.2,0.7,0.2,1.2
			c0,0.2,0,0.3-0.1,0.3c0,0.1-0.1,0.1-0.2,0.1l-4.1,0c0,0.4,0.1,0.7,0.2,1c0.1,0.3,0.2,0.5,0.4,0.7c0.2,0.2,0.4,0.3,0.6,0.4
			c0.2,0.1,0.5,0.1,0.8,0.1c0.3,0,0.5,0,0.7-0.1c0.2-0.1,0.4-0.1,0.5-0.2c0.1-0.1,0.3-0.1,0.4-0.2c0.1-0.1,0.2-0.1,0.2-0.1
			c0.1,0,0.2,0,0.2,0.1l0.3,0.4c-0.1,0.2-0.3,0.3-0.5,0.4c-0.2,0.1-0.4,0.2-0.6,0.3c-0.2,0.1-0.4,0.1-0.7,0.2
			c-0.2,0-0.5,0.1-0.7,0.1c-0.4,0-0.8-0.1-1.2-0.2c-0.4-0.1-0.7-0.4-0.9-0.6c-0.3-0.3-0.5-0.6-0.6-1c-0.1-0.4-0.2-0.9-0.2-1.4
			c0-0.4,0.1-0.8,0.2-1.2s0.3-0.7,0.6-1c0.2-0.3,0.5-0.5,0.9-0.6C146,82,146.4,81.9,146.9,81.9z M146.9,82.7c-0.5,0-0.9,0.2-1.2,0.5
			c-0.3,0.3-0.5,0.7-0.6,1.3l3.3,0c0-0.3,0-0.5-0.1-0.7c-0.1-0.2-0.2-0.4-0.3-0.5c-0.1-0.2-0.3-0.3-0.5-0.4
			C147.4,82.8,147.2,82.7,146.9,82.7z"/>
		<path class="st0" d="M153.4,88.2l0-6.2l0.6,0c0.1,0,0.2,0,0.2,0.1c0,0,0.1,0.1,0.1,0.2l0.1,1c0.2-0.4,0.5-0.8,0.8-1
			c0.3-0.2,0.7-0.4,1.1-0.4c0.2,0,0.3,0,0.5,0.1c0.1,0,0.3,0.1,0.4,0.2l-0.1,0.8c0,0.1-0.1,0.2-0.2,0.2c-0.1,0-0.1,0-0.3-0.1
			c-0.1,0-0.3-0.1-0.5-0.1c-0.4,0-0.7,0.1-0.9,0.3c-0.3,0.2-0.5,0.5-0.6,1l0,3.9L153.4,88.2z"/>
		<path class="st0" d="M166.8,79.2l0,8.9l-1.1,0l0-8.9L166.8,79.2z"/>
		<path class="st0" d="M173.7,81.8c0.4,0,0.7,0.1,1,0.2c0.3,0.1,0.6,0.3,0.8,0.5c0.2,0.2,0.4,0.5,0.5,0.9c0.1,0.3,0.2,0.7,0.2,1.2
			c0,0.2,0,0.3-0.1,0.3c0,0.1-0.1,0.1-0.2,0.1l-4.1,0c0,0.4,0.1,0.7,0.2,1c0.1,0.3,0.2,0.5,0.4,0.7c0.2,0.2,0.4,0.3,0.6,0.4
			c0.2,0.1,0.5,0.1,0.8,0.1c0.3,0,0.5,0,0.7-0.1c0.2-0.1,0.4-0.1,0.5-0.2c0.1-0.1,0.3-0.1,0.4-0.2c0.1-0.1,0.2-0.1,0.2-0.1
			c0.1,0,0.2,0,0.2,0.1l0.3,0.4c-0.1,0.2-0.3,0.3-0.5,0.4c-0.2,0.1-0.4,0.2-0.6,0.3c-0.2,0.1-0.4,0.1-0.7,0.2
			c-0.2,0-0.5,0.1-0.7,0.1c-0.4,0-0.8-0.1-1.2-0.2c-0.4-0.1-0.7-0.4-0.9-0.6c-0.3-0.3-0.5-0.6-0.6-1c-0.1-0.4-0.2-0.9-0.2-1.4
			c0-0.4,0.1-0.8,0.2-1.2c0.1-0.4,0.3-0.7,0.6-1c0.2-0.3,0.5-0.5,0.9-0.6C172.9,81.9,173.3,81.8,173.7,81.8z M173.7,82.6
			c-0.5,0-0.9,0.2-1.2,0.5c-0.3,0.3-0.5,0.7-0.6,1.3l3.3,0c0-0.3,0-0.5-0.1-0.7c-0.1-0.2-0.2-0.4-0.3-0.5c-0.1-0.2-0.3-0.3-0.5-0.4
			C174.2,82.7,174,82.6,173.7,82.6z"/>
		<path class="st0" d="M183.7,82.9c0,0.1-0.1,0.1-0.2,0.1c-0.1,0-0.1,0-0.2-0.1c-0.1,0-0.2-0.1-0.3-0.1c-0.1-0.1-0.2-0.1-0.4-0.2
			c-0.2,0-0.3-0.1-0.5-0.1c-0.2,0-0.3,0-0.5,0.1c-0.1,0-0.3,0.1-0.4,0.2c-0.1,0.1-0.2,0.2-0.2,0.3c-0.1,0.1-0.1,0.2-0.1,0.3
			c0,0.2,0,0.3,0.1,0.4c0.1,0.1,0.2,0.2,0.4,0.3c0.1,0.1,0.3,0.1,0.5,0.2c0.2,0.1,0.4,0.1,0.6,0.2c0.2,0.1,0.4,0.1,0.6,0.2
			c0.2,0.1,0.4,0.2,0.5,0.3c0.2,0.1,0.3,0.3,0.4,0.4c0.1,0.2,0.1,0.4,0.1,0.6c0,0.3,0,0.5-0.1,0.8c-0.1,0.2-0.2,0.5-0.4,0.6
			c-0.2,0.2-0.4,0.3-0.7,0.4c-0.3,0.1-0.6,0.2-1,0.2c-0.4,0-0.8-0.1-1.2-0.2c-0.3-0.1-0.6-0.3-0.9-0.5l0.3-0.4
			c0-0.1,0.1-0.1,0.1-0.1c0,0,0.1,0,0.2,0c0.1,0,0.2,0,0.2,0.1c0.1,0.1,0.2,0.1,0.3,0.2c0.1,0.1,0.3,0.1,0.4,0.2
			c0.2,0.1,0.4,0.1,0.6,0.1c0.2,0,0.4,0,0.6-0.1c0.2-0.1,0.3-0.1,0.4-0.2c0.1-0.1,0.2-0.2,0.2-0.3c0-0.1,0.1-0.3,0.1-0.4
			c0-0.2,0-0.3-0.1-0.4c-0.1-0.1-0.2-0.2-0.4-0.3c-0.2-0.1-0.3-0.1-0.5-0.2c-0.2-0.1-0.4-0.1-0.6-0.2c-0.2-0.1-0.4-0.1-0.6-0.2
			c-0.2-0.1-0.4-0.2-0.5-0.3c-0.2-0.1-0.3-0.3-0.4-0.5c-0.1-0.2-0.1-0.4-0.1-0.7c0-0.2,0-0.5,0.1-0.7c0.1-0.2,0.2-0.4,0.4-0.6
			c0.2-0.2,0.4-0.3,0.7-0.4c0.3-0.1,0.6-0.1,0.9-0.1c0.4,0,0.8,0.1,1.1,0.2c0.3,0.1,0.6,0.3,0.8,0.5L183.7,82.9z"/>
		<path class="st0" d="M194.7,88.1c-0.5,0-0.9-0.1-1.1-0.4c-0.3-0.3-0.4-0.7-0.4-1.2l0-3.8l-0.7,0c-0.1,0-0.1,0-0.2-0.1
			c0,0-0.1-0.1-0.1-0.2l0-0.4l1-0.1l0.2-1.9c0-0.1,0-0.1,0.1-0.1c0,0,0.1-0.1,0.2-0.1l0.5,0l0,2.1l1.8,0l0,0.8l-1.8,0l0,3.7
			c0,0.3,0.1,0.5,0.2,0.6c0.1,0.1,0.3,0.2,0.5,0.2c0.1,0,0.2,0,0.3,0c0.1,0,0.2-0.1,0.2-0.1c0.1,0,0.1-0.1,0.2-0.1c0,0,0.1,0,0.1,0
			c0.1,0,0.1,0,0.2,0.1l0.3,0.5c-0.2,0.2-0.4,0.3-0.7,0.4C195.3,88.1,195,88.1,194.7,88.1z"/>
		<path class="st0" d="M199.9,88l0-6.2l0.6,0c0.1,0,0.2,0,0.2,0.1c0,0,0.1,0.1,0.1,0.2l0.1,1c0.2-0.4,0.5-0.8,0.8-1
			c0.3-0.2,0.7-0.4,1.1-0.4c0.2,0,0.3,0,0.5,0.1c0.1,0,0.3,0.1,0.4,0.2l-0.1,0.8c0,0.1-0.1,0.2-0.2,0.2c-0.1,0-0.1,0-0.3-0.1
			c-0.1,0-0.3-0.1-0.5-0.1c-0.4,0-0.7,0.1-0.9,0.3c-0.3,0.2-0.5,0.5-0.6,1l0,3.9L199.9,88z"/>
		<path class="st0" d="M211.6,88l-0.5,0c-0.1,0-0.2,0-0.3,0c-0.1,0-0.1-0.1-0.1-0.2l-0.1-0.6c-0.2,0.1-0.3,0.3-0.5,0.4
			c-0.2,0.1-0.3,0.2-0.5,0.3c-0.2,0.1-0.3,0.1-0.5,0.2c-0.2,0-0.4,0.1-0.6,0.1c-0.2,0-0.5,0-0.7-0.1c-0.2-0.1-0.4-0.2-0.5-0.3
			c-0.2-0.1-0.3-0.3-0.4-0.5c-0.1-0.2-0.1-0.4-0.1-0.7c0-0.2,0.1-0.5,0.2-0.7c0.1-0.2,0.3-0.4,0.6-0.6c0.3-0.2,0.7-0.3,1.2-0.4
			c0.5-0.1,1.1-0.2,1.8-0.2l0-0.5c0-0.5-0.1-0.8-0.3-1.1c-0.2-0.2-0.5-0.4-0.9-0.4c-0.3,0-0.5,0-0.7,0.1c-0.2,0.1-0.3,0.1-0.5,0.2
			c-0.1,0.1-0.2,0.2-0.3,0.2c-0.1,0.1-0.2,0.1-0.3,0.1c-0.1,0-0.1,0-0.2-0.1c-0.1,0-0.1-0.1-0.1-0.1l-0.2-0.3
			c0.3-0.3,0.7-0.6,1.1-0.7c0.4-0.2,0.8-0.2,1.3-0.2c0.3,0,0.7,0.1,0.9,0.2c0.3,0.1,0.5,0.3,0.7,0.5c0.2,0.2,0.3,0.4,0.4,0.7
			c0.1,0.3,0.1,0.6,0.1,0.9L211.6,88z M208.8,87.3c0.2,0,0.4,0,0.5-0.1c0.2,0,0.3-0.1,0.4-0.2c0.1-0.1,0.3-0.2,0.4-0.3
			c0.1-0.1,0.3-0.2,0.4-0.3l0-1.3c-0.5,0-0.9,0-1.3,0.1c-0.3,0.1-0.6,0.1-0.8,0.3c-0.2,0.1-0.4,0.2-0.5,0.4
			c-0.1,0.1-0.1,0.3-0.1,0.5c0,0.2,0,0.3,0.1,0.4c0.1,0.1,0.1,0.2,0.2,0.3c0.1,0.1,0.2,0.1,0.3,0.2
			C208.5,87.3,208.7,87.3,208.8,87.3z"/>
		<path class="st0" d="M215.8,87.9l0-6.2l0.6,0c0.2,0,0.3,0.1,0.3,0.2l0.1,0.7c0.3-0.3,0.6-0.5,0.9-0.7c0.3-0.2,0.7-0.3,1.1-0.3
			c0.3,0,0.6,0.1,0.9,0.2c0.3,0.1,0.5,0.3,0.6,0.5c0.2,0.2,0.3,0.4,0.4,0.7c0.1,0.3,0.1,0.6,0.1,1l0,3.9l-1.1,0l0-3.9
			c0-0.5-0.1-0.8-0.3-1.1c-0.2-0.3-0.5-0.4-1-0.4c-0.3,0-0.6,0.1-0.9,0.2c-0.3,0.2-0.5,0.4-0.8,0.6l0,4.5L215.8,87.9z"/>
		<path class="st0" d="M228.6,82.8c0,0.1-0.1,0.1-0.2,0.1c-0.1,0-0.1,0-0.2-0.1c-0.1,0-0.2-0.1-0.3-0.1c-0.1-0.1-0.2-0.1-0.4-0.2
			c-0.2,0-0.3-0.1-0.5-0.1c-0.2,0-0.3,0-0.5,0.1c-0.1,0-0.3,0.1-0.4,0.2c-0.1,0.1-0.2,0.2-0.2,0.3c-0.1,0.1-0.1,0.2-0.1,0.4
			c0,0.2,0,0.3,0.1,0.4c0.1,0.1,0.2,0.2,0.4,0.3c0.1,0.1,0.3,0.1,0.5,0.2c0.2,0.1,0.4,0.1,0.6,0.2c0.2,0.1,0.4,0.1,0.6,0.2
			c0.2,0.1,0.4,0.2,0.5,0.3c0.2,0.1,0.3,0.3,0.4,0.4c0.1,0.2,0.1,0.4,0.1,0.6c0,0.3,0,0.5-0.1,0.8c-0.1,0.2-0.2,0.5-0.4,0.6
			c-0.2,0.2-0.4,0.3-0.7,0.4c-0.3,0.1-0.6,0.2-1,0.2c-0.4,0-0.8-0.1-1.2-0.2c-0.3-0.1-0.6-0.3-0.9-0.5l0.3-0.4
			c0-0.1,0.1-0.1,0.1-0.1c0,0,0.1,0,0.2,0c0.1,0,0.2,0,0.2,0.1c0.1,0.1,0.2,0.1,0.3,0.2c0.1,0.1,0.3,0.1,0.4,0.2
			c0.2,0.1,0.4,0.1,0.6,0.1c0.2,0,0.4,0,0.6-0.1c0.2-0.1,0.3-0.1,0.4-0.2c0.1-0.1,0.2-0.2,0.2-0.3c0-0.1,0.1-0.3,0.1-0.4
			c0-0.2,0-0.3-0.1-0.4c-0.1-0.1-0.2-0.2-0.4-0.3c-0.2-0.1-0.3-0.1-0.5-0.2c-0.2-0.1-0.4-0.1-0.6-0.2c-0.2-0.1-0.4-0.1-0.6-0.2
			c-0.2-0.1-0.4-0.2-0.5-0.3c-0.2-0.1-0.3-0.3-0.4-0.5c-0.1-0.2-0.1-0.4-0.1-0.7c0-0.2,0-0.5,0.1-0.7c0.1-0.2,0.2-0.4,0.4-0.6
			c0.2-0.2,0.4-0.3,0.7-0.4s0.6-0.1,0.9-0.1c0.4,0,0.8,0.1,1.1,0.2c0.3,0.1,0.6,0.3,0.8,0.5L228.6,82.8z"/>
		<path class="st0" d="M233.1,87.9l0-5.2l-0.7-0.1c-0.1,0-0.2-0.1-0.2-0.1c-0.1,0-0.1-0.1-0.1-0.2l0-0.4l1,0l0-0.6
			c0-0.4,0-0.7,0.1-0.9c0.1-0.3,0.2-0.5,0.4-0.7c0.2-0.2,0.4-0.3,0.7-0.4c0.3-0.1,0.5-0.1,0.9-0.1c0.3,0,0.5,0,0.8,0.1l0,0.5
			c0,0.1,0,0.1-0.1,0.1c-0.1,0-0.2,0-0.3,0l-0.2,0c-0.2,0-0.4,0-0.5,0.1c-0.2,0-0.3,0.1-0.4,0.2c-0.1,0.1-0.2,0.3-0.3,0.4
			c-0.1,0.2-0.1,0.4-0.1,0.7l0,0.6l1.8,0l0,0.8l-1.7,0l0,5.2L233.1,87.9z"/>
		<path class="st0" d="M242,81.6c0.5,0,0.9,0.1,1.2,0.2c0.4,0.1,0.7,0.4,0.9,0.6c0.3,0.3,0.4,0.6,0.6,1c0.1,0.4,0.2,0.8,0.2,1.3
			c0,0.5-0.1,0.9-0.2,1.3c-0.1,0.4-0.3,0.7-0.6,1c-0.3,0.3-0.6,0.5-0.9,0.6c-0.4,0.1-0.8,0.2-1.2,0.2c-0.4,0-0.9-0.1-1.2-0.2
			c-0.4-0.1-0.7-0.4-0.9-0.6c-0.3-0.3-0.5-0.6-0.6-1c-0.1-0.4-0.2-0.8-0.2-1.3c0-0.5,0.1-0.9,0.2-1.3c0.1-0.4,0.3-0.7,0.6-1
			c0.3-0.3,0.6-0.5,0.9-0.6C241.1,81.7,241.5,81.6,242,81.6z M242,87.1c0.6,0,1.1-0.2,1.4-0.6c0.3-0.4,0.4-1,0.4-1.7
			c0-0.7-0.2-1.3-0.5-1.7c-0.3-0.4-0.8-0.6-1.4-0.6c-0.3,0-0.6,0.1-0.8,0.2c-0.2,0.1-0.4,0.3-0.6,0.5c-0.2,0.2-0.3,0.4-0.3,0.7
			c-0.1,0.3-0.1,0.6-0.1,1c0,0.4,0,0.7,0.1,1c0.1,0.3,0.2,0.5,0.3,0.7c0.2,0.2,0.3,0.3,0.6,0.5C241.4,87,241.7,87.1,242,87.1z"/>
		<path class="st0" d="M248.8,87.8l0-6.2l0.6,0c0.1,0,0.2,0,0.2,0.1c0,0,0.1,0.1,0.1,0.2l0.1,1c0.2-0.4,0.5-0.8,0.8-1
			c0.3-0.2,0.7-0.4,1.1-0.4c0.2,0,0.3,0,0.5,0.1c0.1,0,0.3,0.1,0.4,0.2l-0.1,0.8c0,0.1-0.1,0.2-0.2,0.2c-0.1,0-0.1,0-0.3-0.1
			c-0.1,0-0.3-0.1-0.5-0.1c-0.4,0-0.7,0.1-0.9,0.3c-0.3,0.2-0.5,0.5-0.6,1l0,3.9L248.8,87.8z"/>
		<path class="st0" d="M256.2,87.8l0-6.2l0.6,0c0.2,0,0.3,0.1,0.3,0.2l0.1,0.6c0.2-0.3,0.5-0.5,0.8-0.7c0.3-0.2,0.6-0.3,1-0.3
			c0.4,0,0.8,0.1,1,0.3c0.3,0.2,0.4,0.5,0.6,0.9c0.1-0.2,0.2-0.4,0.3-0.6c0.1-0.2,0.3-0.3,0.5-0.4c0.2-0.1,0.4-0.2,0.6-0.2
			c0.2,0,0.4-0.1,0.6-0.1c0.3,0,0.6,0,0.9,0.2c0.3,0.1,0.5,0.3,0.6,0.5c0.2,0.2,0.3,0.4,0.4,0.7c0.1,0.3,0.1,0.6,0.1,1l0,3.9l-1.1,0
			l0-3.9c0-0.5-0.1-0.8-0.3-1.1c-0.2-0.2-0.5-0.4-0.9-0.4c-0.2,0-0.3,0-0.5,0.1c-0.2,0.1-0.3,0.2-0.4,0.3c-0.1,0.1-0.2,0.3-0.3,0.5
			c-0.1,0.2-0.1,0.4-0.1,0.6l0,3.9l-1.1,0l0-3.9c0-0.5-0.1-0.9-0.3-1.1c-0.2-0.2-0.5-0.4-0.9-0.4c-0.3,0-0.5,0.1-0.7,0.2
			c-0.2,0.1-0.4,0.3-0.6,0.6l0,4.6L256.2,87.8z"/>
		<path class="st0" d="M273.2,87.7l-0.5,0c-0.1,0-0.2,0-0.3,0c-0.1,0-0.1-0.1-0.1-0.2l-0.1-0.6c-0.2,0.1-0.3,0.3-0.5,0.4
			c-0.2,0.1-0.3,0.2-0.5,0.3c-0.2,0.1-0.3,0.1-0.5,0.2c-0.2,0-0.4,0.1-0.6,0.1c-0.2,0-0.5,0-0.7-0.1c-0.2-0.1-0.4-0.2-0.5-0.3
			c-0.2-0.1-0.3-0.3-0.4-0.5c-0.1-0.2-0.1-0.4-0.1-0.7c0-0.2,0.1-0.5,0.2-0.7c0.1-0.2,0.3-0.4,0.6-0.6c0.3-0.2,0.7-0.3,1.2-0.4
			c0.5-0.1,1.1-0.2,1.8-0.2l0-0.5c0-0.5-0.1-0.8-0.3-1.1c-0.2-0.2-0.5-0.4-0.9-0.4c-0.3,0-0.5,0-0.7,0.1c-0.2,0.1-0.3,0.1-0.5,0.2
			c-0.1,0.1-0.2,0.2-0.3,0.2c-0.1,0.1-0.2,0.1-0.3,0.1c-0.1,0-0.1,0-0.2-0.1c-0.1,0-0.1-0.1-0.1-0.1l-0.2-0.3
			c0.3-0.3,0.7-0.6,1.1-0.7c0.4-0.2,0.8-0.2,1.3-0.2c0.3,0,0.7,0.1,0.9,0.2c0.3,0.1,0.5,0.3,0.7,0.5c0.2,0.2,0.3,0.4,0.4,0.7
			c0.1,0.3,0.1,0.6,0.1,0.9L273.2,87.7z M270.4,87.1c0.2,0,0.4,0,0.5-0.1c0.2,0,0.3-0.1,0.4-0.2c0.1-0.1,0.3-0.2,0.4-0.3
			c0.1-0.1,0.3-0.2,0.4-0.3l0-1.3c-0.5,0-0.9,0-1.3,0.1c-0.3,0.1-0.6,0.1-0.8,0.3c-0.2,0.1-0.4,0.2-0.5,0.4
			c-0.1,0.1-0.1,0.3-0.1,0.5c0,0.2,0,0.3,0.1,0.4c0.1,0.1,0.1,0.2,0.2,0.3c0.1,0.1,0.2,0.1,0.3,0.2
			C270.1,87.1,270.3,87.1,270.4,87.1z"/>
		<path class="st0" d="M279.3,87.8c-0.5,0-0.9-0.1-1.1-0.4c-0.3-0.3-0.4-0.7-0.4-1.2l0-3.8l-0.7,0c-0.1,0-0.1,0-0.2-0.1
			c0,0-0.1-0.1-0.1-0.2l0-0.4l1-0.1l0.2-1.9c0-0.1,0-0.1,0.1-0.1c0,0,0.1-0.1,0.2-0.1l0.5,0l0,2.1l1.8,0l0,0.8l-1.8,0l0,3.7
			c0,0.3,0.1,0.5,0.2,0.6c0.1,0.1,0.3,0.2,0.5,0.2c0.1,0,0.2,0,0.3,0c0.1,0,0.2-0.1,0.2-0.1c0.1,0,0.1-0.1,0.2-0.1c0,0,0.1,0,0.1,0
			c0.1,0,0.1,0,0.2,0.1l0.3,0.5c-0.2,0.2-0.4,0.3-0.7,0.4C279.8,87.7,279.5,87.8,279.3,87.8z"/>
		<path class="st0" d="M285.9,79.6c0,0.1,0,0.2-0.1,0.3c0,0.1-0.1,0.2-0.2,0.2c-0.1,0.1-0.2,0.1-0.2,0.2c-0.1,0-0.2,0.1-0.3,0.1
			c-0.1,0-0.2,0-0.3-0.1c-0.1,0-0.2-0.1-0.2-0.2c-0.1-0.1-0.1-0.2-0.2-0.2c0-0.1-0.1-0.2-0.1-0.3c0-0.1,0-0.2,0.1-0.3
			c0-0.1,0.1-0.2,0.2-0.2c0.1-0.1,0.2-0.1,0.2-0.2c0.1,0,0.2-0.1,0.3-0.1c0.1,0,0.2,0,0.3,0.1c0.1,0,0.2,0.1,0.2,0.2
			c0.1,0.1,0.1,0.2,0.2,0.2C285.8,79.4,285.9,79.5,285.9,79.6z M285.6,81.5l0,6.2l-1.1,0l0-6.2L285.6,81.5z"/>
		<path class="st0" d="M292.6,81.4c0.5,0,0.9,0.1,1.2,0.2c0.4,0.1,0.7,0.4,0.9,0.6c0.3,0.3,0.4,0.6,0.6,1c0.1,0.4,0.2,0.8,0.2,1.3
			c0,0.5-0.1,0.9-0.2,1.3c-0.1,0.4-0.3,0.7-0.6,1c-0.3,0.3-0.6,0.5-0.9,0.6s-0.8,0.2-1.2,0.2c-0.4,0-0.9-0.1-1.2-0.2
			c-0.4-0.1-0.7-0.4-0.9-0.6c-0.3-0.3-0.5-0.6-0.6-1c-0.1-0.4-0.2-0.8-0.2-1.3c0-0.5,0.1-0.9,0.2-1.3c0.1-0.4,0.3-0.7,0.6-1
			c0.3-0.3,0.6-0.5,0.9-0.6C291.7,81.5,292.1,81.4,292.6,81.4z M292.6,86.9c0.6,0,1.1-0.2,1.4-0.6c0.3-0.4,0.4-1,0.4-1.7
			c0-0.7-0.2-1.3-0.5-1.7c-0.3-0.4-0.8-0.6-1.4-0.6c-0.3,0-0.6,0.1-0.8,0.2c-0.2,0.1-0.4,0.3-0.6,0.5c-0.2,0.2-0.3,0.4-0.3,0.7
			c-0.1,0.3-0.1,0.6-0.1,1c0,0.4,0,0.7,0.1,1c0.1,0.3,0.2,0.5,0.3,0.7c0.2,0.2,0.3,0.3,0.6,0.4C292,86.8,292.3,86.9,292.6,86.9z"/>
		<path class="st0" d="M299.4,87.6l0-6.2l0.6,0c0.2,0,0.3,0.1,0.3,0.2l0.1,0.7c0.3-0.3,0.6-0.5,0.9-0.7c0.3-0.2,0.7-0.3,1.1-0.3
			c0.3,0,0.6,0.1,0.9,0.2c0.3,0.1,0.5,0.3,0.6,0.5c0.2,0.2,0.3,0.4,0.4,0.7c0.1,0.3,0.1,0.6,0.1,1l0,3.9l-1.1,0l0-3.9
			c0-0.5-0.1-0.8-0.3-1.1c-0.2-0.3-0.5-0.4-1-0.4c-0.3,0-0.6,0.1-0.9,0.2c-0.3,0.2-0.5,0.4-0.8,0.6l0,4.5L299.4,87.6z"/>
		<path class="st0" d="M312.2,82.4c0,0.1-0.1,0.1-0.2,0.1c-0.1,0-0.1,0-0.2-0.1c-0.1,0-0.2-0.1-0.3-0.1c-0.1-0.1-0.2-0.1-0.4-0.2
			c-0.2,0-0.3-0.1-0.5-0.1c-0.2,0-0.3,0-0.5,0.1s-0.3,0.1-0.4,0.2c-0.1,0.1-0.2,0.2-0.2,0.3c-0.1,0.1-0.1,0.2-0.1,0.3
			c0,0.2,0,0.3,0.1,0.4c0.1,0.1,0.2,0.2,0.4,0.3c0.1,0.1,0.3,0.1,0.5,0.2c0.2,0.1,0.4,0.1,0.6,0.2c0.2,0.1,0.4,0.1,0.6,0.2
			c0.2,0.1,0.4,0.2,0.5,0.3c0.2,0.1,0.3,0.3,0.4,0.4c0.1,0.2,0.1,0.4,0.1,0.6c0,0.3,0,0.5-0.1,0.8c-0.1,0.2-0.2,0.5-0.4,0.6
			c-0.2,0.2-0.4,0.3-0.7,0.4c-0.3,0.1-0.6,0.2-1,0.2c-0.4,0-0.8-0.1-1.2-0.2c-0.3-0.1-0.6-0.3-0.9-0.5l0.3-0.4
			c0-0.1,0.1-0.1,0.1-0.1c0,0,0.1,0,0.2,0c0.1,0,0.2,0,0.2,0.1c0.1,0.1,0.2,0.1,0.3,0.2c0.1,0.1,0.3,0.1,0.4,0.2
			c0.2,0.1,0.4,0.1,0.6,0.1c0.2,0,0.4,0,0.6-0.1s0.3-0.1,0.4-0.2c0.1-0.1,0.2-0.2,0.2-0.3c0-0.1,0.1-0.3,0.1-0.4
			c0-0.2,0-0.3-0.1-0.4c-0.1-0.1-0.2-0.2-0.4-0.3c-0.2-0.1-0.3-0.1-0.5-0.2c-0.2-0.1-0.4-0.1-0.6-0.2c-0.2-0.1-0.4-0.1-0.6-0.2
			c-0.2-0.1-0.4-0.2-0.5-0.3c-0.2-0.1-0.3-0.3-0.4-0.5c-0.1-0.2-0.1-0.4-0.1-0.7c0-0.2,0-0.5,0.1-0.7c0.1-0.2,0.2-0.4,0.4-0.6
			c0.2-0.2,0.4-0.3,0.7-0.4c0.3-0.1,0.6-0.1,0.9-0.1c0.4,0,0.8,0.1,1.1,0.2c0.3,0.1,0.6,0.3,0.8,0.5L312.2,82.4z"/>
	</g>
</g>
<ellipse transform="matrix(0.9994 -3.457819e-02 3.457819e-02 0.9994 -3.431 8.4952)" class="st1" cx="243.9" cy="103.4" rx="5.4" ry="5.4"/>
<ellipse transform="matrix(0.9991 -4.219341e-02 4.219341e-02 0.9991 -4.5945 11.5817)" class="st2" cx="272.1" cy="114.6" rx="5.9" ry="5.9"/>
<ellipse transform="matrix(0.9988 -4.888101e-02 4.888101e-02 0.9988 -5.2871 15.2199)" class="st3" cx="308.5" cy="115.7" rx="6.4" ry="6.4"/>
<ellipse transform="matrix(0.9985 -5.455149e-02 5.455149e-02 0.9985 -5.422 19.0655)" class="st4" cx="346.5" cy="108.9" rx="6.9" ry="6.9"/>
<ellipse transform="matrix(0.9982 -5.934461e-02 5.934461e-02 0.9982 -4.8731 22.6626)" class="st5" cx="379.1" cy="93.4" rx="7.3" ry="7.3"/>
<ellipse transform="matrix(0.998 -6.378399e-02 6.378399e-02 0.998 -3.719 25.9967)" class="st5" cx="405.3" cy="71.2" rx="7.8" ry="7.8"/>
<ellipse transform="matrix(0.9977 -6.747296e-02 6.747296e-02 0.9977 -1.934 28.7887)" class="st5" cx="425.2" cy="43" rx="8.3" ry="8.3"/>
<g>
	<g>
		<path class="st0" d="M249.3,55.1c0,2.4-0.4,4.6-1.3,6.5c-0.9,1.9-2.1,3.5-3.7,4.8c-1.6,1.3-3.5,2.3-5.6,3c-2.2,0.7-4.5,1-7,1
			c-1.7,0-3.4-0.1-4.8-0.4c-1.5-0.3-2.8-0.7-4-1.1c-1.2-0.4-2.1-0.9-2.9-1.3c-0.8-0.5-1.3-0.8-1.6-1.2c-0.3-0.3-0.5-0.7-0.7-1.2
			c-0.1-0.5-0.2-1.2-0.2-2c0-0.6,0-1.1,0.1-1.5c0.1-0.4,0.1-0.7,0.2-0.9c0.1-0.2,0.2-0.4,0.4-0.5c0.2-0.1,0.3-0.1,0.6-0.1
			c0.4,0,0.9,0.2,1.6,0.7c0.7,0.5,1.6,1,2.6,1.5c1.1,0.5,2.4,1,3.9,1.5c1.5,0.5,3.3,0.7,5.2,0.7c1.5,0,2.9-0.2,4.1-0.6
			c1.2-0.4,2.3-1,3.2-1.7c0.9-0.7,1.6-1.6,2.1-2.7c0.5-1.1,0.7-2.3,0.7-3.7c0-1.5-0.3-2.7-1-3.8c-0.7-1-1.6-2-2.7-2.8
			c-1.1-0.8-2.3-1.5-3.8-2.2c-1.4-0.7-2.8-1.3-4.3-2c-1.5-0.7-2.9-1.4-4.3-2.3c-1.4-0.8-2.6-1.8-3.7-2.9c-1.1-1.1-2-2.4-2.7-4
			c-0.7-1.5-1-3.3-1-5.4c0-2.2,0.4-4.1,1.2-5.8c0.8-1.7,1.9-3.1,3.3-4.3c1.4-1.2,3.1-2,5-2.6c1.9-0.6,4-0.9,6.3-0.9
			c1.2,0,2.3,0.1,3.5,0.3c1.2,0.2,2.3,0.5,3.3,0.8c1,0.3,1.9,0.7,2.8,1.1c0.8,0.4,1.3,0.8,1.6,1c0.3,0.3,0.4,0.5,0.5,0.6
			c0.1,0.1,0.1,0.3,0.2,0.6c0.1,0.2,0.1,0.5,0.1,0.8c0,0.3,0,0.7,0,1.2c0,0.5,0,0.9-0.1,1.3c0,0.4-0.1,0.7-0.2,0.9
			c-0.1,0.3-0.2,0.4-0.3,0.6c-0.1,0.1-0.3,0.2-0.5,0.2c-0.3,0-0.8-0.2-1.4-0.6c-0.6-0.4-1.4-0.8-2.3-1.3c-0.9-0.5-2-0.9-3.2-1.3
			c-1.2-0.4-2.6-0.6-4.2-0.6c-1.4,0-2.7,0.2-3.8,0.6c-1.1,0.4-2,0.9-2.7,1.5c-0.7,0.6-1.2,1.4-1.6,2.3c-0.3,0.9-0.5,1.8-0.5,2.8
			c0,1.4,0.3,2.7,1,3.7c0.7,1,1.6,2,2.7,2.8c1.1,0.8,2.4,1.5,3.8,2.2c1.4,0.7,2.9,1.3,4.3,2c1.5,0.7,2.9,1.4,4.3,2.2
			c1.4,0.8,2.7,1.8,3.8,2.9c1.1,1.1,2,2.4,2.7,3.9C249,51.3,249.3,53.1,249.3,55.1z"/>
		<path class="st0" d="M289.3,49.1c0,1-0.3,1.8-0.8,2.2c-0.5,0.4-1.1,0.7-1.8,0.7h-23.8c0,2,0.2,3.8,0.6,5.4c0.4,1.6,1.1,3,2,4.1
			c0.9,1.2,2.2,2,3.7,2.7c1.5,0.6,3.4,0.9,5.5,0.9c1.7,0,3.3-0.1,4.6-0.4c1.3-0.3,2.5-0.6,3.5-0.9c1-0.3,1.8-0.7,2.4-0.9
			c0.6-0.3,1.1-0.4,1.4-0.4c0.2,0,0.4,0,0.5,0.1c0.1,0.1,0.3,0.2,0.3,0.4c0.1,0.2,0.1,0.4,0.2,0.8c0,0.3,0.1,0.7,0.1,1.2
			c0,0.3,0,0.7,0,0.9c0,0.3-0.1,0.5-0.1,0.7c0,0.2-0.1,0.4-0.2,0.5c-0.1,0.2-0.2,0.3-0.4,0.5c-0.1,0.1-0.6,0.4-1.3,0.7
			c-0.7,0.3-1.7,0.7-2.8,1c-1.2,0.3-2.5,0.6-4,0.9c-1.5,0.3-3.1,0.4-4.8,0.4c-3,0-5.6-0.4-7.8-1.2c-2.2-0.8-4.1-2.1-5.6-3.7
			c-1.5-1.6-2.7-3.7-3.5-6.1c-0.8-2.5-1.2-5.3-1.2-8.6c0-3.1,0.4-5.9,1.2-8.4c0.8-2.5,2-4.6,3.5-6.3c1.5-1.7,3.3-3.1,5.5-4
			c2.1-0.9,4.5-1.4,7.2-1.4c2.8,0,5.3,0.5,7.3,1.4c2,0.9,3.6,2.1,4.9,3.7c1.3,1.5,2.2,3.3,2.8,5.4c0.6,2.1,0.9,4.3,0.9,6.6V49.1z
			 M282.6,47.1c0.1-3.5-0.7-6.2-2.3-8.2c-1.6-2-4-3-7.3-3c-1.6,0-3.1,0.3-4.3,0.9c-1.2,0.6-2.3,1.4-3.1,2.5c-0.8,1-1.5,2.2-1.9,3.6
			c-0.5,1.4-0.7,2.8-0.8,4.2H282.6z"/>
		<path class="st0" d="M330.5,68.7c0,0.2-0.1,0.4-0.2,0.5c-0.1,0.1-0.3,0.3-0.5,0.4c-0.2,0.1-0.6,0.2-1,0.2c-0.4,0.1-1,0.1-1.6,0.1
			c-0.7,0-1.2,0-1.6-0.1c-0.4-0.1-0.8-0.1-1-0.2c-0.2-0.1-0.4-0.2-0.5-0.4c-0.1-0.1-0.2-0.3-0.2-0.5V47.5c0-2.1-0.2-3.7-0.5-5
			c-0.3-1.3-0.8-2.3-1.4-3.3c-0.6-0.9-1.4-1.6-2.4-2.1c-1-0.5-2.1-0.7-3.4-0.7c-1.7,0-3.3,0.6-5,1.8c-1.7,1.2-3.4,2.9-5.2,5.2v25.3
			c0,0.2-0.1,0.4-0.2,0.5c-0.1,0.1-0.3,0.3-0.5,0.4c-0.2,0.1-0.6,0.2-1,0.2c-0.4,0.1-1,0.1-1.6,0.1c-0.6,0-1.2,0-1.6-0.1
			c-0.4-0.1-0.8-0.1-1-0.2c-0.3-0.1-0.4-0.2-0.5-0.4c-0.1-0.1-0.1-0.3-0.1-0.5V32.6c0-0.2,0-0.4,0.1-0.5c0.1-0.1,0.2-0.3,0.5-0.4
			c0.2-0.1,0.5-0.2,0.9-0.2c0.4,0,0.9-0.1,1.5-0.1c0.6,0,1.1,0,1.5,0.1c0.4,0,0.7,0.1,0.9,0.2c0.2,0.1,0.4,0.3,0.5,0.4
			c0.1,0.1,0.1,0.3,0.1,0.5v4.8c2-2.3,4.1-3.9,6.1-5c2-1.1,4.1-1.6,6.1-1.6c2.4,0,4.4,0.4,6.1,1.2c1.6,0.8,3,1.9,4,3.3
			c1,1.4,1.7,3,2.2,4.8c0.4,1.8,0.7,4,0.7,6.6V68.7z"/>
		<path class="st0" d="M365.3,58.9c0,1.8-0.3,3.5-1,4.9c-0.7,1.4-1.7,2.7-2.9,3.7c-1.3,1-2.8,1.7-4.5,2.2c-1.7,0.5-3.7,0.8-5.7,0.8
			c-1.3,0-2.5-0.1-3.7-0.3c-1.2-0.2-2.2-0.5-3.1-0.8c-0.9-0.3-1.7-0.6-2.3-1c-0.6-0.3-1.1-0.6-1.4-0.9s-0.5-0.6-0.6-1.1
			c-0.1-0.5-0.2-1.1-0.2-2c0-0.5,0-0.9,0.1-1.3c0.1-0.3,0.1-0.6,0.2-0.8c0.1-0.2,0.2-0.4,0.3-0.5c0.1-0.1,0.3-0.1,0.5-0.1
			c0.3,0,0.7,0.2,1.3,0.5c0.6,0.4,1.3,0.8,2.1,1.2c0.8,0.4,1.8,0.8,3,1.2c1.2,0.4,2.5,0.5,4,0.5c1.1,0,2.1-0.1,3.1-0.4
			c0.9-0.2,1.7-0.6,2.4-1.1c0.7-0.5,1.2-1.1,1.5-1.8c0.4-0.7,0.5-1.6,0.5-2.6c0-1-0.3-1.9-0.8-2.6c-0.5-0.7-1.2-1.3-2.1-1.8
			c-0.9-0.5-1.8-1-2.9-1.4c-1.1-0.4-2.2-0.8-3.3-1.3c-1.1-0.5-2.2-1-3.3-1.5c-1.1-0.6-2.1-1.3-2.9-2.1c-0.9-0.8-1.5-1.8-2.1-3
			c-0.5-1.2-0.8-2.5-0.8-4.1c0-1.4,0.3-2.8,0.8-4.1c0.5-1.3,1.4-2.4,2.5-3.4c1.1-1,2.5-1.8,4.1-2.3c1.6-0.6,3.6-0.9,5.8-0.9
			c1,0,1.9,0.1,2.9,0.2c1,0.2,1.8,0.4,2.6,0.6c0.8,0.2,1.4,0.5,2,0.8c0.5,0.3,1,0.5,1.2,0.7c0.3,0.2,0.5,0.4,0.6,0.6
			c0.1,0.2,0.2,0.3,0.2,0.5c0,0.2,0.1,0.4,0.1,0.7c0,0.3,0.1,0.7,0.1,1.1c0,0.5,0,0.9-0.1,1.2c0,0.3-0.1,0.6-0.2,0.8
			c-0.1,0.2-0.2,0.4-0.3,0.5c-0.1,0.1-0.3,0.1-0.4,0.1c-0.2,0-0.6-0.1-1-0.4c-0.5-0.3-1-0.6-1.8-0.9c-0.7-0.3-1.6-0.6-2.6-0.9
			c-1-0.3-2.1-0.4-3.4-0.4c-1.1,0-2.1,0.1-3,0.4c-0.9,0.3-1.6,0.6-2.1,1.1c-0.5,0.5-1,1-1.2,1.7c-0.3,0.6-0.4,1.3-0.4,2.1
			c0,1,0.3,1.9,0.8,2.6c0.5,0.7,1.2,1.3,2.1,1.9c0.9,0.5,1.8,1,2.9,1.4c1.1,0.4,2.2,0.9,3.4,1.3c1.1,0.5,2.3,1,3.4,1.5
			c1.1,0.6,2.1,1.2,3,2c0.9,0.8,1.5,1.8,2.1,2.9C365,56,365.3,57.3,365.3,58.9z"/>
	</g>
</g>
<g>
	<g>
		<g>
			<g>
				<path class="st5" d="M194.8,38c0.5,0,0.9,0.1,1.3,0.3c0.4,0.2,0.8,0.4,1.1,0.7c0.3,0.3,0.6,0.6,0.7,1c0.2,0.4,0.3,0.8,0.3,1.2
					c-0.1,0-0.2,0-0.3,0.1c-0.2,0-0.3,0.1-0.4,0.1c-0.1,0-0.1,0-0.2-0.1c-0.1,0-0.1-0.1-0.1-0.2c0-0.2-0.1-0.4-0.2-0.7
					c-0.1-0.2-0.3-0.5-0.5-0.7c-0.2-0.2-0.5-0.4-0.8-0.6c-0.3-0.2-0.7-0.2-1.1-0.2c-0.4,0-0.8,0.1-1.2,0.2c-0.3,0.1-0.6,0.3-0.9,0.6
					c-0.3,0.2-0.4,0.5-0.6,0.9c-0.1,0.3-0.2,0.7-0.2,1.1c0,0.6,0.1,1.2,0.4,1.7c0.3,0.5,0.7,1.1,1.4,1.8l4.7,4.8
					c0.3-0.5,0.6-1.1,0.8-1.6c0.2-0.6,0.3-1.1,0.4-1.6c0-0.1,0-0.2,0.1-0.2c0-0.1,0.1-0.1,0.2-0.1l0.6,0c0,0.7-0.2,1.4-0.4,2.1
					c-0.2,0.7-0.6,1.4-1,2.1l3.1,3.2l-0.9,0c-0.1,0-0.2,0-0.3,0c-0.1,0-0.2-0.1-0.3-0.2l-2.1-2.2c-0.3,0.4-0.7,0.7-1.1,1
					c-0.4,0.3-0.8,0.6-1.2,0.8c-0.4,0.2-0.9,0.4-1.4,0.5c-0.5,0.1-1,0.2-1.6,0.2c-0.5,0-1-0.1-1.6-0.3c-0.5-0.2-1-0.5-1.4-0.8
					c-0.4-0.4-0.7-0.8-1-1.3c-0.2-0.5-0.4-1.1-0.4-1.8c0-0.5,0.1-1,0.3-1.5c0.2-0.5,0.4-0.9,0.8-1.3c0.3-0.4,0.7-0.7,1.1-1
					c0.4-0.3,0.9-0.6,1.4-0.7c-0.5-0.6-0.9-1.2-1.1-1.7c-0.2-0.6-0.4-1.1-0.4-1.8c0-0.5,0.1-1,0.3-1.4c0.2-0.4,0.4-0.8,0.8-1.1
					c0.3-0.3,0.7-0.6,1.2-0.7C193.7,38.1,194.2,38,194.8,38z M189.8,49.6c0,0.6,0.1,1,0.3,1.5c0.2,0.4,0.5,0.8,0.8,1
					c0.3,0.3,0.7,0.5,1.1,0.6c0.4,0.1,0.8,0.2,1.2,0.2c0.5,0,1,0,1.4-0.2c0.4-0.1,0.9-0.3,1.2-0.5c0.4-0.2,0.7-0.4,1.1-0.7
					c0.3-0.3,0.6-0.6,0.9-0.9l-4.8-5c0,0-0.1-0.1-0.1-0.1c-0.5,0.2-0.9,0.4-1.3,0.7c-0.4,0.3-0.7,0.6-1,0.9
					c-0.3,0.3-0.5,0.7-0.6,1.1C189.9,48.7,189.8,49.1,189.8,49.6z"/>
				<path class="st5" d="M193.2,54.2L193.2,54.2c-0.7,0-1.2-0.1-1.8-0.3c-0.6-0.2-1.1-0.5-1.5-0.9c-0.4-0.4-0.8-0.9-1.1-1.4
					c-0.3-0.6-0.4-1.2-0.4-1.9c0-0.6,0.1-1.1,0.3-1.6c0.2-0.5,0.5-1,0.8-1.4c0.3-0.4,0.8-0.8,1.2-1.1c0.3-0.2,0.6-0.4,1-0.6
					c-0.4-0.5-0.6-0.9-0.8-1.4c-0.3-0.6-0.4-1.3-0.4-1.9c0-0.6,0.1-1.1,0.3-1.6c0.2-0.5,0.5-0.9,0.9-1.3c0.4-0.4,0.8-0.6,1.3-0.8
					c0.5-0.2,1-0.3,1.6-0.3c0.6,0,1.1,0.1,1.5,0.3c0.5,0.2,0.9,0.5,1.2,0.8c0.3,0.3,0.6,0.7,0.8,1.1c0.2,0.4,0.3,0.9,0.3,1.3l0,0.3
					l-0.3,0.1c-0.1,0-0.2,0-0.2,0.1c-0.2,0-0.4,0.1-0.5,0.1c-0.2,0-0.3-0.1-0.4-0.2c-0.1-0.1-0.2-0.2-0.2-0.4c0-0.2-0.1-0.4-0.2-0.6
					c-0.1-0.2-0.2-0.4-0.4-0.6c-0.2-0.2-0.4-0.3-0.6-0.5c-0.3-0.1-0.6-0.2-0.9-0.2h0c-0.4,0-0.7,0.1-1,0.2c-0.3,0.1-0.5,0.3-0.8,0.5
					c-0.2,0.2-0.4,0.4-0.5,0.7c-0.1,0.3-0.2,0.6-0.2,0.9c0,0.5,0.1,1,0.4,1.5c0.3,0.5,0.7,1.1,1.3,1.7l4.3,4.5
					c0.2-0.3,0.3-0.7,0.5-1.1c0.2-0.5,0.3-1.1,0.4-1.6c0-0.2,0.1-0.3,0.2-0.4c0.1-0.2,0.3-0.2,0.5-0.2l1,0l0,0.4
					c0,0.7-0.2,1.5-0.4,2.2c-0.2,0.7-0.5,1.3-0.9,1.9l3.6,3.7l-1.9,0c-0.2,0-0.3,0-0.5-0.1c-0.1,0-0.3-0.1-0.4-0.3l-1.8-1.9
					c-0.3,0.3-0.5,0.5-0.8,0.8c-0.4,0.3-0.8,0.6-1.3,0.9c-0.5,0.2-1,0.4-1.5,0.6C194.3,54.1,193.7,54.2,193.2,54.2z M190.9,46.4
					c-0.3,0.2-0.5,0.4-0.7,0.7c-0.3,0.4-0.5,0.8-0.7,1.2c-0.2,0.4-0.3,0.9-0.3,1.3c0,0.6,0.1,1.1,0.3,1.6c0.2,0.5,0.5,0.9,0.9,1.2
					c0.4,0.3,0.8,0.6,1.2,0.7c0.5,0.2,0.9,0.3,1.4,0.3l0.1,0.4v-0.4c0.4,0,0.9,0,1.3-0.1c-0.4,0.1-0.7,0.1-1.1,0.1
					c-0.5,0-1-0.1-1.4-0.2c-0.5-0.2-0.9-0.4-1.2-0.7c-0.4-0.3-0.7-0.7-0.9-1.2c-0.2-0.5-0.3-1-0.3-1.7c0-0.5,0.1-0.9,0.2-1.4
					c0.2-0.4,0.4-0.8,0.7-1.2C190.5,46.8,190.7,46.6,190.9,46.4z M198.4,50.6l2.5,2.5c0.1,0.1,0.1,0.1,0.1,0.1c0,0,0.1,0,0.1,0
					L198.4,50.6L198.4,50.6l-5-5.3c-0.6-0.7-1.1-1.3-1.4-1.9c-0.3-0.6-0.5-1.2-0.5-1.9c0-0.5,0.1-0.9,0.2-1.3c0.2-0.4,0.4-0.7,0.7-1
					c0.3-0.3,0.6-0.5,1-0.6c0.2-0.1,0.5-0.1,0.7-0.2c-0.3,0-0.6,0.1-0.8,0.2c-0.4,0.2-0.8,0.4-1.1,0.7c-0.3,0.3-0.5,0.6-0.7,1
					c-0.2,0.4-0.2,0.8-0.3,1.3c0,0.6,0.1,1.1,0.3,1.6c0.2,0.5,0.6,1.1,1,1.6l0.3,0.3l0,0l0.2,0.2c0,0,0,0.1,0.1,0.1L198.4,50.6
					L198.4,50.6z M192.8,46c-0.3,0.2-0.6,0.3-0.9,0.6c-0.3,0.3-0.6,0.5-0.9,0.9c-0.2,0.3-0.4,0.6-0.6,1c-0.1,0.3-0.2,0.7-0.2,1.1
					c0,0.5,0.1,0.9,0.3,1.3c0.2,0.4,0.4,0.7,0.7,0.9c0.3,0.2,0.6,0.4,1,0.6c0.4,0.1,0.7,0.2,1.1,0.2h0c0.5,0,0.9-0.1,1.3-0.1
					c0.4-0.1,0.8-0.2,1.2-0.4c0.4-0.2,0.7-0.4,1-0.7c0.2-0.2,0.4-0.4,0.6-0.6L192.8,46z M199.9,46.7c-0.1,0.5-0.2,1.1-0.4,1.7
					c-0.2,0.6-0.5,1.2-0.8,1.7l-0.1,0.2l0,0c0.4-0.6,0.7-1.3,1-2C199.8,47.8,199.9,47.2,199.9,46.7L199.9,46.7z M195.6,38.5
					c0.2,0,0.3,0.1,0.4,0.2c0.3,0.2,0.6,0.4,0.9,0.7c0.2,0.2,0.4,0.5,0.5,0.8c0.1,0.2,0.2,0.5,0.3,0.7c0,0,0.1,0,0.1,0
					c0-0.2-0.1-0.5-0.2-0.7c-0.2-0.3-0.4-0.6-0.7-0.9c-0.3-0.3-0.6-0.5-1-0.6C195.8,38.6,195.7,38.6,195.6,38.5z"/>
			</g>
		</g>
	</g>
</g>
<rect x="188.8" y="58.4" class="st6" width="13.2" height="0.8"/>
<path class="st0" d="M52.4,64.7c0.2,0.6,0.3,1.1,0.3,1.4c0,0.4-0.1,0.6-0.3,0.8c-0.2,0.2-0.6,0.3-1.1,0.4c-0.5,0.1-1.2,0.1-2,0.1
	c-0.8,0-1.5,0-2-0.1c-0.5,0-0.9-0.1-1.1-0.2c-0.3-0.1-0.4-0.2-0.6-0.4c-0.1-0.2-0.2-0.4-0.3-0.6l-4.5-12.7H19.3L15.1,66
	c-0.1,0.2-0.2,0.4-0.3,0.6c-0.1,0.2-0.3,0.3-0.6,0.4c-0.3,0.1-0.6,0.2-1.1,0.3c-0.5,0.1-1.1,0.1-1.8,0.1c-0.8,0-1.4,0-1.9-0.1
	c-0.5-0.1-0.8-0.2-1-0.4C8.1,66.7,8,66.5,8,66.1c0-0.4,0.1-0.8,0.3-1.4l17.4-48.3c0.1-0.3,0.2-0.5,0.4-0.7c0.2-0.2,0.4-0.3,0.8-0.4
	c0.3-0.1,0.8-0.2,1.3-0.2c0.5,0,1.2-0.1,2-0.1c0.9,0,1.6,0,2.1,0.1c0.6,0,1,0.1,1.4,0.2c0.3,0.1,0.6,0.3,0.8,0.5
	c0.2,0.2,0.3,0.4,0.4,0.7L52.4,64.7z M30.1,22.1L30.1,22.1l-9,25.9h18.1L30.1,22.1z"/>
<path class="st0" d="M72.4,61.9c-0.1-1,0.1-1.8,0.4-2.4l-4.4-0.2c-1.4-0.1-2.6-0.4-3.5-1c-0.9-0.6-1.3-1.4-1.3-2.3
	c0-0.8,0.2-1.5,0.5-2.1c0.3-0.6,0.7-1.2,1.2-1.6c0.7,0.6,1.7,1.1,3.1,1.5c1.3,0.4,2.7,0.6,4.2,0.6c2.1,0,4-0.3,5.7-0.9
	c1.7-0.6,3.2-1.4,4.4-2.6c1.2-1.1,2.2-2.5,2.9-4.1c0.7-1.6,1-3.5,1-5.5c0-1.3-0.2-2.5-0.6-3.6c-0.4-1.2-1-2.2-2-3.2h5.2
	c0.4,0,0.7-0.2,1-0.6c0.3-0.4,0.4-1.1,0.4-2c0-0.9-0.1-1.6-0.3-2c-0.2-0.4-0.6-0.7-1-0.7H78.3c-0.8-0.2-1.7-0.4-2.7-0.5
	c-1-0.1-2-0.2-3.1-0.2c-2,0-3.9,0.3-5.6,0.9c-1.7,0.6-3.2,1.5-4.4,2.6c-1.2,1.1-2.2,2.5-2.9,4.1c-0.7,1.6-1,3.5-1,5.5
	c0,1.8,0.2,3.3,0.7,4.5c0.5,1.2,1.1,2.4,2,3.4c-1,1-1.8,2.2-2.5,3.5c-0.7,1.3-1,2.7-1,4.4c0,1.2,0.3,2.3,0.9,3.3
	c0.6,1,1.6,1.9,2.9,2.5l5.5,1.6l5.8-0.3C72.6,63.4,72.5,62.9,72.4,61.9z M65.3,38.4c0.3-1,0.8-1.8,1.4-2.6c0.6-0.8,1.4-1.3,2.4-1.8
	c1-0.4,2.1-0.6,3.4-0.6c2.5,0,4.4,0.7,5.8,2.1c1.4,1.4,2,3.3,2,5.8c0,1-0.2,2-0.5,3c-0.3,1-0.8,1.8-1.4,2.5
	c-0.6,0.7-1.4,1.3-2.4,1.7c-1,0.4-2.1,0.6-3.4,0.6c-2.4,0-4.3-0.7-5.7-2c-1.4-1.4-2-3.2-2-5.6C64.8,40.4,65,39.3,65.3,38.4z"/>
<path class="st0" d="M105.7,66.2c0,0.2-0.1,0.4-0.2,0.5c-0.1,0.1-0.3,0.3-0.5,0.4c-0.2,0.1-0.6,0.2-1,0.2c-0.4,0.1-1,0.1-1.6,0.1
	c-0.6,0-1.2,0-1.6-0.1c-0.4-0.1-0.8-0.1-1-0.2c-0.3-0.1-0.4-0.2-0.5-0.4c-0.1-0.1-0.1-0.3-0.1-0.5V30c0-0.2,0-0.4,0.1-0.5
	c0.1-0.2,0.3-0.3,0.5-0.4c0.3-0.1,0.6-0.2,1-0.2c0.4-0.1,1-0.1,1.6-0.1c0.7,0,1.2,0,1.6,0.1c0.4,0.1,0.8,0.1,1,0.2
	c0.2,0.1,0.4,0.2,0.5,0.4c0.1,0.2,0.2,0.3,0.2,0.5V66.2z"/>
<path class="st0" d="M124.6,66.2c0,0.2-0.1,0.4-0.2,0.5c-0.1,0.1-0.3,0.3-0.5,0.4c-0.2,0.1-0.6,0.2-1,0.2c-0.4,0.1-1,0.1-1.6,0.1
	c-0.6,0-1.2,0-1.6-0.1c-0.4-0.1-0.8-0.1-1-0.2c-0.3-0.1-0.4-0.2-0.5-0.4c-0.1-0.1-0.1-0.3-0.1-0.5V12.5c0-0.2,0-0.4,0.1-0.6
	c0.1-0.2,0.3-0.3,0.5-0.4c0.3-0.1,0.6-0.2,1-0.2c0.4-0.1,1-0.1,1.6-0.1c0.7,0,1.2,0,1.6,0.1c0.4,0.1,0.8,0.1,1,0.2
	c0.2,0.1,0.4,0.2,0.5,0.4c0.1,0.2,0.2,0.3,0.2,0.6V66.2z"/>
<path class="st0" d="M167.7,46.5c0,1-0.3,1.8-0.8,2.2c-0.5,0.4-1.1,0.7-1.8,0.7h-23.8c0,2,0.2,3.8,0.6,5.4c0.4,1.6,1.1,3,2,4.1
	c0.9,1.2,2.2,2,3.7,2.7c1.5,0.6,3.4,0.9,5.5,0.9c1.7,0,3.3-0.1,4.6-0.4c1.3-0.3,2.5-0.6,3.5-0.9c1-0.3,1.8-0.7,2.4-0.9
	c0.6-0.3,1.1-0.4,1.4-0.4c0.2,0,0.4,0,0.5,0.1c0.1,0.1,0.3,0.2,0.3,0.4c0.1,0.2,0.1,0.4,0.2,0.8c0,0.3,0.1,0.7,0.1,1.2
	c0,0.3,0,0.7,0,0.9c0,0.3-0.1,0.5-0.1,0.7c0,0.2-0.1,0.4-0.2,0.5c-0.1,0.2-0.2,0.3-0.4,0.5c-0.1,0.1-0.6,0.4-1.3,0.7
	c-0.7,0.3-1.7,0.7-2.8,1c-1.2,0.3-2.5,0.6-4,0.9c-1.5,0.3-3.1,0.4-4.8,0.4c-3,0-5.6-0.4-7.8-1.2c-2.2-0.8-4.1-2.1-5.6-3.7
	c-1.5-1.6-2.7-3.7-3.5-6.1c-0.8-2.5-1.2-5.3-1.2-8.6c0-3.1,0.4-5.9,1.2-8.4c0.8-2.5,2-4.6,3.5-6.3c1.5-1.7,3.3-3.1,5.5-4
	c2.1-0.9,4.5-1.4,7.2-1.4c2.8,0,5.3,0.5,7.3,1.4c2,0.9,3.6,2.1,4.9,3.7c1.3,1.5,2.2,3.3,2.8,5.4c0.6,2.1,0.9,4.3,0.9,6.6V46.5z
	 M161,44.6c0.1-3.5-0.7-6.2-2.3-8.2c-1.6-2-4-3-7.3-3c-1.6,0-3.1,0.3-4.3,0.9c-1.2,0.6-2.3,1.4-3.1,2.5c-0.8,1-1.5,2.2-1.9,3.6
	c-0.5,1.4-0.7,2.8-0.8,4.2H161z"/>
<path class="st0" d="M65,74.3c-0.1-0.6-0.2-1.3-0.2-2c0-1.1,0.2-2.1,0.5-3.1c0.3-1,0.8-1.8,1.4-2.6c0.6-0.8,1.4-1.3,2.4-1.8
	c1-0.4,2.1-0.6,3.4-0.6c2.5,0,4.4,0.7,5.8,2.1c1.4,1.4,2,3.3,2,5.8c0,0.8-0.1,1.5-0.2,2.2h6.4c0.1-0.7,0.2-1.5,0.2-2.3
	c0-1.3-0.2-2.5-0.6-3.6s-1-2.2-2-3.2c-3.6-4.8-8.4-5.8-8.4-5.8c-1-0.1-2-0.2-3.1-0.2c-2,0-3.9,0.3-5.6,0.9c-1.7,0.6-3.2,1.5-4.4,2.6
	c-1.2,1.1-2.2,2.5-2.9,4.1c-0.7,1.6-1,3.5-1,5.5c0,0.7,0,1.3,0.1,1.9H65z"/>
<path class="st0" d="M86.5,72.3c0-7.8-6.3-14-14-14c-1.8,0-3.5,0.3-5.1,0.9l5.7,2c0,0,9.5,7.5,9.6,7.7c0.1,0.2,0.8,4.5,0.8,4.5
	l2.9,1"/>
<path class="st5" d="M106.5,17.8c0,1.6-0.3,2.6-0.9,3.2c-0.6,0.6-1.7,0.8-3.3,0.8c-1.6,0-2.6-0.3-3.2-0.8c-0.6-0.5-0.9-1.6-0.9-3.1
	c0-1.6,0.3-2.6,0.9-3.2c0.6-0.6,1.7-0.8,3.3-0.8c1.6,0,2.6,0.3,3.2,0.8C106.2,15.3,106.5,16.3,106.5,17.8z"/>
</svg>
