<svg xmlns="http://www.w3.org/2000/svg" xmlns:xlink="http://www.w3.org/1999/xlink" version="1.1" x="0px" y="0px" viewBox="0 0 100 125" style="enable-background:new 0 0 100 100;" xml:space="preserve"><path d="M49.9999695,49.6450996c1.8957176,0,3.4379005-1.5421829,3.4379005-3.4373512  c0-1.8951721-1.5421829-3.4368095-3.4379005-3.4368095c-1.8951683,0-3.4368057,1.5416374-3.4368057,3.4368095  C46.5631638,48.1029167,48.1048012,49.6450996,49.9999695,49.6450996z"/><path d="M58.4234314,50.3549004H41.5770569c-0.8559151,0-1.5520325,0.6961174-1.5520325,1.5520363v5.32267h3.8576508V54.510807  c0-0.1280594,0.1045265-0.2331314,0.2331314-0.2331314c0.1286087,0,0.2331352,0.105072,0.2331352,0.2331314v2.7187996h11.3009644  V54.510807c0-0.1280594,0.105072-0.2331314,0.2342262-0.2331314s0.23423,0.105072,0.23423,0.2331314v2.7187996h3.8571014v-5.32267  C59.9754639,51.0510178,59.2793465,50.3549004,58.4234314,50.3549004z"/><path d="M49.9999695,12.5281382c1.8957176,0,3.4379005-1.5421848,3.4379005-3.4373531s-1.5421829-3.4368067-3.4379005-3.4368067  c-1.8951683,0-3.4368057,1.5416374-3.4368057,3.4368067S48.1048012,12.5281382,49.9999695,12.5281382z"/><path d="M43.8826752,17.3943939c0-0.1291542,0.1045265-0.2336807,0.2331314-0.2336807  c0.1286087,0,0.2331352,0.1045265,0.2331352,0.2336807v2.7177029h11.3009644v-2.7177029  c0-0.1291542,0.105072-0.2336807,0.2342262-0.2336807s0.23423,0.1045265,0.23423,0.2336807v2.7177029h3.8571014v-5.3221235  c0-0.8559179-0.6961174-1.5520363-1.5520325-1.5520363H41.5770569c-0.8559151,0-1.5520325,0.6961184-1.5520325,1.5520363v5.3221235  h3.8576508V17.3943939z"/><path d="M53.43787,83.3252563c0-1.8957138-1.5421829-3.4379044-3.4379005-3.4379044  c-1.8951683,0-3.4368057,1.5421906-3.4368057,3.4379044c0,1.8946228,1.5416374,3.4368057,3.4368057,3.4368057  C51.8956871,86.7620621,53.43787,85.2198792,53.43787,83.3252563z"/><path d="M58.4234314,87.4713135H41.5770569c-0.8559151,0-1.5520325,0.6961212-1.5520325,1.5520401v5.32267h3.8576508v-2.7177048  c0-0.129158,0.1045265-0.23423,0.2331314-0.23423c0.1286087,0,0.2331352,0.105072,0.2331352,0.23423v2.7177048h11.3009644  v-2.7177048c0-0.129158,0.105072-0.23423,0.2342262-0.23423s0.23423,0.105072,0.23423,0.23423v2.7177048h3.8571014v-5.32267  C59.9754639,88.1674347,59.2793465,87.4713135,58.4234314,87.4713135z"/><circle cx="14.9751921" cy="64.7665024" r="3.4373536"/><path d="M8.8578949,73.0695648c0-0.129158,0.1045275-0.23423,0.2331343-0.23423c0.1286058,0,0.2331333,0.105072,0.2331333,0.23423  v2.7187958h11.3020582v-2.7187958c0-0.129158,0.1045265-0.23423,0.2331333-0.23423s0.2331333,0.105072,0.2331333,0.23423v2.7187958  H24.95014v-5.32267c0-0.8559189-0.6961174-1.5531311-1.5520363-1.5531311H6.5522795  c-0.8559179,0-1.5520353,0.6972122-1.5520353,1.5531311v5.32267h3.8576508V73.0695648z"/><path d="M14.9751921,31.0863457c1.8951693,0,3.4368067-1.5416374,3.4368067-3.4368057  c0-1.8951702-1.5416374-3.437355-3.4368067-3.437355s-3.4368067,1.5421848-3.4368067,3.437355  C11.5383854,29.5447083,13.0800228,31.0863457,14.9751921,31.0863457z"/><path d="M8.8578949,35.9526024c0-0.1286087,0.1045275-0.2331352,0.2331343-0.2331352  c0.1286058,0,0.2331333,0.1045265,0.2331333,0.2331352v2.717701h11.3020582v-2.717701  c0-0.1286087,0.1045265-0.2331352,0.2331333-0.2331352s0.2331333,0.1045265,0.2331333,0.2331352v2.717701H24.95014v-5.3215752  c0-0.8559189-0.6961174-1.5520363-1.5520363-1.5520363H6.5522795c-0.8559179,0-1.5520353,0.6961174-1.5520353,1.5520363v5.3215752  h3.8576508V35.9526024z"/><circle cx="85.0247498" cy="64.7665024" r="3.437901"/><path d="M93.4482117,68.9125595H76.6012878c-0.8559189,0-1.5520325,0.6972122-1.5520325,1.5531311v5.32267h3.8571014v-2.7187958  c0-0.129158,0.105072-0.23423,0.23423-0.23423c0.1291504,0,0.23423,0.105072,0.23423,0.23423v2.7187958h11.2998657v-2.7187958  c0-0.129158,0.105072-0.23423,0.23423-0.23423c0.1291504,0,0.23423,0.105072,0.23423,0.23423v2.7187958h3.8571014v-5.32267  C95.0002441,69.6097717,94.3041229,68.9125595,93.4482117,68.9125595z"/><path d="M85.0247498,31.0863457c1.8957138,0,3.4378967-1.5416374,3.4378967-3.4368057  c0-1.8951702-1.5421829-3.437355-3.4378967-3.437355s-3.4379044,1.5421848-3.4379044,3.437355  C81.5868454,29.5447083,83.1290359,31.0863457,85.0247498,31.0863457z"/><path d="M93.4482117,31.7966919H76.6012878c-0.8559189,0-1.5520325,0.6961174-1.5520325,1.5520363v5.3215752h3.8571014v-2.717701  c0-0.1286087,0.105072-0.2331352,0.23423-0.2331352c0.1291504,0,0.23423,0.1045265,0.23423,0.2331352v2.717701h11.2998657v-2.717701  c0-0.1286087,0.105072-0.2331352,0.23423-0.2331352c0.1291504,0,0.23423,0.1045265,0.23423,0.2331352v2.717701h3.8571014v-5.3215752  C95.0002441,32.4928093,94.3041229,31.7966919,93.4482117,31.7966919z"/><path d="M28.9478893,72.28479h-0.2801991c-0.3097496,0-0.5603962,0.2506485-0.5603962,0.5603943  c0,0.3097534,0.2506466,0.5603943,0.5603962,0.5603943h0.2801991c0.3096828,0,0.5601921-0.2505035,0.5603275-0.5601883  c0-0.0000687,0.0000687-0.0001373,0.0000687-0.000206C29.5082855,72.5354385,29.2576389,72.28479,28.9478893,72.28479z"/><path d="M54.5520973,72.28479h-0.5691528c-0.3097496,0-0.5603981,0.2506485-0.5603981,0.5603943  c0,0.0000687,0.0000687,0.0001373,0.0000687,0.000206c0.0001373,0.3096848,0.2506485,0.5601883,0.5603294,0.5601883h0.5691528  c0.3096809,0,0.5601921-0.2505035,0.5603294-0.5601883c0-0.0000687,0.0000687-0.0001373,0.0000687-0.000206  C55.1124954,72.5354385,54.8618469,72.28479,54.5520973,72.28479z"/><path d="M51.7063332,72.28479h-0.568058c-0.3097496,0-0.5603943,0.2506485-0.5603943,0.5603943  c0,0.0000687,0.0000687,0.0001373,0.0000687,0.000206c0.0001335,0.3096848,0.2506447,0.5601883,0.5603256,0.5601883h0.568058  c0.3096809,0,0.5601921-0.2505035,0.5603294-0.5601883c0-0.0000687,0.0000687-0.0001373,0.0000687-0.000206  C52.2667313,72.5354385,52.0160828,72.28479,51.7063332,72.28479z"/><path d="M37.4824448,72.28479h-0.5686073c-0.3097496,0-0.5603981,0.2506485-0.5603981,0.5603943  c0,0.0000687,0.0000687,0.0001373,0.0000687,0.000206c0.0001373,0.3096848,0.2506485,0.5601883,0.5603294,0.5601883h0.5686073  c0.3096809,0,0.5601883-0.2505035,0.5603256-0.5601883c0-0.0000687,0.0000687-0.0001373,0.0000687-0.000206  C38.0428391,72.5354385,37.7921944,72.28479,37.4824448,72.28479z"/><path d="M57.3967667,72.28479h-0.5691528c-0.3097496,0-0.5603981,0.2506485-0.5603981,0.5603943  c0,0.0000687,0.0000687,0.0001373,0.0000687,0.000206c0.0001373,0.3096848,0.2506485,0.5601883,0.5603294,0.5601883h0.5691528  c0.3096809,0,0.5601921-0.2505035,0.5603256-0.5601883c0-0.0000687,0.0000687-0.0001373,0.0000687-0.000206  C57.9571609,72.5354385,57.7065163,72.28479,57.3967667,72.28479z"/><path d="M68.2073822,73.4055786h0.5680618c0.3096771,0,0.5601883-0.2505035,0.5603256-0.5601883  c0-0.0000687,0.0000687-0.0001373,0.0000687-0.000206c0-0.3097458-0.2506485-0.5603943-0.5603943-0.5603943h-0.5680618  c-0.3097534,0-0.5603943,0.2506485-0.5603943,0.5603943c0,0.0000687,0.0000687,0.0001373,0.0000687,0.000206  C67.6471939,73.1550751,67.8976974,73.4055786,68.2073822,73.4055786z"/><path d="M63.0861053,72.28479h-0.5691528c-0.3097534,0-0.5603981,0.2506485-0.5603981,0.5603943  c0,0.0000687,0.0000687,0.0001373,0.0000687,0.000206c0.0001373,0.3096848,0.2506447,0.5601883,0.5603294,0.5601883h0.5691528  c0.3096809,0,0.5601883-0.2505035,0.5603256-0.5601883c0-0.0000687,0.0000687-0.0001373,0.0000687-0.000206  C63.6464996,72.5354385,63.3958549,72.28479,63.0861053,72.28479z"/><path d="M65.361618,73.4055786h0.5691528c0.3096848,0,0.5601959-0.2505035,0.5603256-0.5601883  c0-0.0000687,0.0000687-0.0001373,0.0000687-0.000206c0-0.3097458-0.2506409-0.5603943-0.5603943-0.5603943H65.361618  c-0.3097458,0-0.5603943,0.2506485-0.5603943,0.5603943c0,0.0000687,0.0000687,0.0001373,0.0000687,0.000206  C64.8014297,73.1550751,65.0519409,73.4055786,65.361618,73.4055786z"/><path d="M40.3276596,72.28479h-0.5691528c-0.3097496,0-0.5603981,0.2506485-0.5603981,0.5603943  c0,0.0000687,0.0000687,0.0001373,0.0000687,0.000206c0.0001373,0.3096848,0.2506485,0.5601883,0.5603294,0.5601883h0.5691528  c0.3096809,0,0.5601921-0.2505035,0.5603256-0.5601883c0-0.0000687,0.0000687-0.0001373,0.0000687-0.000206  C40.8880539,72.5354385,40.6374092,72.28479,40.3276596,72.28479z"/><path d="M48.8622131,72.28479h-0.5691528c-0.3097496,0-0.5603981,0.2506485-0.5603981,0.5603943  c0,0.0000687,0.0000687,0.0001373,0.0000687,0.000206c0.0001373,0.3096848,0.2506485,0.5601883,0.5603294,0.5601883h0.5691528  c0.3096809,0,0.5601921-0.2505035,0.5603256-0.5601883c0-0.0000687,0.0000687-0.0001373,0.0000687-0.000206  C49.4226074,72.5354385,49.1719627,72.28479,48.8622131,72.28479z"/><path d="M46.0169983,72.28479H45.448391c-0.3097496,0-0.5603981,0.2506485-0.5603981,0.5603943  c0,0.0000687,0.0000687,0.0001373,0.0000687,0.000206c0.0001373,0.3096848,0.2506485,0.5601883,0.5603294,0.5601883h0.5686073  c0.3096809,0,0.5601883-0.2505035,0.5603256-0.5601883c0-0.0000687,0.0000687-0.0001373,0.0000687-0.000206  C46.5773926,72.5354385,46.3267479,72.28479,46.0169983,72.28479z"/><path d="M43.1723289,72.28479h-0.5691528c-0.3097496,0-0.5603981,0.2506485-0.5603981,0.5603943  c0,0.0000687,0.0000687,0.0001373,0.0000687,0.000206c0.0001373,0.3096848,0.2506447,0.5601883,0.5603294,0.5601883h0.5691528  c0.3096809,0,0.5601883-0.2505035,0.5603256-0.5601883c0-0.0000687,0.0000687-0.0001373,0.0000687-0.000206  C43.7327232,72.5354385,43.4820786,72.28479,43.1723289,72.28479z"/><path d="M60.241436,72.28479h-0.5691528c-0.3097496,0-0.5603981,0.2506485-0.5603981,0.5603943  c0,0.0000687,0.0000687,0.0001373,0.0000687,0.000206c0.0001373,0.3096848,0.2506447,0.5601883,0.5603294,0.5601883h0.5691528  c0.3096809,0,0.5601883-0.2505035,0.5603256-0.5601883c0-0.0000687,0.0000687-0.0001373,0.0000687-0.000206  C60.8018303,72.5354385,60.5511856,72.28479,60.241436,72.28479z"/><path d="M31.7931061,72.28479h-0.5691528c-0.3097515,0-0.5603962,0.2506485-0.5603962,0.5603943  c0,0.0000687,0.0000668,0.0001373,0.0000668,0.000206c0.0001373,0.3096848,0.2506466,0.5601883,0.5603294,0.5601883h0.5691528  c0.3096809,0,0.5601921-0.2505035,0.5603256-0.5601883c0-0.0000687,0.0000687-0.0001373,0.0000687-0.000206  C32.3535004,72.5354385,32.1028557,72.28479,31.7931061,72.28479z"/><path d="M34.6377754,72.28479h-0.5691528c-0.3097496,0-0.5603981,0.2506485-0.5603981,0.5603943  c0,0.0000687,0.0000687,0.0001373,0.0000687,0.000206c0.0001373,0.3096848,0.2506447,0.5601883,0.5603294,0.5601883h0.5691528  c0.3096809,0,0.5601883-0.2505035,0.5603256-0.5601883c0-0.0000687,0.0000687-0.0001373,0.0000687-0.000206  C35.1981697,72.5354385,34.947525,72.28479,34.6377754,72.28479z"/><path d="M71.0520554,73.4055786h0.2801971c0.3097458,0,0.5603943-0.2506409,0.5603943-0.5603943  c0-0.3097458-0.2506485-0.5603943-0.5603943-0.5603943h-0.2801971c-0.3097534,0-0.5604019,0.2506485-0.5604019,0.5603943  c0,0.0000687,0.0000687,0.0001373,0.0000687,0.000206C70.4918594,73.1550751,70.7423706,73.4055786,71.0520554,73.4055786z"/><path d="M19.1606522,78.6198959l-0.2435303-0.1390076c-0.270895-0.1521378-0.6112919-0.0591049-0.7645264,0.2090607  c-0.15378,0.269249-0.0601978,0.6107407,0.2085075,0.7650681l0.2435322,0.1390076  c0.0881081,0.0492554,0.1833324,0.0733337,0.277462,0.0733337c0.1946201,0,0.3832188-0.1017227,0.486721-0.2820511  c0.0000687-0.0001373,0.0002728-0.0001984,0.0003414-0.0003357C19.5229397,79.115715,19.4293594,78.7742233,19.1606522,78.6198959z"/><path d="M35.1729965,87.7821579l-0.4575119-0.2615891c-0.2687035-0.1543274-0.611084-0.0602646-0.7644577,0.2078934  l-0.0000687,0.0000687c-0.1537781,0.268158-0.0601959,0.6107407,0.2085075,0.7639771l0.4575119,0.2615891  c0.0875626,0.0503464,0.1833344,0.0744247,0.277462,0.0744247c0.1940727,0,0.383152-0.1016541,0.4865837-0.2819061  c0.0001373-0.000206,0.0003433-0.0002747,0.0004807-0.0004807C35.5352859,88.277977,35.4417038,87.9353943,35.1729965,87.7821579z"/><path d="M32.8854408,86.4731064l-0.4575119-0.2615891c-0.268158-0.1532364-0.6107445-0.0601959-0.7645245,0.207962  c0,0.0000687-0.0000687,0.0000687-0.0000687,0.0001373c-0.15378,0.2680893-0.0600624,0.6106033,0.2085762,0.7638397  l0.45751,0.2615891c0.0875626,0.0503464,0.1833344,0.0744247,0.277462,0.0744247  c0.1940041,0,0.3828773-0.1017227,0.4864464-0.2817688c0.0001373-0.0002747,0.0004807-0.0003433,0.000618-0.000618  C33.2477264,86.9689255,33.1541481,86.6263428,32.8854408,86.4731064z"/><path d="M23.7357635,81.23909l-0.45751-0.2615891c-0.2685013-0.1541901-0.6107445-0.0601959-0.7641144,0.2074814  c-0.0001373,0.000206-0.0002747,0.0002747-0.000412,0.0004807c-0.15378,0.268158-0.0601978,0.6107407,0.2085075,0.7639771  l0.4575119,0.2615891c0.0875607,0.0503464,0.1833324,0.0744324,0.277462,0.0744324  c0.1942768,0,0.3835621-0.1017227,0.4869938-0.2823257l0.0000687-0.0000687  C24.098053,81.7349091,24.0044708,81.3923264,23.7357635,81.23909z"/><path d="M21.4482079,79.9300385l-0.45751-0.2615891c-0.2680225-0.1553497-0.6102657-0.0602646-0.7642517,0.2076187  c-0.0000687,0.0001373-0.000206,0.000206-0.0002747,0.0003433c-0.15378,0.268158-0.0601978,0.6107407,0.2085075,0.7639771  l0.4575119,0.2615891c0.0875607,0.0503464,0.1833324,0.0744324,0.277462,0.0744324  c0.1942081,0,0.3834934-0.1016541,0.4868565-0.2821884c0.0000687-0.0000687,0.0001373-0.0001297,0.000206-0.0001984  C21.8104954,80.4258575,21.7169151,80.0832748,21.4482079,79.9300385z"/><path d="M30.5978851,85.1651535l-0.4575119-0.2615967c-0.2674065-0.1552811-0.6107445-0.0601959-0.7641144,0.2074814  c-0.0001373,0.000206-0.0002728,0.0002747-0.0004101,0.0004807c-0.1537819,0.268158-0.0601997,0.6107483,0.2085056,0.7639771  l0.4575119,0.2615967c0.0875626,0.0503464,0.1833324,0.0744247,0.277462,0.0744247  c0.1942101,0,0.3834248-0.1019287,0.4869957-0.2823181c0-0.0000687,0.0000687,0,0.0000687-0.0000687  C30.9601727,85.6609726,30.8665905,85.3183823,30.5978851,85.1651535z"/><path d="M26.0233212,82.5470505l-0.4575119-0.2615891c-0.2676105-0.154335-0.6112919-0.0602036-0.7645245,0.2079544v0.0000687  c-0.1537819,0.268158-0.0601997,0.6106796,0.2085056,0.7639084l0.4575119,0.2615967  c0.0875626,0.0503464,0.1833324,0.0744247,0.277462,0.0744247c0.1940041,0,0.3828773-0.1017227,0.4864464-0.2817688  c0.0001373-0.0002747,0.0004807-0.0003433,0.0006161-0.000618C26.3856087,83.0428696,26.2920265,82.7002792,26.0233212,82.5470505z"/><path d="M28.3108768,83.856102l-0.4569645-0.2615891c-0.2702789-0.154335-0.6116333-0.0622559-0.7650032,0.2078857  c0,0.0000687-0.0000687,0-0.0000687,0.0000687c-0.1537819,0.268158-0.0607471,0.6107483,0.2079582,0.7639771l0.4569645,0.2615967  c0.08811,0.0503464,0.1838799,0.0744247,0.2780094,0.0744247c0.1941414,0,0.3832893-0.1006927,0.4867897-0.2821121  c0.0000687-0.0001373,0.000206-0.0001373,0.0002728-0.0002747C28.672617,84.3519211,28.5795822,84.0093307,28.3108768,83.856102z"/><path d="M37.2454796,88.9686203l-0.2429848-0.1389999c-0.2685013-0.1542587-0.6101303-0.0601349-0.7641144,0.20755  c-0.0000687,0.000206-0.0003433,0.000206-0.000412,0.000412c-0.1537819,0.268158-0.0601997,0.6107407,0.2085075,0.7639771  l0.2429848,0.1389999c0.0875626,0.0503464,0.1833305,0.0744324,0.277462,0.0744324  c0.1942787,0,0.3836288-0.1017914,0.4870644-0.2823868C37.6077652,89.4644394,37.514183,89.1218567,37.2454796,88.9686203z"/><path d="M15.5355883,41.9916382V41.711441c0-0.3097496-0.2506466-0.5603981-0.5603962-0.5603981  c-0.3097506,0-0.5603971,0.2506485-0.5603971,0.5603981v0.2801971c0,0.3097496,0.2506466,0.5603981,0.5603971,0.5603981  C15.2849417,42.5520363,15.5355883,42.3013878,15.5355883,41.9916382z"/><path d="M15.5355883,44.8565559v-0.5729828c0-0.3097496-0.2506466-0.5603981-0.5603962-0.5603981  c-0.3097506,0-0.5603971,0.2506485-0.5603971,0.5603981v0.5729828c0,0.3097496,0.2506466,0.5603981,0.5603971,0.5603981  C15.2849417,45.416954,15.5355883,45.1663055,15.5355883,44.8565559z"/><path d="M15.5355883,56.3156776v-0.5735283c0-0.3097496-0.2506466-0.5603981-0.5603962-0.5603981  c-0.3097506,0-0.5603971,0.2506485-0.5603971,0.5603981v0.5735283c0,0.3097534,0.2506466,0.5603981,0.5603971,0.5603981  C15.2849417,56.8760757,15.5355883,56.6254311,15.5355883,56.3156776z"/><path d="M15.5355883,53.4502144v-0.5724373c0-0.3097496-0.2506466-0.5603943-0.5603962-0.5603943  c-0.3097506,0-0.5603971,0.2506447-0.5603971,0.5603943v0.5724373c0,0.3097496,0.2506466,0.5603981,0.5603971,0.5603981  C15.2849417,54.0106125,15.5355883,53.759964,15.5355883,53.4502144z"/><path d="M15.5355883,50.5858459v-0.5729866c0-0.3097496-0.2506466-0.5603943-0.5603962-0.5603943  c-0.3097506,0-0.5603971,0.2506447-0.5603971,0.5603943v0.5729866c0,0.3097496,0.2506466,0.5603943,0.5603971,0.5603943  C15.2849417,51.1462402,15.5355883,50.8955956,15.5355883,50.5858459z"/><path d="M15.5355883,47.7214737v-0.5729828c0-0.3097496-0.2506466-0.5603981-0.5603962-0.5603981  c-0.3097506,0-0.5603971,0.2506485-0.5603971,0.5603981v0.5729828c0,0.3097496,0.2506466,0.5603981,0.5603971,0.5603981  C15.2849417,48.2818718,15.5355883,48.0312233,15.5355883,47.7214737z"/><path d="M14.4147949,58.6076126v0.2801971c0,0.3097534,0.2506466,0.5603981,0.5603971,0.5603981  c0.3097496,0,0.5603962-0.2506447,0.5603962-0.5603981v-0.2801971c0-0.3097496-0.2506466-0.5603943-0.5603962-0.5603943  C14.6654415,58.0472183,14.4147949,58.297863,14.4147949,58.6076126z"/><path d="M20.9250259,24.9405918c0.0782585,0,0.1587067-0.0164185,0.2347755-0.0519905l0.2544765-0.1176605  c0.2807465-0.1297016,0.4033318-0.4624367,0.2730846-0.7437305c-0.000206-0.0004101-0.0004787-0.0005455-0.0006847-0.0009575  c-0.130043-0.2792397-0.4616146-0.4043579-0.7430458-0.2721252l-0.2544765,0.1176605  c-0.2807446,0.1297016-0.4033318,0.4624367-0.2730827,0.7437305C20.5107479,24.8201942,20.7132359,24.9405918,20.9250259,24.9405918  z"/><path d="M33.312851,19.1822987c0.0788078,0,0.159256-0.0164165,0.2353249-0.0519886l0.5056686-0.2347755  c0.2807465-0.130249,0.4027863-0.4635315,0.2725372-0.744278c-0.0000687-0.0002041-0.0002747-0.0002728-0.0003433-0.0004787  c-0.1310005-0.2797184-0.4628448-0.4011421-0.7439346-0.2720566l-0.5056686,0.2347755  c-0.2807465,0.1302471-0.4027863,0.4635296-0.2725372,0.744276c0.0000687,0.0002041,0.0002747,0.0002041,0.0003433,0.0004101  C32.8996696,19.0625172,33.1012688,19.1822987,33.312851,19.1822987z"/><path d="M23.2016373,23.8827343c0.0788059,0,0.1592522-0.0164185,0.235323-0.0519905l0.5056686-0.2347755  c0.2807465-0.130249,0.4027863-0.4635315,0.2725372-0.744276c-0.0001373-0.0002747-0.0003414-0.0003414-0.0004787-0.0006161  c-0.1303844-0.2801971-0.4616833-0.4014854-0.7437973-0.2719212l-0.5056705,0.2347755  c-0.2807465,0.130249-0.4027843,0.4635315-0.2725372,0.744276c0.0000687,0.0001373,0.0001373,0.0001373,0.000206,0.0002747  C22.7881794,23.7628841,22.9899826,23.8827343,23.2016373,23.8827343z"/><path d="M30.7850494,20.3578186c0.078804,0,0.1592522-0.0169659,0.2358685-0.0525379l0.5056705-0.235323  c0.2806778-0.1301785,0.4021015-0.4633255,0.2715111-0.7440014c-0.0000687-0.0000687,0-0.000206-0.0000687-0.0002747  c-0.130249-0.2801991-0.4629841-0.4033318-0.744276-0.2714424l-0.5056705,0.235323  c-0.2805405,0.1301804-0.4020329,0.4631214-0.2715797,0.7436619c0.0000687,0.0002041,0.0000687,0.0004101,0.0001373,0.0006142  C30.3713188,20.2379684,30.5738049,20.3578186,30.7850494,20.3578186z"/><path d="M25.7294407,22.7077618c0.0788059,0,0.1592541-0.016964,0.2358704-0.052536l0.5056705-0.235323  c0.2806072-0.1301804,0.4019642-0.4632587,0.2715092-0.743866c-0.0000687-0.0001373,0-0.0002747-0.0000687-0.000412  c-0.1302471-0.2801971-0.4629822-0.4027843-0.744276-0.2714405l-0.5056705,0.235321  c-0.2806072,0.1301804-0.4020329,0.4630527-0.2715778,0.7437992c0.0000687,0.0001354,0.0000687,0.0003414,0.0001354,0.0004787  C25.3157101,22.5879116,25.518198,22.7077618,25.7294407,22.7077618z"/><path d="M28.2572441,21.5327892c0.0788059,0,0.1592541-0.016964,0.2358704-0.052536l0.5056705-0.235323  c0.2806759-0.1301804,0.4019642-0.4631214,0.2715111-0.7439346c-0.0000687-0.0000687,0-0.0002728-0.0000687-0.0003414  c-0.130249-0.2796516-0.4629841-0.4016914-0.744278-0.2714424l-0.5056686,0.235323  c-0.2805405,0.1301804-0.4020329,0.4631882-0.2715797,0.7437286c0.0000687,0.000206,0.0000687,0.0003414,0.0001373,0.0005474  C27.8435135,21.4129391,28.0460014,21.5327892,28.2572441,21.5327892z"/><path d="M35.8406563,18.007328c0.078804,0,0.1592522-0.0164185,0.235321-0.0519905l0.2544785-0.1182079  c0.2807465-0.1307964,0.4027863-0.4635315,0.2725372-0.744278c-0.1307945-0.2801971-0.462986-0.4027843-0.744278-0.2725353  l-0.2544746,0.1182079c-0.2807465,0.1307964-0.4027863,0.4635315-0.2725372,0.744276  c0.0000687,0.0001373,0.0002747,0.000206,0.0003433,0.0003433C35.4273376,17.8875446,35.6290016,18.007328,35.8406563,18.007328z"/><path d="M50.5603676,23.4575119v-0.2801991c0-0.3097496-0.2506485-0.5603962-0.5603981-0.5603962  s-0.5603943,0.2506466-0.5603943,0.5603962v0.2801991c0,0.3097496,0.2506447,0.5603962,0.5603943,0.5603962  S50.5603676,23.7672615,50.5603676,23.4575119z"/><path d="M50.5603676,31.7709713v-0.5543766c0-0.3097515-0.2506485-0.5603962-0.5603981-0.5603962  s-0.5603943,0.2506447-0.5603943,0.5603962v0.5543766c0,0.3097515,0.2506447,0.5603962,0.5603943,0.5603962  S50.5603676,32.0807228,50.5603676,31.7709713z"/><path d="M49.4395752,36.7587166v0.5543785c0,0.3097496,0.2506447,0.5603943,0.5603943,0.5603943  s0.5603981-0.2506447,0.5603981-0.5603943v-0.5543785c0-0.3097496-0.2506485-0.5603943-0.5603981-0.5603943  S49.4395752,36.448967,49.4395752,36.7587166z"/><path d="M50.5603676,34.5417595v-0.5538292c0-0.3097496-0.2506485-0.5603981-0.5603981-0.5603981  s-0.5603943,0.2506485-0.5603943,0.5603981v0.5538292c0,0.3097496,0.2506447,0.5603943,0.5603943,0.5603943  S50.5603676,34.8515091,50.5603676,34.5417595z"/><path d="M50.5603676,28.9996357v-0.5538292c0-0.3097515-0.2506485-0.5603962-0.5603981-0.5603962  s-0.5603943,0.2506447-0.5603943,0.5603962v0.5538292c0,0.3097496,0.2506447,0.5603962,0.5603943,0.5603962  S50.5603676,29.3093853,50.5603676,28.9996357z"/><path d="M50.5603676,26.2288475v-0.5543766c0-0.3097515-0.2506485-0.5603962-0.5603981-0.5603962  s-0.5603943,0.2506447-0.5603943,0.5603962v0.5543766c0,0.3097496,0.2506447,0.5603962,0.5603943,0.5603962  S50.5603676,26.5385971,50.5603676,26.2288475z"/><path d="M49.4395752,39.5300522v0.280201c0,0.3097496,0.2506447,0.5603943,0.5603943,0.5603943  s0.5603981-0.2506447,0.5603981-0.5603943v-0.280201c0-0.3097496-0.2506485-0.5603943-0.5603981-0.5603943  S49.4395752,39.2203026,49.4395752,39.5300522z"/><path d="M18.2916012,59.9812393l-0.1488552,0.2375145c-0.1641788,0.2626839-0.0848274,0.6085548,0.1773129,0.7727318  c0.0924873,0.0580101,0.1953716,0.0853729,0.297163,0.0853729c0.1866169,0,0.3688545-0.0930328,0.4755707-0.2626839  l0.1488552-0.2375107c0.1640415-0.2624817,0.0847569-0.6081467-0.1769028-0.7723236  c-0.000206-0.0001373-0.000206-0.0002747-0.0004101-0.000412C18.8027439,59.6397476,18.4563255,59.7196503,18.2916012,59.9812393z"/><path d="M28.7218704,44.9742165c0.1866169,0,0.3688545-0.0930328,0.4750233-0.2626839l0.2927856-0.4668159  c0.1646576-0.2620697,0.0853043-0.6079407-0.17663-0.7725983c-0.0000668-0.0000648-0.0000668-0.0000648-0.0001354-0.0001335  c-0.260498-0.1630859-0.6074619-0.0848274-0.7721882,0.1773109l-0.2927837,0.4668159  c-0.1646576,0.2620697-0.0853062,0.6079407,0.1766281,0.772049c0.0000687,0.0000687,0.0000687,0.0000687,0.0001373,0.0001373  C28.5171947,44.9468536,28.620079,44.9742165,28.7218704,44.9742165z"/><path d="M37.980999,30.712019l0.2927856-0.4668159c0.1646576-0.2620697,0.0854416-0.6077347-0.1764908-0.7719803  c-0.0000687-0.0000687-0.000206-0.0001373-0.0002747-0.000206c-0.2610435-0.1658211-0.60746-0.0853729-0.7721863,0.1767654  l-0.2927856,0.4668159c-0.1647263,0.2621384-0.0853729,0.6080074,0.1767654,0.7721863  c0.0000687,0.0000687,0.0001373,0,0.000206,0.0000687c0.0924187,0.0583515,0.1952324,0.0858517,0.2969551,0.0858517  C37.6925926,30.9747047,37.8748283,30.88167,37.980999,30.712019z"/><path d="M36.5170708,33.0455437l0.2927856-0.4662666c0.1647263-0.2621384,0.0853729-0.6080074-0.1762161-0.7727337  c-0.0001373-0.0000687-0.0002747-0.0000687-0.000412-0.0001373c-0.2625504-0.1638374-0.607666-0.0840054-0.7723236,0.1763554  L35.568119,32.449028c-0.1647263,0.2621384-0.0859184,0.6080093,0.1762199,0.7727356  c0.000206,0.0001373,0.0004082,0.0000687,0.0006142,0.000206c0.0928307,0.0577354,0.1955109,0.0857124,0.2970963,0.0857124  C36.2286644,33.307682,36.4109039,33.2146492,36.5170708,33.0455437z"/><path d="M40.9093971,26.0455132l0.2927856-0.466814c0.1647263-0.2620697,0.0853043-0.6077347-0.1766281-0.772049  c-0.0000687,0-0.0000687-0.0001373-0.0001373-0.0001373c-0.2615891-0.1647263-0.6080055-0.0853729-0.7721863,0.1767654  l-0.2927856,0.466814c-0.1647263,0.2621384-0.0853729,0.6080093,0.1767654,0.7721882l0,0  c0.0924873,0.0585556,0.1953735,0.0859184,0.2971649,0.0859184C40.6209908,26.3081989,40.8032303,26.2151661,40.9093971,26.0455132z  "/><path d="M39.4449234,28.3795872l0.293335-0.466814c0.1647263-0.2621384,0.0859184-0.6080093-0.1762199-0.7727356  c-0.000206-0.0001354-0.0003395-0.0000668-0.0005455-0.0002041c-0.2603607-0.1625366-0.6070518-0.0844154-0.7721863,0.176424  l-0.293335,0.466814c-0.1647263,0.2621384-0.0859184,0.6080074,0.1762199,0.7727337  c0.000206,0.0001373,0.0004082,0.0000687,0.0006142,0.000206c0.0922813,0.0577354,0.1955109,0.0857143,0.2970963,0.0857143  C39.156517,28.6417255,39.3387566,28.5486908,39.4449234,28.3795872z"/><path d="M21.2200012,55.3152847l-0.2927856,0.4662666c-0.1647263,0.2615929-0.0853729,0.60746,0.176218,0.7727356  c0.000206,0.0001335,0.0004101,0,0.0006161,0.0001335c0.0928288,0.0577393,0.195509,0.0852394,0.2970943,0.0852394  c0.1866169,0,0.3688545-0.0930367,0.4750233-0.2626877l0.2927856-0.4662666  c0.1647263-0.2615929,0.0854416-0.6072578-0.1761494-0.7726669L21.9927349,55.13797  C21.7305965,54.973793,21.3841782,55.0536919,21.2200012,55.3152847z"/><path d="M22.6839275,52.9817581l-0.2927856,0.4673615c-0.1640415,0.2624817-0.0848255,0.6080093,0.1768341,0.7723236  c0.0002041,0.0001373,0.0002728,0.0002747,0.0004787,0.000412c0.0924873,0.0580101,0.1953716,0.0853729,0.297163,0.0853729  c0.1866169,0,0.3688545-0.0930367,0.4755707-0.2626877l0.2927856-0.4673615  c0.1641102-0.2625504,0.0848255-0.6082115-0.1770401-0.7724609c-0.0001354-0.0000687-0.0001354-0.000206-0.0002728-0.0002747  C23.1956177,52.6402664,22.8491993,52.7201653,22.6839275,52.9817581z"/><path d="M19.7560749,57.6488113l-0.2927856,0.4662666c-0.1647263,0.2615891-0.0859203,0.60746,0.176218,0.7727318  c0.0000687,0.0000687,0.000206,0,0.0002728,0.0000687c0.0931034,0.0578041,0.1957836,0.0853043,0.2974377,0.0853043  c0.1866169,0,0.3688545-0.0930328,0.4750233-0.2626839l0.2927856-0.4662666  c0.1647263-0.2615929,0.0853729-0.6074638-0.176218-0.7727356c-0.0000687-0.0000687-0.0001373,0-0.000206-0.0000687  C20.2665329,57.3074532,19.921278,57.3872871,19.7560749,57.6488113z"/><path d="M30.66082,42.378006l0.2927856-0.4668159c0.1646576-0.2620697,0.0853043-0.6079369-0.17663-0.772049  c-0.0000668-0.0000687-0.0000668-0.0000687-0.0001354-0.0001373c-0.2610455-0.1652718-0.6085567-0.0848236-0.7721882,0.1767654  l-0.2927837,0.4668159c-0.1647263,0.2621384-0.0853729,0.6080093,0.1767654,0.7721863h0.0000687  c0.0924873,0.0585556,0.195303,0.0859222,0.2970943,0.0859222C30.3724136,42.6406937,30.5546513,42.547657,30.66082,42.378006z"/><path d="M26.2684937,49.3780365l0.2927856-0.4662666c0.1647263-0.2621384,0.0859203-0.6080093-0.176218-0.7727356  c-0.0001373-0.0000687-0.000206-0.0000687-0.0003433-0.0001373c-0.2630959-0.1639709-0.6077347-0.084549-0.7723923,0.1763573  l-0.2927837,0.4662666c-0.1647263,0.2621384-0.0853729,0.6080093,0.176218,0.7727356  c0.0002041,0.0001335,0.0004787,0.0000687,0.0006828,0.0002022c0.092968,0.0577393,0.1955109,0.0857162,0.2970276,0.0857162  C25.9800873,49.6401749,26.1623249,49.547142,26.2684937,49.3780365z"/><path d="M33.5886726,37.7120476l0.2927856-0.4662666c0.1647263-0.2621384,0.0859184-0.6080093-0.1762199-0.7727318  c-0.0000687-0.0000687-0.0001373,0-0.000206-0.0000687c-0.2631645-0.1628799-0.6084175-0.0846901-0.7725258,0.1762848  l-0.2927856,0.4662666c-0.1647263,0.2621384-0.0853729,0.6080093,0.1762161,0.7727356  c0.0002747,0.0001373,0.0005493,0.0000687,0.000824,0.000206c0.0927582,0.0577354,0.1953697,0.0857124,0.2968864,0.0857124  C33.3002663,37.9741859,33.482502,37.8811531,33.5886726,37.7120476z"/><path d="M31.6497231,40.3077126c0.1866169,0,0.3688545-0.0930328,0.4750214-0.2626839l0.2927856-0.4668159  c0.1646576-0.2620697,0.0853043-0.6079407-0.1766281-0.772049c-0.0000687-0.0000687-0.0000687-0.0000687-0.0001373-0.0001373  c-0.2610435-0.1658211-0.60746-0.0853729-0.7721863,0.1767654l-0.2927837,0.4668159  c-0.1646576,0.2620697-0.0853062,0.6079369,0.1766281,0.7725945c0.0000687,0.0000687,0.0000687,0.0000687,0.0001373,0.0001373  C31.4450474,40.2803497,31.5479317,40.3077126,31.6497231,40.3077126z"/><path d="M27.7329674,47.0445099l0.2922382-0.4668121c0.1646576-0.2620049,0.0853729-0.6076698-0.1764927-0.7719154  c-0.0001373-0.0000687-0.0001373-0.000206-0.0002728-0.0002747c-0.261591-0.1658173-0.6080093-0.0848236-0.7721882,0.1767654  l-0.2927837,0.4668159c-0.1647263,0.2621384-0.0853729,0.6080093,0.1767654,0.7721863  c0.0000687,0.0000687,0.0002041,0,0.0002728,0.0000687c0.0924187,0.0583534,0.1951675,0.0858536,0.2968903,0.0858536  C27.4440136,47.3071976,27.6262512,47.2141609,27.7329674,47.0445099z"/><path d="M41.8983002,23.9752216c0.1866188,0,0.3688545-0.0930347,0.4755707-0.2626858l0.1488571-0.2375126  c0.1641769-0.2621384,0.0848236-0.6080074-0.1773148-0.7727337c-0.2604942-0.163084-0.6069107-0.0837307-0.7727318,0.1773129  l-0.1488571,0.2375126c-0.1641083,0.2620697-0.0848236,0.6077328,0.1771088,0.7725277  c0.0000687,0.0000687,0.0001373,0.0001373,0.000206,0.000206C41.6936264,23.9478588,41.7965088,23.9752216,41.8983002,23.9752216z"/><path d="M28.8586864,35.074791h-0.2801991c-0.3097496,0-0.5603962,0.2506485-0.5603962,0.5603981  s0.2506466,0.5603981,0.5603962,0.5603981h0.2801991c0.3097496,0,0.5603962-0.2506485,0.5603962-0.5603981  c0-0.0000687,0-0.0000687,0-0.0001373C29.4189453,35.3253708,29.1683674,35.074791,28.8586864,35.074791z"/><path d="M36.8585625,36.1955872h0.5713425c0.3097496,0,0.5603981-0.2506485,0.5603981-0.5603981  c0-0.0000687,0-0.0000687,0-0.0001373c-0.0001373-0.3096809-0.2507172-0.5602608-0.5603981-0.5602608h-0.5713425  c-0.3096809,0-0.560257,0.2505798-0.5603943,0.5602608c0,0.0000687,0,0.0000687,0,0.0001373  C36.2981682,35.9449387,36.5488129,36.1955872,36.8585625,36.1955872z"/><path d="M62.5705833,36.1955872h0.5713425c0.3097496,0,0.5603943-0.2506485,0.5603943-0.5603981  c0-0.0000687,0-0.0000687,0-0.0001373c-0.0001373-0.3096809-0.2507133-0.5602608-0.5603943-0.5602608h-0.5713425  c-0.3096809,0-0.5602608,0.2505798-0.5603981,0.5602608c0,0.0000687,0,0.0000687,0,0.0001373  C62.0101852,35.9449387,62.2608337,36.1955872,62.5705833,36.1955872z"/><path d="M59.7138748,36.1955872h0.5713425c0.3097496,0,0.5603943-0.2506485,0.5603943-0.5603981  c0-0.0000687,0-0.0000687,0-0.0001373c-0.0001373-0.3096809-0.2507133-0.5602608-0.5603943-0.5602608h-0.5713425  c-0.3096809,0-0.5602608,0.2505798-0.5603981,0.5602608c0,0.0000687,0,0.0000687,0,0.0001373  C59.1534767,35.9449387,59.4041252,36.1955872,59.7138748,36.1955872z"/><path d="M56.8571663,36.1955872h0.5713425c0.3097496,0,0.5603943-0.2506485,0.5603943-0.5603981  c0-0.0000687,0-0.0000687,0-0.0001373c-0.0001373-0.3096809-0.2507133-0.5602608-0.5603943-0.5602608h-0.5713425  c-0.3096809,0-0.5602608,0.2505798-0.5603981,0.5602608c0,0.0000687,0,0.0000687,0,0.0001373  C56.2967682,35.9449387,56.5474167,36.1955872,56.8571663,36.1955872z"/><path d="M51.1426544,36.1955872h0.5713425c0.3097496,0,0.5603943-0.2506485,0.5603943-0.5603981  c0-0.0000687,0-0.0000687,0-0.0001373c-0.0001373-0.3096809-0.2507133-0.5602608-0.5603943-0.5602608h-0.5713425  c-0.3096809,0-0.5602608,0.2505798-0.5603981,0.5602608c0,0.0000687,0,0.0000687,0,0.0001373  C50.5822563,35.9449387,50.8329048,36.1955872,51.1426544,36.1955872z"/><path d="M48.2859459,36.1955872h0.5713425c0.3097496,0,0.5603943-0.2506485,0.5603943-0.5603981  c0-0.0000687,0-0.0000687,0-0.0001373c-0.0001373-0.3096809-0.2507133-0.5602608-0.5603943-0.5602608h-0.5713425  c-0.3096809,0-0.5602608,0.2505798-0.5603981,0.5602608c0,0.0000687,0,0.0000687,0,0.0001373  C47.7255478,35.9449387,47.9761963,36.1955872,48.2859459,36.1955872z"/><path d="M53.9993629,36.1955872h0.5713425c0.3097496,0,0.5603943-0.2506485,0.5603943-0.5603981  c0-0.0000687,0-0.0000687,0-0.0001373c-0.0001373-0.3096809-0.2507133-0.5602608-0.5603943-0.5602608h-0.5713425  c-0.3096809,0-0.5602608,0.2505798-0.5603981,0.5602608c0,0.0000687,0,0.0000687,0,0.0001373  C53.4389648,35.9449387,53.6896133,36.1955872,53.9993629,36.1955872z"/><path d="M65.4272919,36.1955872h0.5713425c0.0151138,0,0.027771-0.0074577,0.0426178-0.0086212l-0.3914337-0.6238098  l0.3914337,0.6238098c0.288681-0.0228462,0.5177765-0.2571449,0.5177765-0.5517769c0-0.0000687,0-0.0000687,0-0.0001373  c-0.0001373-0.3096809-0.2507172-0.5602608-0.5603943-0.5602608h-0.0958405  c-0.0021896-0.0976181-0.0204544-0.1953697-0.076004-0.2840271l-0.2922363-0.4662666  c-0.1641769-0.2615929-0.5089493-0.3409462-0.7727356-0.1773148c-0.0001373,0.0000687-0.000206,0.0002747-0.0003433,0.0003433  c-0.2624054,0.1649323-0.3410797,0.5103912-0.1769638,0.7723923l0.2922363,0.4662666  c0.0086823,0.0138855,0.0242844,0.0190163,0.0339279,0.0318794c-0.0280457,0.0666962-0.0437775,0.1400299-0.0437775,0.2169876  c0,0.0000687,0,0.0000687,0,0.0001373C64.8668976,35.9449387,65.1175385,36.1955872,65.4272919,36.1955872z"/><path d="M45.4292374,36.1955872h0.5713425c0.3097496,0,0.5603943-0.2506485,0.5603943-0.5603981  c0-0.0000687,0-0.0000687,0-0.0001373c-0.0001373-0.3096809-0.2507133-0.5602608-0.5603943-0.5602608h-0.5713425  c-0.3096809,0-0.5602608,0.2505798-0.5603981,0.5602608c0,0.0000687,0,0.0000687,0,0.0001373  C44.8688393,35.9449387,45.1194878,36.1955872,45.4292374,36.1955872z"/><path d="M68.2839966,36.1955872h0.5713425c0.3097534,0,0.5604019-0.2506485,0.5604019-0.5603981  c0-0.0000687,0-0.0000687,0-0.0001373c-0.0001373-0.3096809-0.2507172-0.5602608-0.5604019-0.5602608h-0.5713425  c-0.3096771,0-0.560257,0.2505798-0.5603943,0.5602608c0,0.0000687,0,0.0000687,0,0.0001373  C67.7236023,35.9449387,67.9742508,36.1955872,68.2839966,36.1955872z"/><path d="M31.7159424,35.074791h-0.5713425c-0.3096828,0-0.5602608,0.2505798-0.5603962,0.5602608  c0,0.0000687,0,0.0000687,0,0.0001373c0,0.3097496,0.2506447,0.5603981,0.5603962,0.5603981h0.5713425  c0.3097496,0,0.5603943-0.2506485,0.5603943-0.5603981c0-0.0000687,0-0.0000687,0-0.0001373  C32.2761993,35.3253708,32.0256233,35.074791,31.7159424,35.074791z"/><path d="M34.5726509,36.1955872c0.3097496,0,0.5603943-0.2506485,0.5603943-0.5603981c0-0.0000687,0-0.0000687,0-0.0001373  c-0.0000687-0.0974121-0.0313988-0.184494-0.0751114-0.2641907l0.2879982-0.4591522  c0.1647263-0.2621384,0.0853729-0.6080093-0.1767654-0.7721863l0,0c-0.2621384-0.1647263-0.60746-0.0848274-0.7727356,0.1767654  l-0.2927856,0.4668121c-0.0569839,0.091053-0.0747681,0.1916122-0.0755882,0.2916908h-0.0267487  c-0.3096809,0-0.5602608,0.2505798-0.5603981,0.5602608c0,0.0000687,0,0.0000687,0,0.0001373  c0,0.2712364,0.1960564,0.486515,0.4518356,0.5385056c0.0363235,0.0073891,0.0700493,0.0218925,0.1085625,0.0218925H34.5726509z"/><path d="M39.715271,36.1955872h0.5713425c0.3097496,0,0.5603981-0.2506485,0.5603981-0.5603981c0-0.0000687,0-0.0000687,0-0.0001373  c-0.0001373-0.3096809-0.2507172-0.5602608-0.5603981-0.5602608H39.715271c-0.3096809,0-0.560257,0.2505798-0.5603943,0.5602608  c0,0.0000687,0,0.0000687,0,0.0001373C39.1548767,35.9449387,39.4055214,36.1955872,39.715271,36.1955872z"/><path d="M42.5719795,36.1955872h0.5713425c0.3097496,0,0.5603981-0.2506485,0.5603981-0.5603981  c0-0.0000687,0-0.0000687,0-0.0001373c-0.0001373-0.3096809-0.2507172-0.5602608-0.5603981-0.5602608h-0.5713425  c-0.3096809,0-0.560257,0.2505798-0.5603943,0.5602608c0,0.0000687,0,0.0000687,0,0.0001373  C42.0115852,35.9449387,42.2622299,36.1955872,42.5719795,36.1955872z"/><path d="M71.1407089,36.1955872h0.2801971c0.3097534,0,0.5603943-0.2506485,0.5603943-0.5603981  s-0.2506409-0.5603981-0.5603943-0.5603981h-0.2801971c-0.3096848,0-0.560257,0.2505798-0.5603943,0.5602608  c0,0.0000687,0,0.0000687,0,0.0001373C70.5803146,35.9449387,70.8309555,36.1955872,71.1407089,36.1955872z"/><path d="M21.2949753,64.8606339l-0.2397003,0.1444702c-0.2648754,0.1598053-0.3502483,0.5045776-0.1904469,0.769455  c0.1050739,0.1751251,0.290596,0.2714386,0.4804955,0.2714386c0.0985069,0,0.1981087-0.026268,0.2889538-0.079895  l0.2397003-0.1444778c0.2648067-0.1597366,0.3501797-0.5041656,0.1905842-0.7691116  c-0.0000668-0.0000687-0.0000668-0.0002747-0.0001354-0.0003433C21.9046249,64.7851105,21.5598507,64.7019272,21.2949753,64.8606339  z"/><path d="M31.2491264,60.1760674l0.4936314-0.2966156c0.2654209-0.1598015,0.3513432-0.5034828,0.1920891-0.7694511  c-0.0001373-0.000206-0.0003433-0.0002747-0.0004787-0.0004807c-0.1599388-0.2643967-0.5026608-0.3485374-0.768425-0.1910629  l-0.4936314,0.2966156c-0.2654209,0.1598015-0.3513412,0.5034828-0.1920891,0.7694511  c0.0000687,0.0001373,0.0003433,0.000206,0.000412,0.0003433c0.1051426,0.1748505,0.29039,0.2710991,0.4806328,0.2710991  C31.059227,60.2559662,31.1588287,60.2296982,31.2491264,60.1760674z"/><path d="M28.6977901,60.4037285l-0.493082,0.2966156c-0.2648754,0.1598015-0.3507957,0.5045738-0.1909962,0.7694511  c0.0000687,0.0001373,0.0002747,0.0001373,0.0003433,0.0002708c0.1051426,0.1748505,0.29039,0.2711716,0.480154,0.2711716  c0.0985069,0,0.1981087-0.0262718,0.2884064-0.0799026l0.493084-0.2966156  c0.2648067-0.1598015,0.3508625-0.5045052,0.1910629-0.7693138c0-0.0000687-0.0000687-0.0000687-0.0000687-0.0001373  C29.3074398,60.3292999,28.9621181,60.2450218,28.6977901,60.4037285z"/><path d="M33.4288712,58.7706985c0.0985069,0,0.1981087-0.0262718,0.2889557-0.0809975l0.4936295-0.2977104  c0.2648773-0.1597977,0.3502502-0.503273,0.1904488-0.7682877v-0.0000687  c-0.1598015-0.2659683-0.5045776-0.3513412-0.7694511-0.1904449l-0.4936295,0.2977104  c-0.2648087,0.1597328-0.3501129,0.5032768-0.1905174,0.7680817c0.0000687,0.0000687,0,0.000206,0.0000687,0.0002747  C33.0534515,58.6743774,33.2389717,58.7706985,33.4288712,58.7706985z"/><path d="M26.2301846,61.8900909l-0.4936295,0.2977104c-0.2648754,0.1598015-0.3502483,0.5034828-0.1904469,0.7683563l0,0  c0.1050739,0.1751251,0.290596,0.2714424,0.4804955,0.2714424c0.0985069,0,0.1981087-0.026268,0.2889538-0.0809937  l0.4936314-0.2977104c0.2648067-0.1597328,0.3501797-0.5031395,0.1905842-0.7680855  c-0.0000687-0.0000648-0.0000687-0.0002022-0.0001373-0.0002708C26.8398361,61.8145676,26.49506,61.7281036,26.2301846,61.8900909z"/><path d="M23.7636757,63.3753624l-0.4936314,0.2966156c-0.2654228,0.1598015-0.3513432,0.5034828-0.1920891,0.7694511  c0.0001373,0.000206,0.0004101,0.0003433,0.0005474,0.0005493c0.1052113,0.1747818,0.2903233,0.2708893,0.4804955,0.2708893  c0.0979614,0,0.1975632-0.026268,0.2878609-0.079895l0.4936295-0.2966156  c0.2654228-0.1598053,0.3513432-0.5034866,0.1920891-0.769455c-0.0000668-0.0001373-0.0002041-0.000206-0.0002728-0.0003395  C24.372982,63.30196,24.0295067,63.2178192,23.7636757,63.3753624z"/><path d="M36.1843376,57.2044334l0.4936295-0.2966156c0.2654228-0.1598015,0.3513412-0.5034828,0.1920891-0.7694511  c-0.0001373-0.000206-0.0003433-0.0002747-0.0004768-0.0004807c-0.158844-0.2654877-0.5026627-0.3485374-0.768425-0.1910629  l-0.4936333,0.2966156c-0.265419,0.1598015-0.3513412,0.5034828-0.1920891,0.7694511  c0.0000687,0.0001373,0.0002747,0.000206,0.0003433,0.0003433c0.1051445,0.1748505,0.29039,0.2710991,0.4807014,0.2710991  C35.9944382,57.2843323,36.0940399,57.2580643,36.1843376,57.2044334z"/><path d="M38.6519432,55.719162l0.2402458-0.144474c0.2648773-0.1598015,0.3507957-0.5045776,0.1915436-0.7694511  c-0.160347-0.267067-0.506218-0.3491554-0.7694511-0.1915436l-0.2402496,0.1444778  c-0.2648735,0.1598015-0.3507919,0.5045738-0.1915398,0.7694511c0.0000687,0.0000687,0.0001373,0.0001373,0.000206,0.000206  c0.1055527,0.1750526,0.2904587,0.2712364,0.4808388,0.2712364C38.4620438,55.7990646,38.5616455,55.7727966,38.6519432,55.719162z"/><path d="M27.2847595,39.6416969l-0.1877117-0.2074127c-0.2074108-0.2293053-0.5620365-0.2484589-0.7913399-0.0394058  c-0.2293034,0.2074127-0.2473621,0.5620384-0.0394039,0.7913437l0.1877117,0.2074127  c0.1105461,0.1220398,0.2626858,0.1844254,0.4153728,0.1844254c0.133873,0,0.2682266-0.0476112,0.3754902-0.1447487  c0.0001354-0.0001373,0.0003414-0.0001373,0.0004787-0.0002747C27.474659,40.2256241,27.4927197,39.8709984,27.2847595,39.6416969z"/><path d="M29.890274,44.1982002l0.3819904,0.4224854c0.1110935,0.1220398,0.2632332,0.1844292,0.4159184,0.1844292  c0.134079,0,0.2687054-0.0476112,0.3759689-0.1444778c0.0000687-0.0000687,0.0000687-0.0000687,0.0001373-0.0001373  c0.2290974-0.2078896,0.2471581-0.5619698,0.039814-0.7917519l-0.3819904-0.4224854  c-0.2083702-0.2280731-0.5613537-0.2467461-0.7913399-0.0402908c-0.0001373,0.0001335-0.0004101,0.0002022-0.0005474,0.0003395  C29.700922,43.6142731,29.6828632,43.9683495,29.890274,44.1982002z"/><path d="M35.6190147,50.5371361l0.381443,0.4224892c0.1105461,0.1225853,0.2632332,0.1849747,0.4159203,0.1849747  c0.134079,0,0.268158-0.0476112,0.3754196-0.1444778c0.0001373-0.0001373,0.0001373-0.0002747,0.0002747-0.000412  c0.2294388-0.2074127,0.2474976-0.5612144,0.0402222-0.7909279l-0.3814392-0.4224892  c-0.207962-0.2309418-0.5614929-0.2473602-0.7913437-0.0404968c-0.0000687,0.0000687-0.0001373,0.000206-0.000206,0.0002747  C35.4296608,49.9535522,35.4116707,50.3073578,35.6190147,50.5371361z"/><path d="M33.7090721,48.4247055l0.3819885,0.4224854c0.1110916,0.1220398,0.2632332,0.1844292,0.4159164,0.1844292  c0.134079,0,0.2687073-0.0476112,0.3759689-0.1444778c0.0000687-0.0000687,0.0000687-0.0001373,0.0001373-0.000206  c0.2290993-0.2078896,0.2471581-0.5619011,0.039814-0.7916832l-0.3819885-0.4224854  c-0.2083702-0.22855-0.5625839-0.2467461-0.7912712-0.0402908c-0.000206,0.0001373-0.000412,0.0002022-0.000618,0.0003395  C33.5197182,47.8407784,33.5016594,48.1948547,33.7090721,48.4247055z"/><path d="M31.7996731,46.3111801l0.3819866,0.4224854c0.1110954,0.1220398,0.2632332,0.1844292,0.4159203,0.1844292  c0.134079,0,0.2687073-0.0476151,0.3759689-0.1444778l0,0c0.2293053-0.207962,0.247364-0.5620384,0.0399513-0.7918892  l-0.3819885-0.4224854c-0.2078247-0.2291679-0.5621758-0.2466812-0.7914791-0.040226  c-0.0001354,0.0001373-0.0002728,0.0001373-0.0004101,0.0002747C31.6103191,45.7272491,31.5922604,46.0813293,31.7996731,46.3111801  z"/><path d="M29.1947041,41.7552223l-0.3819885-0.4224854c-0.2084389-0.2291679-0.5627899-0.2468185-0.7915459-0.0401573  c-0.0001373,0.0000687-0.000206,0.0001373-0.0003433,0.000206c-0.2293015,0.2079582-0.2473621,0.5620384-0.0399494,0.7918892  l0.3819885,0.4224854c0.1110954,0.1220398,0.2632332,0.1844254,0.4159203,0.1844254  c0.134079,0,0.2687054-0.0476112,0.3759689-0.144474l0,0C29.384058,42.3391495,29.4021168,41.9850731,29.1947041,41.7552223z"/><path d="M37.5284119,52.650116l0.1877136,0.207962c0.1105461,0.1225853,0.2632332,0.1849747,0.4159164,0.1849747  c0.134079,0,0.268158-0.0481606,0.3754234-0.1444778c0.2298508-0.2068672,0.2479095-0.5614929,0.0404968-0.7913437  l-0.1877098-0.2079582c-0.2074127-0.2303963-0.5620384-0.2479095-0.7913437-0.0404968  c-0.0001335,0.0001373-0.0001335,0.0002747-0.0002708,0.000412C37.3391953,52.0660515,37.3211365,52.4204025,37.5284119,52.650116z"/><path d="M50.5603676,61.1086006v-0.2801971c0-0.3097496-0.2506485-0.5603981-0.5603981-0.5603981  s-0.5603943,0.2506485-0.5603943,0.5603981v0.2801971c0,0.3097496,0.2506447,0.5603981,0.5603943,0.5603981  S50.5603676,61.4183502,50.5603676,61.1086006z"/><path d="M50.5603676,69.1456909V68.609375c0-0.3097458-0.2506485-0.5603943-0.5603981-0.5603943  s-0.5603943,0.2506485-0.5603943,0.5603943v0.5363159c0,0.3097534,0.2506447,0.5604019,0.5603943,0.5604019  S50.5603676,69.4554443,50.5603676,69.1456909z"/><path d="M50.5603676,71.8250885v-0.5363159c0-0.3097534-0.2506485-0.5603943-0.5603981-0.5603943  s-0.5603943,0.2506409-0.5603943,0.5603943v0.5363159c0,0.3097534,0.2506447,0.5603943,0.5603943,0.5603943  S50.5603676,72.1348419,50.5603676,71.8250885z"/><path d="M50.5603676,66.466301V65.931076c0-0.3097534-0.2506485-0.5603943-0.5603981-0.5603943  s-0.5603943,0.2506409-0.5603943,0.5603943v0.5352249c0,0.3097458,0.2506447,0.5603943,0.5603943,0.5603943  S50.5603676,66.7760468,50.5603676,66.466301z"/><path d="M49.4395752,73.9681702v0.5352173c0,0.3097534,0.2506447,0.5604019,0.5603943,0.5604019  s0.5603981-0.2506485,0.5603981-0.5604019v-0.5352173c0-0.3097534-0.2506485-0.5604019-0.5603981-0.5604019  S49.4395752,73.6584167,49.4395752,73.9681702z"/><path d="M50.5603676,63.7879982v-0.5363197c0-0.3097496-0.2506485-0.5603943-0.5603981-0.5603943  s-0.5603943,0.2506447-0.5603943,0.5603943v0.5363197c0,0.3097496,0.2506447,0.5603981,0.5603943,0.5603981  S50.5603676,64.0977478,50.5603676,63.7879982z"/><path d="M49.4395752,76.6464691v0.2801971c0,0.3097534,0.2506447,0.5603943,0.5603943,0.5603943  s0.5603981-0.2506409,0.5603981-0.5603943v-0.2801971c0-0.3097534-0.2506485-0.5603943-0.5603981-0.5603943  S49.4395752,76.3367157,49.4395752,76.6464691z"/><path d="M21.5510941,41.724575l-0.1203976-0.2533836c-0.1318913-0.2791023-0.4690037-0.3989525-0.7464657-0.2659683  c-0.2796516,0.1329842-0.3989544,0.4673615-0.2659702,0.7464676l0.1203976,0.2533798  c0.0957718,0.2019424,0.2971649,0.3201485,0.5067654,0.3201485c0.0804482,0,0.1625366-0.0175133,0.2397003-0.0541801  c0.000206-0.0001335,0.0003433-0.0002708,0.0005474-0.0004082C21.5648441,42.3375092,21.6839409,42.0034752,21.5510941,41.724575z"/><path d="M27.4675446,54.1649399l-0.2369633-0.4980087c-0.1329861-0.2790375-0.4661312-0.3984756-0.746809-0.264946  c-0.0000668,0-0.0001354,0.0000687-0.0002041,0.0000687c-0.2796516,0.1324387-0.398407,0.4673615-0.2654228,0.7464676  l0.2369652,0.4980087c0.0963173,0.2013931,0.297163,0.3195992,0.5067654,0.3195992  c0.0802422,0,0.1621933-0.0174446,0.2397003-0.0545883c0.0002041-0.0000687,0.0003414-0.0000687,0.0005474-0.0001373  C27.4817734,54.778965,27.6005306,54.4440422,27.4675446,54.1649399z"/><path d="M38.0499535,79.0314407l0.2369652,0.4980087c0.0963173,0.2013855,0.2971649,0.3195953,0.5067635,0.3195953  c0.0803795,0,0.162468-0.0175095,0.2401123-0.0547256c0.0000687,0,0.0000687,0,0.0001373,0  c0.2796516-0.1324387,0.398407-0.4673615,0.2654228-0.7464676l-0.2369652-0.4980087  c-0.1334648-0.2788925-0.466404-0.398201-0.7463989-0.265007c-0.0002022,0.0000687-0.0004082,0.0000687-0.0006142,0.0001373  C38.0357246,78.4174118,37.9169693,78.7523346,38.0499535,79.0314407z"/><path d="M26.2838173,51.6776314l-0.2364178-0.4980087c-0.1318893-0.2796516-0.466814-0.3978577-0.7464657-0.2659683  c-0.0001354,0.0000687-0.0002041,0.0001373-0.0003414,0.000206c-0.0491848,0.0233269-0.0866737,0.0593071-0.1254597,0.0937843  c0.0225067-0.2066574-0.0665607-0.4177628-0.2544765-0.5355644l-0.0000687-0.0000648  c-0.2610455-0.1652756-0.6080093-0.0853729-0.7721882,0.1767654l-0.2927837,0.4668121  c-0.1646576,0.2620697-0.0854416,0.6077347,0.1764908,0.7725296c0.0000687,0.0000687,0.000206,0.0001373,0.0002747,0.000206  c0.0924873,0.0580101,0.1953716,0.0853729,0.297163,0.0853729c0.1866169,0,0.3688545-0.0930367,0.4750233-0.2626877  l0.1795025-0.2861481c0.0006161,0.079216,0.0146389,0.1589775,0.0508957,0.2352524l0.2364159,0.498558  c0.0957718,0.2013931,0.2971649,0.3195992,0.5067654,0.3195992c0.0804482,0,0.1619892-0.0175095,0.2397003-0.0536308  c0.0003433-0.0001373,0.0005474-0.0004768,0.0008907-0.0006142C26.297636,52.2900887,26.4166641,51.9569397,26.2838173,51.6776314z"/><path d="M35.6835938,74.0546341l0.2369614,0.4980087c0.0963211,0.2013931,0.2971649,0.319603,0.5067673,0.319603  c0.0803108,0,0.1621933-0.0176468,0.239975-0.054657c0.0000687-0.0000687,0.0002022,0,0.0002708-0.0000687  c0.2796516-0.1324387,0.398407-0.4673615,0.2654228-0.7464676l-0.2369652-0.4980087  c-0.1329155-0.2778702-0.465992-0.398201-0.7466011-0.2650146c-0.0001373,0.0000687-0.0002747,0.0000687-0.000412,0.0001373  C35.6693649,73.4406052,35.5506058,73.775528,35.6835938,74.0546341z"/><path d="M23.9174557,46.7002831l-0.2364178-0.4974632c-0.1324368-0.2784882-0.466198-0.3968315-0.7468758-0.2654877  c-0.0000687,0-0.0000687,0.0000687-0.0001373,0.0000687c-0.2791023,0.1329842-0.398407,0.4673615-0.2654209,0.7470131  l0.2364159,0.4974594c0.0957718,0.2013931,0.2971649,0.319603,0.5067654,0.319603  c0.0804482,0,0.1625366-0.0175133,0.2402477-0.0541801c0.0000687,0,0.0000687-0.0000687,0.0001373-0.0000687  C23.9310684,47.314106,24.0504398,46.979866,23.9174557,46.7002831z"/><path d="M29.8339062,59.1417427l-0.2369633-0.4980087c-0.1329174-0.277874-0.46661-0.399231-0.7466717-0.264946  c-0.0001373,0.0000687-0.0002041,0-0.0003414,0.0000687c-0.2796516,0.1324387-0.398407,0.4673615-0.2654228,0.7464676  l0.2369652,0.4980087c0.0963173,0.2013893,0.297163,0.3195992,0.5067654,0.3195992  c0.0803089,0,0.1623306-0.0176468,0.2399044-0.054657c0.0001373-0.0000687,0.000206,0,0.0003433-0.0000687  C29.848135,59.7557678,29.9668922,59.420845,29.8339062,59.1417427z"/><path d="M28.6507263,56.6538887L28.4137611,56.15588c-0.1334629-0.2789688-0.466814-0.3992958-0.7464657-0.2650146  c-0.0001354,0.0000687-0.0004101,0.0000687-0.0005474,0.0001373c-0.2796497,0.1324387-0.398407,0.4673615-0.2654209,0.7464676  l0.2369633,0.4980087c0.0963192,0.2013931,0.2971649,0.3195992,0.5067654,0.3195992  c0.0803795,0,0.1623993-0.0176468,0.2400436-0.054657c0.0000668-0.0000687,0.0001354,0,0.0002041-0.0000687  C28.6649551,57.2679138,28.7837105,56.932991,28.6507263,56.6538887z"/><path d="M39.2336807,81.5203857l0.2369652,0.4969101c0.0957718,0.2024918,0.2966156,0.319603,0.506218,0.319603  c0.0801735,0,0.1626053-0.0175781,0.2400436-0.0545197c0.0002747-0.0001373,0.0004768-0.0000687,0.0007515-0.000206  c0.2791023-0.1335297,0.3978615-0.4673615,0.264328-0.7464676l-0.2369652-0.4969101  c-0.1322327-0.2797165-0.4668159-0.398819-0.745575-0.2652206c-0.0004807,0.000206-0.0009575,0.0001373-0.0014381,0.0003433  C39.2189064,80.9074554,39.1001511,81.2412796,39.2336807,81.5203857z"/><path d="M25.1006355,49.1892319l-0.2364159-0.4980087c-0.1324387-0.2801971-0.4657211-0.3973122-0.7464657-0.2659683  c-0.0001373,0.0000648-0.0002747,0.0002022-0.0004101,0.0002708c-0.2793789,0.1326447-0.3984756,0.4666786-0.2655602,0.7461929  l0.2364178,0.4980087c0.0957699,0.2019386,0.297163,0.3201485,0.5067654,0.3201485  c0.0804462,0,0.1619892-0.0175133,0.2397003-0.0541801c0.0002041-0.0001373,0.0004101-0.0002708,0.0006161-0.0004082  C25.1144543,49.8027115,25.2334843,49.4686775,25.1006355,49.1892319z"/><path d="M22.7342739,44.2118835l-0.2364159-0.4974632c-0.1329861-0.2785568-0.4667473-0.3967667-0.7469444-0.2654228H21.750845  c-0.2791042,0.1329842-0.398407,0.4673615-0.2654228,0.7470131l0.2364178,0.4974632  c0.0957699,0.2013893,0.297163,0.3195992,0.5067654,0.3195992c0.0804462,0,0.1625366-0.0175133,0.2402477-0.0541801h0.0000687  C22.748024,44.8259087,22.86726,44.4915314,22.7342739,44.2118835z"/><path d="M33.3834496,66.6063995l-0.2369652-0.4980087c-0.1334648-0.2789688-0.465992-0.399231-0.7466011-0.264946  c-0.0001373,0.0000687-0.0002747,0-0.000412,0.0000687c-0.2796516,0.1324387-0.398407,0.4673615-0.2654228,0.7464676  l0.2369652,0.4980087c0.0963173,0.2013931,0.2971649,0.3195953,0.5067673,0.3195953  c0.080307,0,0.1623306-0.0176468,0.2399025-0.054657c0.0001373-0.0000687,0.000206,0,0.0003433-0.0000687  C33.3976784,67.2204285,33.5164337,66.885498,33.3834496,66.6063995z"/><path d="M32.2002678,64.1185455l-0.2369633-0.4980125c-0.1334648-0.2778015-0.46702-0.3992958-0.7464657-0.2650108  c-0.000206,0.0000687-0.0003433,0.0000687-0.0005474,0.0001373c-0.2796516,0.1324387-0.398407,0.4673615-0.2654228,0.7464676  l0.2369652,0.4980087c0.0963173,0.2013931,0.297163,0.3195953,0.5067654,0.3195953  c0.0803776,0,0.1623993-0.0174408,0.2400417-0.054657c0.0000687,0,0.0001373-0.0000687,0.000206-0.0000687  C32.2144966,64.7325745,32.333252,64.397644,32.2002678,64.1185455z"/><path d="M31.0165405,61.6295929l-0.2369652-0.4969139c-0.1322308-0.2797852-0.4664726-0.397789-0.7458496-0.2651482  c-0.0004101,0.000206-0.0007515,0.0000687-0.0011635,0.0002747c-0.2791023,0.1335335-0.3978596,0.4673615-0.2643261,0.7464676  l0.2369633,0.4969139c0.0957718,0.2024841,0.2966175,0.3195992,0.506218,0.3195992  c0.0801048,0,0.1623993-0.0175819,0.239769-0.0545197c0.0003414-0.0001373,0.0006847-0.0000687,0.0010262-0.000206  C31.0313168,62.242527,31.1500721,61.908699,31.0165405,61.6295929z"/><path d="M36.867321,76.5435867l0.2369652,0.4969101c0.095768,0.2024841,0.2966156,0.319603,0.506218,0.319603  c0.0801048,0,0.162262-0.0175858,0.2398376-0.0545197c0.0002708-0.0001373,0.0006828-0.0000687,0.0009575-0.000206  c0.2791023-0.1335373,0.3978577-0.4673615,0.2643242-0.7464676l-0.2369614-0.4969177  c-0.132782-0.2797852-0.466404-0.397789-0.7457848-0.265213c-0.0004082,0.000206-0.0008202,0.0001373-0.0012283,0.0003433  C36.8525429,75.9306488,36.7337875,76.2644806,36.867321,76.5435867z"/><path d="M35.7498093,71.5831985l-0.2369614-0.4980087c-0.1329193-0.2789001-0.4669533-0.398201-0.7463989-0.2650146  c-0.000206,0.0000687-0.000412,0.0000687-0.0006142,0.0001373c-0.2796516,0.1324387-0.398407,0.4673615-0.2654228,0.7464676  l0.2369652,0.4980087c0.0963173,0.2013931,0.2971611,0.319603,0.5067635,0.319603  c0.0803795,0,0.162468-0.0174484,0.2401123-0.054657c0.0000687,0,0.0000687-0.0000687,0.0001373-0.0000687  C35.7640381,72.1972275,35.8827972,71.8623047,35.7498093,71.5831985z"/><path d="M34.566082,69.0942535l-0.2369652-0.4969177c-0.1322289-0.2786942-0.466404-0.397789-0.7457809-0.2651443  c-0.0004082,0.0001984-0.0008202,0.0000687-0.0012321,0.000267c-0.2791023,0.1335373-0.3978577,0.4673615-0.2643242,0.7464676  l0.2369614,0.4969177c0.0957718,0.2013931,0.2966194,0.3195953,0.506218,0.3195953  c0.0801048,0,0.162468-0.0175781,0.2398376-0.0545197c0.0003433-0.0001373,0.000618-0.0000687,0.0009575-0.000206  C34.5808601,69.7071838,34.6996155,69.3733521,34.566082,69.0942535z"/><path d="M40.4168625,84.0082397l0.1203995,0.2528381c0.0963173,0.2013855,0.2971611,0.3195953,0.5067635,0.3195953  c0.0804482,0,0.1625366-0.0175095,0.2402496-0.0547256c0.2796478-0.1324387,0.3984032-0.4673615,0.265419-0.7464676  l-0.1203957-0.2528305c-0.1329155-0.2790375-0.4659271-0.399231-0.7467384-0.264946  c-0.0000687,0.0000687-0.000206,0-0.0002747,0.0000687C40.4026337,83.3942108,40.2838783,83.7291336,40.4168625,84.0082397z"/><path d="M81.0133209,78.4896469l-0.2429886,0.1390076c-0.269249,0.1532288-0.3622894,0.4958191-0.207962,0.7639771  c0.0000687,0.0001373,0.000206,0.0001373,0.0002747,0.0002747c0.1029587,0.1814117,0.2921066,0.2821121,0.4856949,0.2821121  c0.0952225,0,0.1904526-0.0240784,0.2780151-0.0744247l0.242981-0.1390076  c0.2692566-0.1532364,0.3622894-0.4958191,0.207962-0.7639771C81.6229706,78.4261627,81.2770996,78.3364105,81.0133209,78.4896469z"/><path d="M65.2160492,87.5293274l-0.4575119,0.2615891c-0.2690506,0.1530991-0.3619461,0.4952698-0.208168,0.7633591  c0.0001373,0.000206,0.0000687,0.000412,0.000206,0.000618c0.10289,0.1805954,0.2922363,0.2823868,0.4859695,0.2823868  c0.0952225,0,0.1904449-0.0240784,0.2780075-0.0744247l0.4575119-0.2615967  c0.2692566-0.1532288,0.3622894-0.4958191,0.207962-0.7639771c-0.0001373-0.0002747-0.000412-0.000412-0.0005493-0.000679  C65.8248749,87.4669342,65.4806519,87.3762283,65.2160492,87.5293274z"/><path d="M67.5036011,86.2202759l-0.4575119,0.2615891c-0.2691116,0.1531677-0.3620758,0.4955444-0.2080917,0.7635651  c0.0000687,0.0001373,0.0000687,0.0002747,0.0001373,0.000412c0.1028824,0.1805954,0.2922363,0.2823868,0.4859695,0.2823868  c0.0952225,0,0.1904449-0.0240784,0.2780075-0.0744247l0.4575119-0.2615967  c0.269249-0.1532288,0.3622894-0.4958191,0.2079544-0.7639771c-0.0001297-0.000206-0.000267-0.0002747-0.0004044-0.000473  C68.112709,86.1589813,67.7682724,86.0660782,67.5036011,86.2202759z"/><path d="M76.6527328,80.9851608l-0.4575119,0.2615967c-0.269249,0.1532288-0.3622894,0.4958191-0.207962,0.7639771l0,0  c0.10289,0.1805954,0.292244,0.2823868,0.4859695,0.2823868c0.0952225,0,0.1904526-0.0240784,0.2780151-0.0744324  l0.4575043-0.2615891c0.2692566-0.1532364,0.3622894-0.4958191,0.207962-0.7639771  c-0.0000687-0.0000687-0.0000687-0.0000687-0.0001373-0.0001373C77.2634125,80.9239349,76.9186325,80.8320007,76.6527328,80.9851608  z"/><path d="M72.0776215,83.6021729l-0.4575119,0.2615891c-0.2692566,0.1532364-0.3622894,0.4958191-0.207962,0.7639771  c0.0000687,0.0001373,0.0003433,0.0002747,0.000412,0.000412c0.1030884,0.1803207,0.2920303,0.2819748,0.4855576,0.2819748  c0.0952225,0,0.1904526-0.0240784,0.2780075-0.0744247l0.4575119-0.2615891  c0.2691879-0.1531677,0.3621521-0.4954834,0.2080307-0.76371c-0.0000687-0.0000687,0-0.000206-0.0000687-0.0002747  C72.6883621,83.5408783,72.3435898,83.4489365,72.0776215,83.6021729z"/><path d="M74.3651733,82.2942123l-0.4575043,0.2615967c-0.2691879,0.1531601-0.3621521,0.4956818-0.2080307,0.7637711  c0.0000687,0.0000687,0,0.0001373,0.0000687,0.000206c0.1028824,0.1805954,0.2922363,0.2823868,0.4859695,0.2823868  c0.0952225,0,0.1904449-0.0240784,0.2780075-0.0744324l0.4575119-0.2615891  c0.269249-0.1532364,0.3622894-0.4958191,0.207962-0.7639771c-0.0000687-0.0001373-0.000206-0.000206-0.0002747-0.0003433  C74.9755783,82.2317581,74.6299133,82.1410522,74.3651733,82.2942123z"/><path d="M78.9402847,79.6761093l-0.4575043,0.2615967c-0.2692566,0.1532288-0.3622894,0.4958191-0.207962,0.7639771  c0.0000687,0.0000687,0.0000687,0.0000687,0.0001373,0.0001373c0.1028137,0.1805267,0.2921677,0.2822495,0.4858322,0.2822495  c0.0952225,0,0.1904449-0.0240784,0.2780075-0.0744324l0.4575119-0.2615891  c0.269249-0.1532288,0.3622894-0.4958191,0.207962-0.7639771l0,0C79.549942,79.6148224,79.205162,79.5228806,78.9402847,79.6761093z  "/><path d="M69.7911606,84.9112244l-0.4575119,0.2615891c-0.2691879,0.1531677-0.3621521,0.4956818-0.2080307,0.7637711  c0.0000687,0.0000687,0,0.0001373,0.0000687,0.000206c0.10289,0.1805954,0.292244,0.2823868,0.4859695,0.2823868  c0.0952225,0,0.1904449-0.0240784,0.2780075-0.0744247l0.4575119-0.2615967  c0.2692566-0.1532288,0.3622894-0.4958191,0.207962-0.7639771c-0.0000687-0.0001373-0.000206-0.000206-0.0002747-0.0003357  C70.4014282,84.8498611,70.0559006,84.7580566,69.7911606,84.9112244z"/><path d="M62.9284935,88.8372803l-0.2429848,0.1390076c-0.2692528,0.1532288-0.3622894,0.4958191-0.207962,0.7639771  c0.1028862,0.1816864,0.2922401,0.2823868,0.4859695,0.2823868c0.0952225,0,0.1904488-0.0240784,0.2780113-0.0744324  l0.242981-0.1389999c0.2692566-0.1532364,0.3622894-0.4958191,0.207962-0.7639771l-0.0000687-0.0000687  C63.5379372,88.7737274,63.193367,88.6829529,62.9284935,88.8372803z"/><path d="M85.5161896,41.9998474v-0.2801971c0-0.3097496-0.2506485-0.5603981-0.5603943-0.5603981  c-0.3097534,0-0.5603943,0.2506485-0.5603943,0.5603981v0.2801971c0,0.3096809,0.2504349,0.5601921,0.5601196,0.5603294  c0.0000687,0,0.000206,0.0000687,0.0002747,0.0000687C85.2655411,42.5602455,85.5161896,42.309597,85.5161896,41.9998474z"/><path d="M85.5161896,44.8647652v-0.5729828c0-0.3097496-0.2506485-0.5603981-0.5603943-0.5603981  c-0.0000687,0-0.000206,0.0000687-0.0002747,0.0000687c-0.3096848,0.0001373-0.5601196,0.2506485-0.5601196,0.5603294v0.5729828  c0,0.3096809,0.2504349,0.5601921,0.5601196,0.5603294c0.0000687,0,0.000206,0.0000687,0.0002747,0.0000687  C85.2655411,45.4251633,85.5161896,45.1745148,85.5161896,44.8647652z"/><path d="M85.5161896,50.5940514v-0.5729828c0-0.3097496-0.2506485-0.5603943-0.5603943-0.5603943  c-0.0000687,0-0.000206,0.0000687-0.0002747,0.0000687c-0.3096848,0.0001335-0.5601196,0.2506447-0.5601196,0.5603256v0.5729828  c0,0.3096848,0.2504349,0.5601921,0.5601196,0.5603294c0.0000687,0,0.000206,0.0000687,0.0002747,0.0000687  C85.2655411,51.1544495,85.5161896,50.9038048,85.5161896,50.5940514z"/><path d="M85.5161896,53.4589691v-0.5735283c0-0.3097496-0.2506485-0.5603981-0.5603943-0.5603981  c-0.0000687,0-0.000206,0.0000687-0.0002747,0.0000687c-0.3096848,0.0001373-0.5601196,0.2506447-0.5601196,0.5603294v0.5735283  c0,0.3096848,0.2504349,0.5601921,0.5601196,0.5603294c0.0000687,0,0.000206,0.0000687,0.0002747,0.0000687  C85.2655411,54.0193672,85.5161896,53.7687225,85.5161896,53.4589691z"/><path d="M85.5161896,56.3233414v-0.5724373c0-0.3097496-0.2506485-0.5603943-0.5603943-0.5603943  c-0.0000687,0-0.000206,0.0000648-0.0002747,0.0000648c-0.3096848,0.0001373-0.5601196,0.2506485-0.5601196,0.5603294v0.5724373  c0,0.3096809,0.2504349,0.5601921,0.5601196,0.5603256c0.0000687,0,0.000206,0.0000687,0.0002747,0.0000687  C85.2655411,56.8837357,85.5161896,56.633091,85.5161896,56.3233414z"/><path d="M85.5161896,47.7296829v-0.5729828c0-0.3097496-0.2506485-0.5603981-0.5603943-0.5603981  c-0.0000687,0-0.000206,0.0000687-0.0002747,0.0000687c-0.3096848,0.0001373-0.5601196,0.2506485-0.5601196,0.5603294v0.5729828  c0,0.3096809,0.2504349,0.5601921,0.5601196,0.5603294c0.0000687,0,0.000206,0.0000687,0.0002747,0.0000687  C85.2655411,48.290081,85.5161896,48.0394325,85.5161896,47.7296829z"/><path d="M84.395401,58.6152763v0.2801971c0,0.3097496,0.2506409,0.5603943,0.5603943,0.5603943  c0.3097458,0,0.5603943-0.2506447,0.5603943-0.5603943v-0.2801971c0-0.3097534-0.2506485-0.5603981-0.5603943-0.5603981  c-0.0000687,0-0.000206,0.0000687-0.0002747,0.0000687C84.6458359,58.0550842,84.395401,58.3055916,84.395401,58.6152763z"/><path d="M78.5156097,24.7780552l0.2539368,0.1182079c0.0766144,0.0355721,0.1565094,0.0525379,0.236412,0.0525379  c0.2112427,0,0.4126358-0.1198502,0.5078583-0.3239803c0.1313477-0.2807446,0.0087585-0.614027-0.2714386-0.744276  l-0.2539291-0.1182079c-0.2801971-0.130249-0.6129379-0.0109463-0.744278,0.2714424  c-0.0000687,0.0001354-0.0000687,0.0003414-0.0001373,0.0004787C78.1130371,24.3150024,78.2355499,24.6478748,78.5156097,24.7780552  z"/><path d="M73.4600067,22.4281101l0.5056686,0.235323c0.0766144,0.0355721,0.156517,0.0525379,0.2364197,0.0525379  c0.2112427,0,0.4126358-0.1198502,0.5078583-0.3239784c0.0000687-0.0001373,0.0000687-0.0003433,0.0001373-0.0004787  c0.1309967-0.2807465,0.0084839-0.6136189-0.2715836-0.7437992l-0.5056686-0.235323  c-0.2791061-0.1313419-0.6140289-0.010397-0.744278,0.2714424c-0.0000687,0.0001373,0,0.000206-0.0000687,0.0003433  C73.0585861,21.9647846,73.1799469,22.2979317,73.4600067,22.4281101z"/><path d="M68.4043961,20.0787144l0.5056686,0.2347755c0.076622,0.0355721,0.156517,0.0519905,0.2364197,0.0519905  c0.2111053,0,0.4134598-0.1198502,0.5076523-0.3242531c0.0000687-0.0001373,0.0001373-0.0001373,0.000206-0.0002747  c0.130249-0.2807446,0.0087585-0.614027-0.2714386-0.744276l-0.5056686-0.2347755  c-0.2812271-0.1296329-0.6137619-0.0100555-0.744072,0.2722626c-0.0000687,0.0000687-0.0001373,0.000206-0.000206,0.0002747  C68.0027084,19.6151829,68.1241989,19.9484653,68.4043961,20.0787144z"/><path d="M65.8760452,18.9026489l0.5056686,0.235321c0.076622,0.0355721,0.156517,0.0525379,0.2364197,0.0525379  c0.2112427,0,0.4126358-0.1198502,0.5078583-0.3239784c0.0000687-0.0001373,0.0000687-0.0003433,0.0001373-0.0004787  c0.1310043-0.2807465,0.0084839-0.6136189-0.2715759-0.7437992l-0.5056763-0.235321  c-0.2812881-0.1313438-0.6129303-0.0103989-0.7442703,0.2714405c-0.0000687,0.0001373,0,0.000206-0.0000687,0.0003433  C65.4746323,18.4393215,65.5959854,18.7724686,65.8760452,18.9026489z"/><path d="M70.9316559,21.2536869l0.5056686,0.2347755c0.0766144,0.0355721,0.156517,0.0519886,0.2364197,0.0519886  c0.211174,0,0.4134521-0.1199188,0.5077209-0.3243885c0-0.0000687,0.0001373-0.0000687,0.0001373-0.0001373  c0.130249-0.2807446,0.0087509-0.6140289-0.2714462-0.744276l-0.5056686-0.2347755  c-0.2789688-0.1301804-0.6146393-0.0099888-0.7440033,0.2721252c-0.0000687,0.0001373-0.000206,0.0002747-0.0002747,0.0004101  C70.5299606,20.7901554,70.6514587,21.1234379,70.9316559,21.2536869z"/><path d="M75.9872589,23.6041775l0.5056763,0.2347755c0.0766144,0.0355721,0.156517,0.0519905,0.236412,0.0519905  c0.2112427,0,0.4137344-0.1198521,0.5078583-0.3245277c0-0.0000687,0.0000687-0.0000687,0.0000687-0.0001354  c0.130249-0.2806778,0.0086212-0.6138916-0.2715073-0.7441406l-0.5056686-0.2347755  c-0.2799301-0.1295643-0.6143723-0.0094395-0.7437973,0.2718525c-0.0001373,0.0002747-0.0003433,0.0004101-0.0004807,0.0006847  C75.5855713,23.140646,75.7070618,23.4739285,75.9872589,23.6041775z"/><path d="M63.6005287,17.8453369l0.255024,0.1182098c0.0755234,0.0355721,0.156517,0.0519886,0.235321,0.0519886  c0.2110443,0,0.4131165-0.1202602,0.5085449-0.3240471c0.0000687-0.0002041,0.0003433-0.0002728,0.000412-0.0004787  c0.1291504-0.2807446,0.0076599-0.614027-0.2736282-0.744276l-0.2550278-0.1182098  c-0.2791023-0.1318893-0.6140289-0.0076599-0.7442741,0.2725372C63.1977463,17.3818073,63.3192368,17.7150898,63.6005287,17.8453369  z"/><path d="M80.6893387,60.5854187l0.1488571,0.2375107c0.106163,0.169651,0.2889557,0.2626877,0.4750214,0.2626877  c0.1017914,0,0.2046738-0.0273628,0.2977142-0.0853729c0.2626801-0.1641808,0.3414917-0.5100479,0.1773071-0.7727356  l-0.1488495-0.2375107c-0.1641846-0.2615929-0.5089569-0.3403969-0.7727356-0.1773148  c-0.0001373,0.0000687-0.0001373,0.000206-0.0002747,0.0002747C80.6039658,59.9772034,80.5252304,60.3228683,80.6893387,60.5854187z  "/><path d="M66.0478897,37.2534447l0.2933273,0.4668121c0.1072617,0.1691055,0.2889557,0.2621384,0.475029,0.2621384  c0.1028824,0,0.2057648-0.0279083,0.2977066-0.0859184l0,0c0.2626877-0.1647263,0.3414917-0.5105972,0.1773148-0.7727356  l-0.293335-0.4668121c-0.1662979-0.2615242-0.5140839-0.3375931-0.7724609-0.1763573  c-0.0000687,0.0000687-0.000206,0.0000687-0.0002747,0.0001373C65.9625168,36.6454353,65.8837051,36.9913063,66.0478897,37.2534447z  "/><path d="M68.9768372,41.9193993l0.2922363,0.4662704c0.1061707,0.169651,0.2889557,0.2626839,0.4750214,0.2626839  c0.1017914,0,0.2046738-0.0273628,0.2977142-0.0853729c0.0000687-0.0000687,0.0001297-0.0001373,0.0001984-0.000206  c0.2624817-0.1647949,0.3412247-0.5104561,0.1771088-0.7725296l-0.2922363-0.4662666  c-0.1641769-0.2621384-0.5089493-0.3403969-0.7727356-0.1773109c-0.000206,0.0001373-0.0002747,0.0002708-0.000473,0.0004082  C68.8914642,41.3119392,68.8127899,41.6574669,68.9768372,41.9193993z"/><path d="M70.4402161,44.2529259l0.2933273,0.4668159c0.1072617,0.1691017,0.2889557,0.2621384,0.475029,0.2621384  c0.1028137,0,0.2056274-0.0280495,0.2975006-0.0858536c0.0000687-0.0000687,0.0001373,0,0.000206-0.0000687  c0.2626877-0.1647263,0.3414917-0.5105934,0.1773148-0.7727318l-0.293335-0.4668159  c-0.1663666-0.2615242-0.5132599-0.3377304-0.7725983-0.1762848c-0.0000687,0-0.0000687,0.0000648-0.0001373,0.0000648  C70.3548431,43.6449165,70.2760315,43.9907875,70.4402161,44.2529259z"/><path d="M71.904686,46.5859032l0.293335,0.4668159c0.1072617,0.1691055,0.2889557,0.2621384,0.4750214,0.2621384  c0.1026764,0,0.2052917-0.027977,0.2970276-0.0857124c0.000206-0.0001373,0.0004807-0.0000687,0.0006866-0.000206  c0.2626801-0.1647263,0.3414841-0.5105972,0.1773071-0.7727356l-0.2933273-0.4668159  c-0.1663742-0.2626839-0.5133362-0.3393021-0.7727356-0.1762161c-0.0000687,0.0000687-0.000206,0.0001373-0.0002747,0.000206  C71.8192444,45.9781685,71.7405777,46.3238335,71.904686,46.5859032z"/><path d="M67.5123596,39.586422l0.293335,0.4668159c0.1072617,0.1691017,0.2889557,0.2621384,0.4750214,0.2621384  c0.1027451,0,0.2054291-0.0278435,0.2972336-0.0857849c0.0001373-0.0000687,0.0003433-0.0000687,0.0004807-0.0001373  c0.2626801-0.1647263,0.3414917-0.5105934,0.1773071-0.7727318L68.46241,38.9899063  c-0.1663742-0.2626877-0.5144272-0.3387566-0.7727356-0.1762199c-0.0000687,0-0.0000687,0.0001373-0.0001373,0.0001373  C67.4270554,38.9786873,67.3481827,39.3243523,67.5123596,39.586422z"/><path d="M59.9710884,25.4577541l-0.293335-0.466814c-0.1662979-0.2626171-0.513195-0.3386192-0.7725296-0.1762867  c-0.0000648,0.0000687-0.0001335,0-0.0002022,0.0000687c-0.2626877,0.1647243-0.3414917,0.5105953-0.1773148,0.7727337  l0.293335,0.466814c0.1072617,0.1691036,0.2889519,0.2621384,0.4750214,0.2621384  c0.1028175,0,0.2057037-0.0278416,0.2975731-0.0858517c0.0000687,0,0.0000687-0.0000687,0.0001373-0.0000687  C60.0564613,26.0657635,60.1352654,25.7198925,59.9710884,25.4577541z"/><path d="M74.7550354,51.015583c-0.0386505-0.0344086-0.076004-0.0702553-0.1249161-0.0936508  c-0.0000687,0,0-0.0000687-0.0000687-0.0000687c-0.2780075-0.1313438-0.6140289-0.0142288-0.7464676,0.2654228l-0.236412,0.4974594  c-0.1335373,0.2801971-0.0142288,0.6140289,0.2648697,0.7464676c0.0001373,0.0000687,0.000206,0,0.0003433,0.0000687  c0.0775757,0.0370064,0.1595993,0.054657,0.2404556,0.054657c0.209053,0,0.4104462-0.1182098,0.5056686-0.319603  l0.2364197-0.4974594c0.0364609-0.0763435,0.0505524-0.1563797,0.051239-0.2356644l0.1797028,0.2860107  c0.1072617,0.1691055,0.2889557,0.2621384,0.4750214,0.2621384c0.10289,0,0.2057037-0.0273628,0.2976456-0.0853729h0.0000687  c0.2626877-0.1652718,0.3414917-0.5111427,0.1773148-0.7732811l-0.293335-0.4668121  c-0.1663666-0.2615929-0.5133286-0.3376617-0.7727356-0.1762199l-0.0000687,0.0000687  C74.8215256,50.5978165,74.7325974,50.8089218,74.7550354,51.015583z"/><path d="M79.2259598,58.2529869l0.293335,0.4662666c0.106163,0.1685562,0.2878571,0.2615929,0.4739227,0.2615929  c0.102272,0,0.2044067-0.0276375,0.2970276-0.0859909c0.0005493-0.0003395,0.001236-0.0001335,0.0017776-0.0004768  c0.2615967-0.1641808,0.3404007-0.5100479,0.1751251-0.7727356l-0.2933273-0.4662666  c-0.1639099-0.2611809-0.5090942-0.3397827-0.7715073-0.175602c-0.000412,0.0002747-0.0008163,0.000206-0.0012283,0.0004768  C79.1394882,57.6444321,79.0606842,57.990303,79.2259598,58.2529869z"/><path d="M73.3691559,48.918335l0.292244,0.4668159c0.106163,0.1702003,0.2889557,0.2632332,0.4750214,0.2632332  c0.1017914,0,0.2046738-0.0273628,0.2977142-0.0853729c0.0001297-0.0000687,0.0001297-0.000206,0.000267-0.0002747  c0.261322-0.1642456,0.341156-0.5099106,0.1770401-0.7719116l-0.2922363-0.4668159  c-0.1641769-0.2626839-0.5089569-0.3403969-0.7727356-0.1778603c-0.0002747,0.0001373-0.0003433,0.000412-0.0006104,0.0005493  C73.2849503,48.3111496,73.2051163,48.6564713,73.3691559,48.918335z"/><path d="M77.7614822,55.9183655l0.292244,0.4662704c0.106163,0.169651,0.2889557,0.2626839,0.4750214,0.2626839  c0.1017914,0,0.2046051-0.0273628,0.2976456-0.0853729h0.0000687c0.2626801-0.1641769,0.3414841-0.5100479,0.1773071-0.7727356  l-0.2922363-0.4662666c-0.1641769-0.2615891-0.5089569-0.3414917-0.7727356-0.1773109  c-0.0002747,0.0002022-0.0004807,0.0004768-0.0007477,0.0006828C77.6760483,55.3106995,77.5975113,55.6559563,77.7614822,55.9183655  z"/><path d="M61.4344673,27.7912807l-0.2922401-0.4662685c-0.1641769-0.2626858-0.5089531-0.3414917-0.7727318-0.1773129  c-0.0000687,0.0000687-0.0001373,0.0001373-0.000206,0.000206c-0.2624817,0.1647949-0.341217,0.510458-0.1771088,0.7725296  l0.2922401,0.4662666c0.1061668,0.169651,0.2889519,0.2626858,0.4750214,0.2626858  c0.1017914,0,0.2046776-0.0273628,0.2977104-0.0853729c0.000206-0.0001373,0.0002747-0.0002728,0.0004807-0.0004101  C61.5198402,28.3987408,61.5985069,28.0532131,61.4344673,27.7912807z"/><path d="M62.898941,30.124258l-0.293335-0.466814c-0.1662979-0.2614536-0.5128517-0.3374557-0.7722549-0.1763554  c-0.0001373,0.0000687-0.0003395,0.0000687-0.0004768,0.0001373c-0.2626877,0.1647263-0.3414917,0.5105953-0.1773148,0.7727337  l0.293335,0.4668159c0.1072617,0.1691036,0.2889519,0.2621384,0.4750214,0.2621384  c0.1028862,0,0.2057724-0.0279102,0.2977104-0.0859203c0.0000687,0,0.0000687-0.0001373,0.0001373-0.0001373  C62.9842453,30.7319927,63.063118,30.3863297,62.898941,30.124258z"/><path d="M64.3634109,32.4572372l-0.2933273-0.466814c-0.1652756-0.2626858-0.514431-0.3387547-0.7727356-0.176218l0,0  c-0.2626877,0.1647243-0.3414917,0.5105934-0.1773148,0.7727318l0.2933311,0.4668159  c0.1072655,0.1691055,0.2889557,0.2621384,0.4750252,0.2621384c0.1027489,0,0.2054291-0.0280457,0.2974396-0.0858498  c0.0000687-0.0000687,0.000206,0,0.0002747-0.0000687C64.4487839,33.0652466,64.5275955,32.7193756,64.3634109,32.4572372z"/><path d="M76.2970123,53.5848427l0.293335,0.4673615c0.1072617,0.169651,0.2889557,0.2626839,0.4750214,0.2626839  c0.1017227,0,0.2055664-0.0275002,0.2974396-0.0853043c0.0000687-0.0000687,0.000206,0,0.000267-0.0000687  c0.2626877-0.1652718,0.3414917-0.5111427,0.1773148-0.7727318l-0.2933273-0.4673653  c-0.1652756-0.2615891-0.5122375-0.3414917-0.7727356-0.1773109c-0.0002747,0.0001373-0.0003433,0.0004082-0.000618,0.0005455  C76.2117081,52.978199,76.1329727,53.3235245,76.2970123,53.5848427z"/><path d="M58.5066147,23.1242294l-0.1488571-0.2369652c-0.1663666-0.2621384-0.5133324-0.3376617-0.7727318-0.176218  c-0.2626877,0.1647243-0.3414917,0.5105953-0.1773148,0.7727337l0.1488571,0.2369652  c0.1072617,0.1691036,0.2889519,0.2621384,0.4750214,0.2621384c0.1028862,0,0.2057724-0.0279102,0.2977104-0.0859203l0,0  C58.5919876,23.7322369,58.6707916,23.3863678,58.5066147,23.1242294z"/><path d="M78.0570068,65.8303757l0.2397003,0.1444778c0.0897522,0.0536346,0.1904449,0.0799026,0.2889557,0.0799026  c0.1893539,0,0.3743286-0.0963211,0.4804993-0.2714386c0.158699-0.2648773,0.0733261-0.6096497-0.1915436-0.769455  l-0.2397003-0.1444778c-0.2602921-0.1563797-0.606781-0.0734024-0.7689056,0.1909943  c-0.0001373,0.000206-0.000412,0.0003433-0.0005493,0.0005493C77.7067566,65.3258057,77.7921295,65.670578,78.0570068,65.8303757z"/><path d="M69.2592239,59.224926l-0.4936371-0.2977104c-0.2593994-0.1587067-0.608551-0.0755234-0.7683563,0.1904449  c-0.000061,0.0000687-0.000061,0.0002747-0.0001297,0.0003433c-0.1595993,0.2649422-0.0753174,0.6082802,0.1905823,0.768013  l0.4936295,0.2977104c0.0897522,0.0547256,0.1893539,0.0809975,0.2889557,0.0809975  c0.1893539,0,0.3743286-0.0963211,0.4794006-0.2714424c0.0001373-0.000206,0.0000687-0.0003433,0.000206-0.0005493  C69.6091232,59.7280655,69.5249863,59.3845901,69.2592239,59.224926z"/><path d="M66.79216,57.7374649l-0.4936295-0.2966156c-0.2636414-0.1564484-0.6093063-0.0744934-0.7691727,0.1912003  c-0.0000687,0.0001373-0.000206,0.000206-0.0002747,0.0003433c-0.1598053,0.2659683-0.0733337,0.6096497,0.1915436,0.7694511  l0.4936295,0.2966156c0.0908432,0.0536308,0.1904449,0.0798988,0.2889557,0.0798988  c0.1890793,0,0.374733-0.0961113,0.4799423-0.2708931c0.0001373-0.000206,0.000412-0.0003433,0.0005493-0.0005493  C67.1435089,58.2409477,67.0570374,57.8972664,66.79216,57.7374649z"/><path d="M73.1228943,62.8576508l0.4936295,0.2977104c0.0897522,0.0547256,0.1893539,0.0809937,0.2889557,0.0809937  c0.1893463,0,0.374321-0.0963173,0.4794006-0.2714386c0.0001373-0.0001373,0.0001373-0.000412,0.000206-0.0005493  c0.1593857-0.2648735,0.0751801-0.6081467-0.1906586-0.767807l-0.4936295-0.2977104  c-0.2593994-0.1576118-0.60746-0.0766182-0.7683563,0.1904449c-0.0000687,0.0001373-0.0000687,0.000206-0.0001373,0.0003433  C72.7727127,62.3543739,72.8570557,62.6979179,73.1228943,62.8576508z"/><path d="M64.3251038,56.2532921l-0.4925346-0.2977104c-0.2626877-0.1587067-0.6096497-0.0755234-0.7694511,0.1893501  c-0.0003433,0.0005493-0.0002747,0.0012321-0.0006142,0.0017815c-0.1583633,0.2647362-0.0743599,0.6082115,0.1899681,0.7676697  l0.4925346,0.2977104c0.090847,0.0547256,0.1904488,0.0809975,0.2900505,0.0809975  c0.1893539,0,0.3743286-0.0963211,0.4794006-0.2703476c0.0002747-0.0004807,0.0002747-0.0009575,0.0005493-0.0014381  C64.6737137,56.7566338,64.5895004,56.4128189,64.3251038,56.2532921z"/><path d="M70.6547394,61.3734741l0.4936295,0.2966194c0.0908432,0.0536308,0.1904449,0.0798988,0.2889557,0.0798988  c0.1892853,0,0.375351-0.096386,0.4803619-0.2713051c0.0000687-0.0000687,0.0000687-0.0000687,0.0001373-0.0001373  c0.1597977-0.2659683,0.0733261-0.6096497-0.1915436-0.7694511l-0.4936295-0.2966156  c-0.2646027-0.156311-0.6087646-0.0744972-0.7687683,0.1907883c-0.000206,0.0002747-0.0004807,0.0004807-0.0006866,0.0007553  C70.3033981,60.8699951,70.3898621,61.2136765,70.6547394,61.3734741z"/><path d="M75.5899506,64.345108l0.4936295,0.2966156c0.0908432,0.0536346,0.1904449,0.0799026,0.2889557,0.0799026  c0.1892853,0,0.375351-0.0963898,0.4803543-0.2713089c0.0000687-0.0000687,0.0000687-0.0000687,0.0001373-0.0001297  c0.1598053-0.265976,0.0733337-0.6096535-0.1915359-0.769455l-0.4936295-0.2966156  c-0.2646027-0.1552849-0.6087646-0.0744972-0.7687683,0.1907883c-0.000206,0.0002747-0.0004807,0.0004807-0.0006866,0.0007553  C75.2386093,63.841629,75.3250732,64.1853104,75.5899506,64.345108z"/><path d="M61.8558578,54.765831l-0.2407951-0.144474c-0.2615929-0.1598015-0.6085548-0.0733337-0.7683563,0.1926346  c-0.1598015,0.2648735-0.0733337,0.6096497,0.1926384,0.7683563l0.2407951,0.1444778  c0.0897484,0.0547256,0.1893501,0.0798988,0.2878571,0.0798988c0.1888084,0,0.3741226-0.0973434,0.4792671-0.2713737  c0.0003395-0.0005455,0.0008888-0.0006142,0.0012321-0.0011635C62.2082939,55.2693138,62.1218262,54.9245377,61.8558578,54.765831z"/><path d="M73.0615997,40.5862694c0.1532288,0,0.3053741-0.0623856,0.4170151-0.1855202l0.1871643-0.207962  c0.2068634-0.2298508,0.1882553-0.5844765-0.0415955-0.7913399c-0.2298508-0.2063179-0.582283-0.1882591-0.7924347,0.0415916  l-0.1871643,0.2079582c-0.2066574,0.2296448-0.1881866,0.583725,0.0410461,0.790657  c0.000206,0.000206,0.0003433,0.0004807,0.0005493,0.0006866C72.7934418,40.5386581,72.9280701,40.5862694,73.0615997,40.5862694z"/><path d="M63.4801331,49.7939568l-0.3819885,0.4230309c-0.2078934,0.2291679-0.1892166,0.583519,0.0402222,0.7910004  c0.0001373,0.0000687,0.0001373,0.0002747,0.0002747,0.0003433c0.1072617,0.0968628,0.24189,0.1444778,0.3754196,0.1444778  c0.1532364,0,0.3053741-0.0623894,0.4159203-0.1849747l0.3819923-0.4230347  c0.2078857-0.2292366,0.1893463-0.5835876-0.0402985-0.791069c-0.0000687-0.0000687-0.0001297-0.0002022-0.0001984-0.0002708  C64.042717,49.5454979,63.6869965,49.564106,63.4801331,49.7939568z"/><path d="M67.2989273,45.5674515l-0.3819885,0.4230309c-0.2078934,0.2292366-0.1893539,0.5835876,0.0402908,0.791069  c0.0000687,0.0000687,0.0001373,0.000206,0.000206,0.0002747c0.1072617,0.0968628,0.24189,0.1444778,0.3754196,0.1444778  c0.1532364,0,0.3053741-0.0623894,0.4159241-0.1849747l0.3819885-0.4230347  c0.2078934-0.2291679,0.1892166-0.583519-0.0402222-0.7910004c-0.0001373-0.0000687-0.0001373-0.0002747-0.0002747-0.0003433  C67.8604202,45.3195419,67.5057907,45.3386955,67.2989273,45.5674515z"/><path d="M69.2077789,43.4544716l-0.3808975,0.4224854c-0.2077484,0.2295761-0.1890793,0.5836563,0.0399551,0.7911377  c0.0002747,0.0002022,0.0002747,0.0005455,0.0005417,0.0007515c0.1072693,0.0963173,0.24189,0.1439285,0.3754272,0.1439285  c0.1532288,0,0.3053665-0.0623856,0.4159164-0.1849747l0.3808975-0.4224854  c0.2076797-0.2295761,0.1891479-0.5836563-0.0398865-0.791069c-0.0002747-0.0002708-0.0003433-0.0005455-0.0006104-0.0008202  C69.7692719,43.2076569,69.415741,43.2257156,69.2077789,43.4544716z"/><path d="M71.5675735,42.5148201l0.3819885-0.4224854c0.2067261-0.2297134,0.1892166-0.5835876-0.0402222-0.7915459  c-0.0001373-0.0001373-0.0001373-0.000206-0.0002747-0.0003433c-0.2287598-0.2068634-0.5833817-0.1882553-0.7913437,0.0399513  l-0.3819885,0.4224854c-0.2068634,0.2298508-0.1893539,0.583931,0.0404968,0.7918892l0.0000687,0.0000687  c0.1072617,0.0968666,0.2407303,0.1444092,0.3753586,0.1444092C71.3048859,42.6992493,71.4570236,42.6368599,71.5675735,42.5148201z  "/><path d="M65.3889847,47.6809769l-0.3808975,0.4224854c-0.207756,0.2295761-0.1891479,0.5834503,0.0398865,0.791069  c0.000267,0.000206,0.0003357,0.0006142,0.0006104,0.0008202c0.1072617,0.0963173,0.24189,0.1439285,0.3754272,0.1439285  c0.1532288,0,0.3053665-0.0623856,0.4159164-0.1849747l0.3808899-0.4224854  c0.207756-0.2295761,0.1890793-0.583519-0.0399475-0.7911339c-0.0002747-0.000206-0.0002747-0.0005493-0.0005493-0.0007553  C65.95047,47.4336128,65.5958481,47.4527664,65.3889847,47.6809769z"/><path d="M61.5690918,51.9080276l-0.1871643,0.207962c-0.2068634,0.2309456-0.1882553,0.5844765,0.0415916,0.7924347  c0.1072655,0.0963173,0.24189,0.143383,0.3754234,0.143383c0.1532326,0,0.3053741-0.0623894,0.4170151-0.1849747  l0.1871643-0.2079582c0.2066574-0.2307396,0.1881866-0.5836563-0.0410461-0.7916832  c-0.000206-0.000206-0.0003433-0.0005493-0.0005493-0.0007553C62.1316795,51.6612129,61.7781487,51.6792755,61.5690918,51.9080276z"/><path d="M79.3912354,42.2132797l0.1203918-0.2528343c0.1335373-0.2791023,0.0142288-0.6134796-0.2648697-0.7470131  c-0.2769165-0.1313438-0.6140289-0.0142288-0.7464676,0.2654228l-0.1203995,0.2528343  c-0.1335297,0.2791023-0.0142288,0.6134796,0.2648773,0.7470131c0.0000687,0.0000687,0.000206,0,0.0002747,0.0000687  c0.0776443,0.0364609,0.1595917,0.0541115,0.2405167,0.0541115C79.0946198,42.5328827,79.2960052,42.4152184,79.3912354,42.2132797z  "/><path d="M70.3340454,58.6524887l-0.2364197,0.4969139c-0.1335297,0.2791023-0.0142288,0.6140289,0.2648773,0.7464638  c0.0001373,0.0000687,0.000206,0,0.0003433,0.0000687c0.0775681,0.0370102,0.1595917,0.0546608,0.240448,0.0546608  c0.209053,0,0.4104462-0.1182098,0.5056763-0.319603l0.236412-0.4969139  c0.1335297-0.2791023,0.0142288-0.6140289-0.2648697-0.7464638c-0.0001373-0.0000687-0.0002747,0-0.000412-0.0000687  C70.8022232,58.2543564,70.4664154,58.3724289,70.3340454,58.6524887z"/><path d="M71.5161285,56.1635399l-0.236412,0.4980087c-0.13237,0.2801285-0.0132751,0.6137543,0.2657623,0.7473564  c0.0000687,0.0000687,0.0001373,0.0001373,0.000206,0.0002022c0.0777054,0.0361214,0.1597977,0.0536346,0.2407913,0.0536346  c0.209053,0,0.4104462-0.1182098,0.5067673-0.319603l0.2364197-0.4980087  c0.1323624-0.2800598,0.0131989-0.6136856-0.2656326-0.7472839c-0.0001373-0.0000687-0.000206-0.000206-0.0003433-0.0002747  C71.9845886,55.7684174,71.6496582,55.8833427,71.5161285,56.1635399z"/><path d="M69.149765,61.1403427l-0.236412,0.4980087c-0.13237,0.2800598-0.0132065,0.6135483,0.265625,0.7472878  c0.0001373,0.0000648,0.000206,0.0002022,0.0003433,0.0002708c0.077713,0.0361214,0.1597977,0.0536308,0.2407913,0.0536308  c0.2090607,0,0.4104462-0.118206,0.5067673-0.3195992l0.2364197-0.4980087  c0.1324387-0.2801285,0.0131302-0.6139603-0.2657623-0.7474251c-0.0000687-0.0000648-0.0001373-0.0000648-0.000206-0.0001335  C69.6193161,60.7441254,69.2833023,60.8612404,69.149765,61.1403427z"/><path d="M64.0087891,74.5614014l0.2375107-0.4980087c0.1335297-0.2791061,0.0153198-0.6129379-0.2648735-0.7464676  c-0.0001373-0.0000687-0.0003433-0.0000687-0.0004807-0.0001373c-0.2791023-0.1331863-0.6125221-0.0161438-0.7459869,0.2650146  l-0.2375107,0.4980087c-0.1335335,0.2790985-0.0153236,0.6129303,0.2648735,0.74646  c0.0002747,0.0001373,0.0005493,0.0000687,0.0008202,0.000206c0.0774384,0.0369415,0.159256,0.0545273,0.239975,0.0545273  C63.7121696,74.8810043,63.912468,74.7638855,64.0087891,74.5614014z"/><path d="M72.6993103,53.6756859l-0.2364197,0.4980087c-0.1323624,0.2800636-0.0131989,0.6136856,0.2656326,0.7472878  c0.0001373,0.0000687,0.000206,0.000206,0.0003433,0.0002708c0.0777054,0.0361214,0.1597977,0.0536346,0.2407913,0.0536346  c0.209053,0,0.4104462-0.1182098,0.5067673-0.319603l0.236412-0.4980087c0.13237-0.2801285,0.0132751-0.6139603-0.2657623-0.7474213  c-0.0000687-0.0000687-0.0001373-0.0000687-0.000206-0.0001373C73.1688614,53.2794685,72.8339386,53.3965836,72.6993103,53.6756859z  "/><path d="M62.8256073,77.0492554l0.2375107-0.4980087c0.1335335-0.2791061,0.0153236-0.6129379-0.2648735-0.7464676  c-0.0000687-0.0000687-0.0002747,0-0.0003433-0.0000687c-0.2769814-0.1320953-0.6126595-0.0162811-0.7461243,0.264946  l-0.2375107,0.4980087c-0.1335335,0.2790985-0.0153236,0.6129303,0.2648735,0.74646  c0.0002747,0.0001373,0.0006866,0.0000687,0.0009575,0.000206c0.0775757,0.0369415,0.1591873,0.0545273,0.2398376,0.0545273  C62.5289917,77.3688583,62.72929,77.2517395,62.8256073,77.0492554z"/><path d="M60.8685989,78.5575104l-0.2375145,0.4969101c-0.1335297,0.2791061-0.0153236,0.6140289,0.2637825,0.7475586  c0.0006828,0.0003433,0.0013657,0.0001373,0.0020523,0.0004807c0.0770264,0.0364609,0.1595268,0.054245,0.2398376,0.054245  c0.209053,0,0.4093513-0.1171112,0.5056686-0.3185043l0.2375107-0.4969101  c0.1335335-0.2791061,0.0153236-0.6140289-0.2637787-0.7475662c-0.0005493-0.000267-0.0010948-0.0001297-0.0016403-0.0004044  C61.3358231,78.1621094,61.0018539,78.2789536,60.8685989,78.5575104z"/><path d="M78.2080536,44.701683l0.236412-0.4974632c0.1335373-0.279583,0.0141602-0.6138229-0.2647324-0.7469444  c-0.0000687,0-0.0000687-0.0000687-0.0001373-0.0000687c-0.2780075-0.1313438-0.6140289-0.0136795-0.7464676,0.2654228  l-0.2364197,0.4974594c-0.1335297,0.2796516-0.0142288,0.6140289,0.2648773,0.7470131  c0.0000687,0,0.0000687,0.0000687,0.0001373,0.0000687c0.0776443,0.0366669,0.159729,0.0541115,0.2406616,0.0541115  C77.911438,45.0212822,78.1128311,44.9030724,78.2080536,44.701683z"/><path d="M67.9665909,63.6281967l-0.2364197,0.4980087c-0.13237,0.2801285-0.0133438,0.6137543,0.2656937,0.7473526  c0.0000687,0.0000687,0.000206,0.0001373,0.0002747,0.000206c0.077713,0.0361176,0.1597977,0.0536346,0.240799,0.0536346  c0.209053,0,0.4104462-0.1182098,0.5067596-0.319603l0.2364197-0.4980087  c0.13237-0.2800598,0.0131302-0.6137543-0.2656937-0.7473564c-0.0001373-0.0000687-0.0001373-0.0001335-0.0002747-0.0002022  C68.4350433,63.2330742,68.1001205,63.3490906,67.9665909,63.6281967z"/><path d="M77.0248718,47.1900826l0.2364197-0.4974632c0.1335297-0.2796478,0.0142975-0.6139565-0.2648087-0.7469444  L76.9964142,45.94561c-0.2791061-0.1307983-0.6140289-0.0136833-0.7464676,0.265419l-0.2364197,0.4974632  c-0.1335297,0.2796516-0.0142288,0.6140289,0.2648773,0.7470131h0.0000687  c0.077713,0.0366669,0.1597366,0.0541763,0.2407303,0.0541763C76.7282562,47.5096817,76.9296494,47.3914757,77.0248718,47.1900826z"/><path d="M59.6854172,81.0464554l-0.2375107,0.4980087c-0.1335335,0.2791061-0.0153236,0.6129379,0.2648735,0.7464676  c0.0002747,0.0001373,0.0004768,0.0000687,0.0007515,0.000206c0.0774384,0.0369415,0.1593208,0.0545197,0.2400436,0.0545197  c0.209053,0,0.4093513-0.1171112,0.5056686-0.319603l0.2375145-0.4980087  c0.1335297-0.2790985,0.0153236-0.6129303-0.2648773-0.7464676c-0.0001373-0.0000687-0.0003395-0.0000687-0.0004768-0.0001297  C60.1533928,80.6482544,59.8188782,80.7663956,59.6854172,81.0464554z"/><path d="M65.6002274,68.6049957l-0.2364197,0.4980087c-0.13237,0.2800674-0.0132675,0.6135483,0.2655563,0.7472916  c0.0001373,0.0000687,0.0002747,0.000206,0.000412,0.0002747c0.077713,0.0361176,0.1598053,0.053627,0.240799,0.053627  c0.209053,0,0.4104462-0.1182098,0.5067596-0.319603l0.2364197-0.4980087  c0.1324387-0.2801285,0.0130692-0.6137543-0.265831-0.7474213c-0.0000687,0-0.0000687-0.0001373-0.0001373-0.0001373  C66.0697784,68.2087784,65.733757,68.3258972,65.6002274,68.6049957z"/><path d="M75.3360214,49.998085c0.209053,0,0.4104462-0.1182098,0.5067596-0.3201485l0.2364197-0.4980087  c0.1324387-0.279583,0.0130692-0.6137543-0.265831-0.7463303c-0.0000687,0-0.0000687-0.0001373-0.0001373-0.0001373  c-0.2769165-0.1318893-0.6140289-0.0142288-0.7475586,0.2659721l-0.2364197,0.4980087  c-0.1324387,0.2796516-0.0131302,0.6140289,0.2659683,0.7464638l0,0  C75.1729355,49.9805717,75.2550278,49.998085,75.3360214,49.998085z"/><path d="M66.7845001,66.1171417l-0.2364197,0.4969177c-0.1335297,0.2791061-0.0142288,0.6140289,0.2648773,0.7464676  c0.0000687,0.0000687,0.000206,0,0.0002747,0.0000687c0.0777817,0.0370026,0.1595917,0.054657,0.2405243,0.054657  c0.209053,0,0.4104462-0.1182098,0.5056686-0.319603l0.2364197-0.4969177  c0.1335297-0.2790985,0.0142288-0.6140213-0.2648773-0.74646c-0.0001373-0.0000687-0.0002747-0.0000687-0.000412-0.0001373  C67.2515869,65.7189407,66.9168701,65.8381805,66.7845001,66.1171417z"/><path d="M64.4181366,71.0939484l-0.236412,0.4969101c-0.1335373,0.2791061-0.0142288,0.6140289,0.2648697,0.7464676  c0.0000687,0,0.0000687,0,0.0001373,0c0.0776443,0.0372162,0.1597366,0.0547256,0.2406616,0.0547256  c0.209053,0,0.4104462-0.1182098,0.5056686-0.319603l0.2364197-0.4969101  c0.1335297-0.2791061,0.0142288-0.6140289-0.2648773-0.7464676c-0.000206-0.0000687-0.000412-0.0000687-0.000618-0.0001373  C64.8861847,70.6968384,64.5505066,70.8150482,64.4181366,71.0939484z"/><path d="M58.5022354,83.5343094l-0.1203957,0.2528381c-0.1335335,0.2790985-0.0142288,0.6140289,0.2648735,0.74646  c0.0777092,0.0372162,0.1598015,0.0547333,0.2407951,0.0547333c0.209053,0,0.4104462-0.1182098,0.5056686-0.319603  l0.1203995-0.2528381c0.1335297-0.2791061,0.0142288-0.6140289-0.2648735-0.7464676  c-0.0001373-0.0000687-0.000206,0-0.0003433-0.0000687C58.9693909,83.1372681,58.6346054,83.2553406,58.5022354,83.5343094z"/><text x="0" y="115" fill="#000000" font-size="5px" font-weight="bold" font-family="'Helvetica Neue', Helvetica, Arial-Unicode, Arial, Sans-serif"><!-- Created by emilegraphics --></text><text x="0" y="120" fill="#000000" font-size="5px" font-weight="bold" font-family="'Helvetica Neue', Helvetica, Arial-Unicode, Arial, Sans-serif"><!-- from the Noun Project --></text></svg>
